<svg xmlns="http://www.w3.org/2000/svg" xmlns:xlink="http://www.w3.org/1999/xlink" id="Get_in_touch_Svg" data-name="Get in touch Svg" width="536.19" height="380.597" viewBox="0 0 536.19 357.597"><defs><linearGradient id="linear-gradient" x1="-0.072" y1="-0.032" x2="1" y2="1" gradientUnits="objectBoundingBox"><stop offset="0" stop-color="#3cd89d"/><stop offset="1" stop-color="#82c444"/></linearGradient></defs><g id="BACKGROUND" transform="translate(25.57 41.268)"><path id="Path_7169" data-name="Path 7169" d="M115.316,432.829H537.385c1.645-5.562,3.156-11.166,4.5-16.812,3.526-14.864,5.991-30.347,3.43-45.415-2.622-15.419-10.363-29.547-13.109-44.944-5.618-31.508,9.918-66.107-3.616-95.009-12.686-27.093-45.843-37.112-75.3-37.323s-59.357,6.3-88.082-.341c-29.208-6.756-53.683-26.287-80.185-40.51s-59.773-22.939-85.649-7.568c-22.687,13.477-32.908,41.385-52.455,59.257-25.8,23.591-66.7,28.8-85.331,58.591C52.248,277.693,50.47,296.338,51.761,314,55.15,360.373,79.222,404.545,115.316,432.829Z" transform="translate(-51.388 -136.797)" fill="#1e1e1e" opacity="0.1"/></g><g id="leaf" transform="translate(-3.436 186.875)"><g id="leaf2"><g id="leaf_2" data-name="leaf 2" transform="translate(0 5.86)"><g id="Group_8377" data-name="Group 8377" transform="translate(35.89 -8)"><path id="Path_7170" data-name="Path 7170" d="M72.752,336.974c.945-1.366,2.225-2.733,2.123-4.391a5.821,5.821,0,0,0-1.154-2.692c-3.682-5.675-7.417-11.638-8.2-18.357s2.322-14.4,8.7-16.644a48.354,48.354,0,0,1-.78-25.643,9.746,9.746,0,0,1,2.607-5.085,5.317,5.317,0,0,1,2.238-1.145l.024-.008.023-.008a5.332,5.332,0,0,1,2.465-.489,9.741,9.741,0,0,1,5.2,2.372,48.341,48.341,0,0,1,15.29,20.6c6.4-2.194,13.6,1.9,17.148,7.661s4.321,12.751,4.952,19.487a5.811,5.811,0,0,0,.763,2.827c.948,1.365,2.8,1.643,4.388,2.129,6.69,2.045,10.466,9.2,11.915,16.046a46.037,46.037,0,0,1-5.793,33.336c-3.464,5.614-10.1,8.473-16.71,10.114-6.2,2.811-13.179,4.683-19.378,2.427a46.03,46.03,0,0,1-25.219-22.558C70.249,350.685,68.772,342.728,72.752,336.974Z" transform="translate(-65.401 -262.507)" fill="#1e1e1e"/><path id="Path_7171" data-name="Path 7171" d="M76.8,265.633a.605.605,0,0,1,.775.358L91,302.491c1.454-6.569,10.624-12.553,11.092-12.854a.6.6,0,1,1,.652,1.013c-.13.083-12.985,8.464-10.393,15.514v0l11.039,30.02c2.124-8.745,15.1-11.769,15.7-11.9a.6.6,0,1,1,.265,1.176c-.152.034-15.053,3.5-15.061,13.2l12.263,33.348a.6.6,0,0,1-.359.774.612.612,0,0,1-.328.024.6.6,0,0,1-.446-.382l-3.507-9.539h0c-3.347-9.1-24.48-12.783-24.693-12.814l-.019,0a.6.6,0,0,1,.221-1.184c.758.13,15.966,2.776,22.828,9.478l-7.131-19.39h0L94,314.136h0c-2.86-7.778-17.123-10.192-17.271-10.214a.589.589,0,0,1-.5-.692.6.6,0,0,1,.692-.5c.5.087,10.11,1.707,15.389,6.813L76.444,266.407A.6.6,0,0,1,76.8,265.633Z" transform="translate(-63.185 -261.874)" fill="#6e6e70" opacity="0.5" style="mix-blend-mode: screen;isolation: isolate"/></g></g></g><g id="leaf1"><g id="leaf_1" data-name="leaf 1" transform="translate(454.16)"><g id="Group_8382" data-name="Group 8382" transform="translate(3 39.83)"><path id="Path_7178" data-name="Path 7178" d="M473.645,365.337c-.654-1.528-1.636-3.122-1.2-4.726a5.816,5.816,0,0,1,1.668-2.407c4.74-4.827,9.589-9.926,11.7-16.354s.6-14.572-5.209-18.046a48.341,48.341,0,0,0,5.878-24.971,9.743,9.743,0,0,0-1.541-5.5,5.33,5.33,0,0,0-1.964-1.568l-.022-.013-.022-.012a5.324,5.324,0,0,0-2.317-.971,9.74,9.74,0,0,0-5.568,1.288,48.341,48.341,0,0,0-19.092,17.137c-5.832-3.428-13.7-.846-18.331,4.087s-6.776,11.633-8.738,18.107A5.792,5.792,0,0,1,427.566,334c-1.2,1.148-3.07,1.052-4.724,1.211-6.962.67-12.09,6.932-14.874,13.348a46.032,46.032,0,0,0-.97,33.822c2.275,6.192,8.207,10.316,14.356,13.242,5.517,3.993,11.981,7.217,18.506,6.244a46.032,46.032,0,0,0,29.21-17.077C473.364,379.271,476.4,371.768,473.645,365.337Z" transform="translate(-404.243 -290.7)" fill="#1e1e1e"/><path id="Path_7179" data-name="Path 7179" d="M478.694,294.117a.6.6,0,0,0-.829.2l-20.43,33.09c-.116-6.727-7.909-14.418-8.308-14.807a.6.6,0,1,0-.84.863c.111.107,11.037,10.884,7.091,17.275v0l-16.8,27.216c-.337-8.992-12.454-14.544-13.015-14.8a.6.6,0,0,0-.494,1.1c.141.064,14.053,6.427,12.126,15.938l-18.666,30.233a.6.6,0,0,0,1.025.634l5.34-8.649h0c5.1-8.254,26.537-7.645,26.752-7.633h.021a.6.6,0,0,0,.019-1.2c-.768-.024-16.2-.464-24.259,4.735l10.854-17.578h0l13.9-22.512h0c4.353-7.051,18.811-6.574,18.96-6.564a.588.588,0,0,0,.625-.578.6.6,0,0,0-.578-.627c-.5-.013-10.248-.342-16.438,3.607l24.146-39.11A.6.6,0,0,0,478.694,294.117Z" transform="translate(-401.335 -290.018)" fill="#6e6e70" opacity="0.5" style="mix-blend-mode: screen;isolation: isolate"/></g></g></g></g><g id="OBJECTS" transform="translate(-3.436)"><g id="animationobject"><g id="Animation_object" data-name="Animation object" class=""><path id="location" d="M121.722,127.876a15.655,15.655,0,0,0-15.654,15.655c0,8.646,7.009,32.047,15.654,32.047s15.655-23.4,15.655-32.047A15.655,15.655,0,0,0,121.722,127.876Zm0,23.486a7.831,7.831,0,1,1,7.832-7.831A7.831,7.831,0,0,1,121.722,151.362Z" transform="translate(-11.179 -97.357)" fill="url(#linear-gradient)"/><g id="desktop" transform="translate(83.711 94.452)"><rect id="Rectangle_1251" data-name="Rectangle 1251" width="402.078" height="243.514" fill="#fff"/><g id="Group_8401" data-name="Group 8401" transform="translate(18.672 22.005)"><g id="Group_8388" data-name="Group 8388" transform="translate(0 140.838)"><rect id="Rectangle_1252" data-name="Rectangle 1252" width="231.988" height="58.667" fill="#333"/><g id="Group_8387" data-name="Group 8387" transform="translate(88.06 8.991)"><path id="Rectangle_1253" data-name="Rectangle 1253" d="M0,0H43.993a0,0,0,0,1,0,0V24.834a1.513,1.513,0,0,1-1.513,1.513H1.513A1.513,1.513,0,0,1,0,24.834V0A0,0,0,0,1,0,0Z" transform="translate(1.291 15.786)" fill="#fff"/><g id="Group_8386" data-name="Group 8386"><rect id="Rectangle_1254" data-name="Rectangle 1254" width="43.993" height="5.692" rx="0.398" transform="translate(0 10.899) rotate(-14.343)" fill="#fff"/><g id="Group_8385" data-name="Group 8385" transform="translate(5.267 1.015)"><path id="Path_7181" data-name="Path 7181" d="M192.717,336.785l-2.974.76,1.471-6.251,2.974-.76Z" transform="translate(-189.743 -323.134)" fill="#333"/><path id="Path_7182" data-name="Path 7182" d="M200.724,334.738l-2.974.76,1.471-6.251,2.974-.76Z" transform="translate(-188.103 -323.553)" fill="#333"/><path id="Path_7183" data-name="Path 7183" d="M208.73,332.691l-2.974.76,1.47-6.251,2.974-.76Z" transform="translate(-186.462 -323.973)" fill="#333"/><path id="Path_7184" data-name="Path 7184" d="M216.737,330.643l-2.974.76,1.471-6.251,2.974-.76Z" transform="translate(-184.822 -324.392)" fill="#333"/></g></g></g></g><g id="Group_8390" data-name="Group 8390"><rect id="Rectangle_1255" data-name="Rectangle 1255" width="90.544" height="58.667" fill="#333"/><g id="Group_8389" data-name="Group 8389" transform="translate(26.92 11.41)"><path id="Path_7185" data-name="Path 7185" d="M134.629,224.165l17.924-15.5,18.209,15.5L155.3,240.589h-4.344Z" transform="translate(-134.629 -208.669)" fill="#fff"/><path id="Path_7186" data-name="Path 7186" d="M134.629,221.53v20.352l12-9.426Z" transform="translate(-134.629 -206.034)" fill="url(#linear-gradient)"/><path id="Path_7187" data-name="Path 7187" d="M166.658,221.53v20.352l-12-9.426Z" transform="translate(-130.811 -206.034)" fill="url(#linear-gradient)"/><path id="Path_7188" data-name="Path 7188" d="M134.629,240.023l12-9.426h12l11.854,9.426Z" transform="translate(-134.629 -204.176)" fill="url(#linear-gradient)"/></g></g><g id="Group_8391" data-name="Group 8391" transform="translate(305.061 70.419)"><rect id="Rectangle_1256" data-name="Rectangle 1256" width="59.674" height="58.667" fill="url(#linear-gradient)"/><path id="Path_7189" data-name="Path 7189" d="M377.762,273.653s-.255-5.986,3.183-6.75a5.076,5.076,0,0,1,2.48.173A9.087,9.087,0,0,1,389.24,278.9a6.175,6.175,0,0,1-2.627,3.352s5.222,8.6,12.8,10.316l1.213-1.557a9.243,9.243,0,0,1,9.728-3.346c1.148.327,2.056.828,2.3,1.592.828,2.547,2.611,8.279-1.21,10.061s-16.62,1.657-25.345-7.832S377.762,273.653,377.762,273.653Z" transform="translate(-362.953 -255.764)" fill="#fff"/></g><g id="Group_8392" data-name="Group 8392" transform="translate(99.241 70.419)"><rect id="Rectangle_1257" data-name="Rectangle 1257" width="195.284" height="58.667" transform="translate(0.004 -0.077)" fill="#333"/><text id="CONTACT_US" data-name="CONTACT US" transform="translate(28.004 35.923)" fill="#fff" font-size="20" font-family="Montserrat-Black, Montserrat" font-weight="800"><tspan x="0" y="0">CONTACT US</tspan></text></g><g id="Group_8394" data-name="Group 8394" transform="translate(0 70.419)"><rect id="Rectangle_1258" data-name="Rectangle 1258" width="90.544" height="58.667" fill="url(#linear-gradient)"/><g id="Group_8393" data-name="Group 8393" transform="translate(27.788 8.397)"><circle id="Ellipse_32" data-name="Ellipse 32" cx="11.93" cy="11.93" r="11.93" transform="translate(1.881 9.186) rotate(-22.644)" fill="#fff"/><path id="Path_7190" data-name="Path 7190" d="M170.317,301.269a18.6,18.6,0,0,0-34.967,0Z" transform="translate(-135.35 -259.613)" fill="#fff"/></g></g><g id="Group_8398" data-name="Group 8398" transform="translate(99.241)"><rect id="Rectangle_1259" data-name="Rectangle 1259" width="265.494" height="58.667" fill="url(#linear-gradient)"/><g id="Group_8397" data-name="Group 8397" transform="translate(27.857 10.895)"><g id="Group_8395" data-name="Group 8395"><circle id="Ellipse_33" data-name="Ellipse 33" cx="18.438" cy="18.438" r="18.438" fill="none" stroke="#fff" stroke-miterlimit="10" stroke-width="1.274"/><path id="Path_7191" data-name="Path 7191" d="M242.588,223.888,230.655,217a1.19,1.19,0,0,0-1.786,1.031v13.779a1.19,1.19,0,0,0,1.786,1.03l11.933-6.89A1.19,1.19,0,0,0,242.588,223.888Z" transform="translate(-215.498 -206.481)" fill="#fff"/></g><g id="Group_8396" data-name="Group 8396" transform="translate(53.096 4.939)"><rect id="Rectangle_1260" data-name="Rectangle 1260" width="64.711" height="2.919" fill="#fff"/><rect id="Rectangle_1261" data-name="Rectangle 1261" width="172.648" height="2.919" transform="translate(0 8.026)" fill="#fff"/><rect id="Rectangle_1262" data-name="Rectangle 1262" width="172.648" height="2.919" transform="translate(0 16.053)" fill="#fff"/><rect id="Rectangle_1263" data-name="Rectangle 1263" width="32.356" height="2.919" transform="translate(0 24.079)" fill="#fff"/></g></g></g><g id="Group_8400" data-name="Group 8400" transform="translate(242.73 140.838)"><rect id="Rectangle_1264" data-name="Rectangle 1264" width="122.005" height="58.667" fill="url(#linear-gradient)"/><g id="Group_8399" data-name="Group 8399" transform="translate(26.664 23.099)"><path id="Path_7192" data-name="Path 7192" d="M348.339,341.492a6.235,6.235,0,1,1-6.235-6.234A6.235,6.235,0,0,1,348.339,341.492Z" transform="translate(-335.87 -335.258)" fill="#fff"/><g id="dotanim"><path id="Path_7193" data-name="Path 7193" d="M371.663,341.492a6.235,6.235,0,1,1-6.234-6.234A6.235,6.235,0,0,1,371.663,341.492Z" transform="translate(-331.091 -335.258)" fill="#fff"/></g><path id="Path_7194" data-name="Path 7194" d="M394.987,341.492a6.235,6.235,0,1,1-6.234-6.234A6.235,6.235,0,0,1,394.987,341.492Z" transform="translate(-326.312 -335.258)" fill="#fff"/></g></g></g></g><g id="person_3" data-name="person 3" transform="translate(364.386)"><g id="Group_8411" data-name="Group 8411" transform="translate(0 70.294)"><g id="Group_8406" data-name="Group 8406" transform="translate(18.202)"><g id="Group_8403" data-name="Group 8403" transform="translate(0 64.143)"><path id="Path_7195" data-name="Path 7195" d="M360.858,218.444c.9,1.146,1.763,2.289,2.642,3.387l-10.379,8.978-5.582-5.767s4.033-4.6,9.771-10.92C358.514,215.544,359.7,216.979,360.858,218.444Z" transform="translate(-344.29 -214.122)" fill="#ffc68a"/><path id="Path_7196" data-name="Path 7196" d="M361.772,240.294a.359.359,0,0,0,.48-.01,2.726,2.726,0,0,0,.56-2.5,5.656,5.656,0,0,0-1.584-2.5,29.257,29.257,0,0,1-2.107-2.128,14.318,14.318,0,0,1-2.143-4.565c-.16-.482-.441-.974-.641-1.459a.919.919,0,0,0-.361-.459c-.871-.513-2.031-.442-2.941-.927a5.731,5.731,0,0,1-1.93-2.23,5.529,5.529,0,0,0-1.5-1.734.96.96,0,0,0-1.118.052,14.967,14.967,0,0,0-3.6,4.133.367.367,0,0,0,.093.458Z" transform="translate(-344.842 -212.585)" fill="#333"/></g><g id="Group_8405" data-name="Group 8405" transform="translate(2.401)"><path id="Path_7197" data-name="Path 7197" d="M394.645,204.613c-2.265,5.422-35.508,33.424-35.508,33.424l-4.988-4.832-.868-.843-1.482-1.446,26.664-29.171-31.629-40.232,8.193-.193,1.458-.024,17.664-.41S396.9,199.191,394.645,204.613Z" transform="translate(-346.835 -160.887)" fill="#333"/><g id="Group_8404" data-name="Group 8404" transform="translate(6.446 0.41)" style="mix-blend-mode: screen;isolation: isolate"><path id="Path_7198" data-name="Path 7198" d="M383.078,201.531l-30.026,31.6-.868-.843,29.351-30.882-27.6-40.159,1.458-.024Z" transform="translate(-352.185 -161.227)" fill="url(#linear-gradient)"/></g></g></g><g id="Group_8410" data-name="Group 8410"><g id="Group_8407" data-name="Group 8407" transform="translate(31.158 64.143)"><path id="Path_7199" data-name="Path 7199" d="M358.237,218.444c-.9,1.146-1.763,2.289-2.642,3.387l10.378,8.978,5.583-5.767s-4.033-4.6-9.772-10.92C360.58,215.544,359.39,216.979,358.237,218.444Z" transform="translate(-355.595 -214.122)" fill="#ffc68a"/><path id="Path_7200" data-name="Path 7200" d="M357.679,240.294a.358.358,0,0,1-.478-.01,2.726,2.726,0,0,1-.56-2.5,5.656,5.656,0,0,1,1.584-2.5,29.493,29.493,0,0,0,2.107-2.128,14.342,14.342,0,0,0,2.144-4.565c.16-.482.441-.974.641-1.459a.919.919,0,0,1,.361-.459c.871-.513,2.031-.442,2.941-.927a5.73,5.73,0,0,0,1.93-2.23,5.53,5.53,0,0,1,1.5-1.734.96.96,0,0,1,1.118.052,14.944,14.944,0,0,1,3.6,4.133.364.364,0,0,1-.093.458Z" transform="translate(-355.399 -212.585)" fill="#333"/></g><g id="Group_8409" data-name="Group 8409"><path id="Path_7201" data-name="Path 7201" d="M329.893,204.613c2.265,5.422,35.508,33.424,35.508,33.424l4.988-4.832.868-.843,1.482-1.446-26.664-29.171L377.7,161.514l-8.193-.193-1.458-.024-17.664-.41S327.64,199.191,329.893,204.613Z" transform="translate(-329.736 -160.887)" fill="#333"/><g id="Group_8408" data-name="Group 8408" transform="translate(10.628 0.41)" style="mix-blend-mode: screen;isolation: isolate"><path id="Path_7202" data-name="Path 7202" d="M338.556,201.531l30.026,31.6.867-.843L340.1,201.41l27.6-40.159-1.458-.024Z" transform="translate(-338.556 -161.227)" fill="url(#linear-gradient)"/></g></g></g></g><g id="Group_8428" data-name="Group 8428" transform="translate(0.981 18.576)"><g id="Group_8412" data-name="Group 8412" transform="translate(27.966)"><path id="Path_7203" data-name="Path 7203" d="M353.761,130.444h9.964l-.493-12.48H354.5Z" transform="translate(-353.761 -117.964)" fill="#ffc68a"/><path id="Path_7204" data-name="Path 7204" d="M354.192,121.5s4.508,3.9,9.143-.12l.1,2.531a10.741,10.741,0,0,1-9.386,0Z" transform="translate(-353.702 -117.265)" fill="#eda14e"/></g><g id="Group_8425" data-name="Group 8425" transform="translate(0 11.896)"><path id="Path_7205" data-name="Path 7205" d="M354.951,127.84s-6.822,4.351-9.86,9.107a7.782,7.782,0,0,0-.677,4.246c.357,2.207,2.9,26.482,2.9,26.482h27.344s2.423-25.209,2.358-27.756-4.681-9.03-11.032-12.065Z" transform="translate(-327.725 -127.838)" fill="url(#linear-gradient)"/><g id="Group_8418" data-name="Group 8418"><g id="Group_8417" data-name="Group 8417"><g id="Group_8414" data-name="Group 8414" transform="translate(18.844 34.798)"><g id="Group_8413" data-name="Group 8413"><path id="Path_7206" data-name="Path 7206" d="M349.209,157.84c-1.034,1.5-2.031,3.013-3.019,4.538l5.912,4.176,4.033-4.3L350,156.718C349.732,157.092,349.469,157.465,349.209,157.84Z" transform="translate(-346.19 -156.718)" fill="#ffc68a"/><path id="Path_7207" data-name="Path 7207" d="M359.28,162.673a1.254,1.254,0,0,1,.381.489.5.5,0,0,1-.137.566.807.807,0,0,1-.551.065,5.107,5.107,0,0,0-2,.2c.719,1.386,2.206,2.153,3.512,3.01.334.219.7.612.5.958-.173.3-.617.255-.947.149a7.785,7.785,0,0,1-2.258-1.163l2.381,1.937c.242.2.51.51.354.781-.124.214-.427.224-.671.192a6.244,6.244,0,0,1-3.491-1.674q1.16,1.144,2.318,2.29a.576.576,0,0,1,.207.333.387.387,0,0,1-.33.371,1.056,1.056,0,0,1-.533-.074,11.452,11.452,0,0,1-3.248-1.686q.423.615.845,1.23c.168.243.329.594.122.8s-.529.075-.763-.075a8.126,8.126,0,0,1-2.715-3.146,24.26,24.26,0,0,1-1.5-3.921,1.822,1.822,0,0,1-.123-.666,1.438,1.438,0,0,1,.3-.717,4.307,4.307,0,0,1,2.174-1.519A6.261,6.261,0,0,1,359.28,162.673Z" transform="translate(-345.279 -155.823)" fill="#ffc68a"/></g></g><g id="Group_8416" data-name="Group 8416"><path id="Path_7208" data-name="Path 7208" d="M344.292,154.214l13.326,11.447-.518.494-2.554,2.458-.976.94-1.012.976-.265.253s-28.411-11.748-20.278-21.989c5.832-7.338,16.664-15.085,22.339-18.9,1.217-.807,2.2-1.446,2.844-1.856a1.226,1.226,0,0,1,1.169-.084h.012a1.328,1.328,0,0,1,.422.313C368.534,138.888,344.292,154.214,344.292,154.214Z" transform="translate(-330.55 -127.838)" fill="url(#linear-gradient)"/><g id="Group_8415" data-name="Group 8415" transform="translate(2.858)" opacity="0.5" style="mix-blend-mode: screen;isolation: isolate"><path id="Path_7209" data-name="Path 7209" d="M350.336,166.095c1.3.9,2.554,1.759,3.723,2.518l-.976.94c-.747-.506-1.964-1.337-3.446-2.374-5.892-4.109-15.869-11.447-16.676-14.206-.88-3.024,12.965-15.965,20.9-23.086,1.217-.807,2.205-1.446,2.844-1.856a1.226,1.226,0,0,1,1.169-.084c-12.35,10.832-24.327,22.724-23.761,24.688C334.721,154.7,343.155,161.094,350.336,166.095Z" transform="translate(-332.922 -127.838)" fill="#333"/></g></g></g><path id="Path_7210" data-name="Path 7210" d="M345.362,148.381a44.411,44.411,0,0,0,7.031-6.321s-2.709,8.955-6.633,10Z" transform="translate(-327.515 -124.924)" fill="#333" opacity="0.5" style="mix-blend-mode: multiply;isolation: isolate"/></g><g id="Group_8424" data-name="Group 8424" transform="translate(31.162)"><g id="Group_8423" data-name="Group 8423"><g id="Group_8420" data-name="Group 8420" transform="translate(0 34.798)"><g id="Group_8419" data-name="Group 8419"><path id="Path_7211" data-name="Path 7211" d="M368.17,157.84c1.033,1.5,2.03,3.013,3.018,4.538l-5.911,4.176-4.034-4.3,6.139-5.538C367.646,157.092,367.91,157.465,368.17,157.84Z" transform="translate(-355.423 -156.718)" fill="#ffc68a"/><path id="Path_7212" data-name="Path 7212" d="M358.178,162.673a1.242,1.242,0,0,0-.381.489.5.5,0,0,0,.136.566.809.809,0,0,0,.551.065,5.107,5.107,0,0,1,2,.2c-.718,1.386-2.206,2.153-3.511,3.01-.334.219-.7.612-.5.958.175.3.617.255.948.149a7.794,7.794,0,0,0,2.257-1.163l-2.38,1.937c-.242.2-.511.51-.354.781.123.214.425.224.671.192a6.236,6.236,0,0,0,3.489-1.674l-2.318,2.29a.574.574,0,0,0-.206.333.385.385,0,0,0,.33.371,1.058,1.058,0,0,0,.533-.074,11.43,11.43,0,0,0,3.247-1.686l-.843,1.23c-.168.243-.329.594-.122.8s.529.075.763-.075a8.113,8.113,0,0,0,2.713-3.146,24.148,24.148,0,0,0,1.5-3.921,1.822,1.822,0,0,0,.123-.666,1.44,1.44,0,0,0-.3-.717,4.3,4.3,0,0,0-2.172-1.519A6.26,6.26,0,0,0,358.178,162.673Z" transform="translate(-356.413 -155.823)" fill="#ffc68a"/></g></g><g id="Group_8422" data-name="Group 8422" transform="translate(4.056)"><path id="Path_7213" data-name="Path 7213" d="M376.592,154.214l-13.326,11.447.518.494,2.554,2.458.976.94,1.012.976.265.253S397,159.034,388.87,148.792c-5.832-7.338-16.664-15.085-22.339-18.9-1.217-.807-2.2-1.446-2.844-1.856a1.226,1.226,0,0,0-1.169-.084h-.012a1.328,1.328,0,0,0-.422.313C352.35,138.888,376.592,154.214,376.592,154.214Z" transform="translate(-359.779 -127.838)" fill="url(#linear-gradient)"/><g id="Group_8421" data-name="Group 8421" transform="translate(2.74)" opacity="0.5" style="mix-blend-mode: screen;isolation: isolate"><path id="Path_7214" data-name="Path 7214" d="M369.6,166.095c-1.3.9-2.554,1.759-3.723,2.518l.976.94c.747-.506,1.964-1.337,3.446-2.374,5.892-4.109,15.868-11.447,16.676-14.206.88-3.024-12.965-15.965-20.9-23.086-1.217-.807-2.2-1.446-2.844-1.856a1.226,1.226,0,0,0-1.169-.084c12.35,10.832,24.327,22.724,23.761,24.688C385.211,154.7,376.777,161.094,369.6,166.095Z" transform="translate(-362.053 -127.838)" fill="#333"/></g></g></g><path id="Path_7215" data-name="Path 7215" d="M371.918,148.652a44.354,44.354,0,0,1-7.031-6.321s2.774,9.174,6.7,10.219Z" transform="translate(-354.677 -124.868)" fill="#333" opacity="0.5" style="mix-blend-mode: multiply;isolation: isolate"/></g></g><g id="Group_8427" data-name="Group 8427" transform="translate(15.559 42.94)"><rect id="Rectangle_1265" data-name="Rectangle 1265" width="34.776" height="2.548" transform="translate(0 21.253)" fill="#90abc2"/><g id="Group_8426" data-name="Group 8426" transform="translate(0.006)"><path id="Path_7216" data-name="Path 7216" d="M378.241,154.795v20.062H343.468V154.795a1.2,1.2,0,0,1,1.169-1.193h32.412A1.2,1.2,0,0,1,378.241,154.795Z" transform="translate(-343.468 -153.602)" fill="#333"/><path id="Path_7217" data-name="Path 7217" d="M361.289,163.756a2.9,2.9,0,1,1-2.9-2.9A2.9,2.9,0,0,1,361.289,163.756Z" transform="translate(-341.006 -152.116)" fill="#e6f3ff"/><path id="Path_7218" data-name="Path 7218" d="M378.241,172.917v1.94H343.468V154.795a1.2,1.2,0,0,1,1.169-1.193c.494,4.145,2.591,16.881,9.724,17.471C361.18,171.639,373.53,172.567,378.241,172.917Z" transform="translate(-343.468 -153.602)" fill="#333" opacity="0.5" style="mix-blend-mode: multiply;isolation: isolate"/></g></g></g><g id="Group_8433" data-name="Group 8433" transform="translate(23.393)"><g id="Group_8432" data-name="Group 8432"><g id="Group_8431" data-name="Group 8431" transform="translate(0.363 5.493)"><path id="Path_7219" data-name="Path 7219" d="M369.2,114.569a1.545,1.545,0,0,0-1.187-.316,27.826,27.826,0,0,0-.6-3.282,3.479,3.479,0,0,0-2.247-2.591c-.146-.048-.3-.1-.457-.145a12.3,12.3,0,0,0-10.18.012c-.011,0-.011,0-.022.012-.145.036-.278.084-.412.12a3.507,3.507,0,0,0-2.258,2.591,26.985,26.985,0,0,0-.6,3.281,1.549,1.549,0,0,0-1.184.317c-1.26.945-.451,4.381,1.682,5.3a9.221,9.221,0,0,0,.736,1.622,4.464,4.464,0,0,0,.323.53,10.6,10.6,0,0,0,3.863,3.357,6.428,6.428,0,0,0,5.955-.006,10.69,10.69,0,0,0,3.856-3.351c.111-.169.223-.337.323-.506a9.106,9.106,0,0,0,.743-1.652C369.654,118.937,370.457,115.513,369.2,114.569Z" transform="translate(-349.452 -107.106)" fill="#ffc68a"/><g id="Group_8430" data-name="Group 8430" transform="translate(0.779 6.164)"><g id="Group_8429" data-name="Group 8429" transform="translate(5.894)"><path id="Path_7220" data-name="Path 7220" d="M358.626,113.208a2.321,2.321,0,0,0-.248,1.5,4.632,4.632,0,0,0,.476,1.456,4.85,4.85,0,0,1,.311.618.688.688,0,0,1-.036.541,1.356,1.356,0,0,1-1.113.658,1.284,1.284,0,0,0,1.454-.454,1.063,1.063,0,0,0,.159-.878,4.259,4.259,0,0,0-.32-.715,7.558,7.558,0,0,1-.542-1.3A3.583,3.583,0,0,1,358.626,113.208Z" transform="translate(-354.371 -112.02)" fill="#eda14e"/><path id="Path_7221" data-name="Path 7221" d="M357.474,112.528a1.156,1.156,0,0,0-.668-.3,2.049,2.049,0,0,0-.739.064,1.5,1.5,0,0,0-.653.358,1.621,1.621,0,0,0-.411.575.141.141,0,0,0,.219.167l.013-.011a2.327,2.327,0,0,1,.463-.341,1.425,1.425,0,0,1,.5-.16c.348-.059.693.078,1.083.049l.052,0a.232.232,0,0,0,.214-.248A.235.235,0,0,0,357.474,112.528Z" transform="translate(-354.99 -112.222)" fill="#523329"/><path id="Path_7222" data-name="Path 7222" d="M359.484,112.933c.39.029.735-.108,1.083-.049a1.425,1.425,0,0,1,.5.16,2.33,2.33,0,0,1,.463.341l.013.011a.141.141,0,0,0,.219-.167,1.622,1.622,0,0,0-.411-.575,1.5,1.5,0,0,0-.652-.358,2.058,2.058,0,0,0-.74-.064,1.156,1.156,0,0,0-.668.3.233.233,0,0,0,.141.4Z" transform="translate(-354.124 -112.222)" fill="#523329"/><path id="Path_7223" data-name="Path 7223" d="M358.937,118.718a4.1,4.1,0,0,1-1.668-.269,1.688,1.688,0,0,1-.612-.474,5.9,5.9,0,0,1-.5-.731,1.681,1.681,0,0,0,.167.948,1.5,1.5,0,0,0,.728.716,1.924,1.924,0,0,0,1.886-.19Z" transform="translate(-354.753 -111.193)" fill="#eda14e"/><path id="Path_7224" data-name="Path 7224" d="M356.155,114.983c0,.57.276,1.031.616,1.031s.616-.461.616-1.031-.276-1.031-.616-1.031S356.155,114.413,356.155,114.983Z" transform="translate(-354.752 -111.867)" fill="#523329"/><path id="Path_7225" data-name="Path 7225" d="M359.784,114.983c0,.57.276,1.031.616,1.031s.616-.461.616-1.031-.275-1.031-.616-1.031S359.784,114.413,359.784,114.983Z" transform="translate(-354.008 -111.867)" fill="#523329"/></g><path id="Path_7226" data-name="Path 7226" d="M350.1,114.96a.727.727,0,0,1,.581-.366,1.043,1.043,0,0,1,.641.165,3.931,3.931,0,0,1,1.012,1,.213.213,0,0,0,.357-.23,1.2,1.2,0,0,0-.87-.558,1.362,1.362,0,0,0-.513,0,.742.742,0,0,0-.481.3.83.83,0,0,0,.094,1,1.231,1.231,0,0,0,.839.367,1.373,1.373,0,0,1-.66-.5.578.578,0,0,1,.012-.653.65.65,0,0,1,.631-.1.868.868,0,0,1,.578.357l.357-.23a3.291,3.291,0,0,0-1.211-1.035,1.178,1.178,0,0,0-.829-.071A.744.744,0,0,0,350.1,114.96Z" transform="translate(-350.099 -111.785)" fill="#eda14e"/><path id="Path_7227" data-name="Path 7227" d="M366.137,114.96a.727.727,0,0,0-.581-.366,1.043,1.043,0,0,0-.641.165,3.931,3.931,0,0,0-1.012,1,.213.213,0,0,1-.357-.23,1.2,1.2,0,0,1,.871-.558,1.356,1.356,0,0,1,.512,0,.742.742,0,0,1,.481.3.83.83,0,0,1-.094,1,1.228,1.228,0,0,1-.839.367,1.372,1.372,0,0,0,.66-.5.58.58,0,0,0-.011-.653.653.653,0,0,0-.633-.1.863.863,0,0,0-.577.357l-.358-.23a3.3,3.3,0,0,1,1.211-1.035,1.179,1.179,0,0,1,.829-.071A.744.744,0,0,1,366.137,114.96Z" transform="translate(-347.349 -111.785)" fill="#eda14e"/></g></g><path id="Path_7228" data-name="Path 7228" d="M367,107.4c-.013-.087-.049-.158-.07-.24a7.126,7.126,0,0,0-.217-1.351,3.825,3.825,0,0,0-1.3-2.045,5.6,5.6,0,0,0-2.1-.894,10.218,10.218,0,0,0-3.6-.269A6.4,6.4,0,0,0,356.6,103.8c-.071.024-.142.048-.213.075a4.064,4.064,0,0,0-4.22.452A4.4,4.4,0,0,0,350.558,108a2.9,2.9,0,0,0-1.287,2.18,8.6,8.6,0,0,0-.048,2.548c.06.459.79,2.858.79,2.858s3.523-.537,3.32,3.792l.21-.364a7.773,7.773,0,0,0,.647-1.433,15.61,15.61,0,0,0,.986-5.782s.359.106.968.251a13.589,13.589,0,0,0,3.135.359h.813a13.607,13.607,0,0,0,3.136-.359c.608-.145.966-.251.966-.251a15.584,15.584,0,0,0,.987,5.782,7.772,7.772,0,0,0,.646,1.433l.211.364c-.2-4.329,3.32-3.792,3.32-3.792a12.04,12.04,0,0,0,.716-3.723A4.353,4.353,0,0,0,367,107.4Z" transform="translate(-349.151 -102.547)" fill="#523329"/></g></g></g></g></g><g id="person_2" data-name="person 2" transform="translate(79.913 244.175)"><g id="Group_8437" data-name="Group 8437" transform="translate(17.73 33.251)"><g id="Group_8436" data-name="Group 8436" transform="translate(20.656 27.315)"><g id="Group_8435" data-name="Group 8435"><path id="Path_7229" data-name="Path 7229" d="M153.957,381.245l3.848-4.464-24.34-20.165a4.815,4.815,0,0,0-6.787.543h0a4.815,4.815,0,0,0,.47,6.792Z" transform="translate(-125.496 -355.465)" fill="#ffb894"/><path id="Path_7230" data-name="Path 7230" d="M157.18,374.343a1.246,1.246,0,0,1,.4.471.5.5,0,0,1-.113.572.8.8,0,0,1-.547.089,5.1,5.1,0,0,0-1.989.284c.776,1.354,2.294,2.059,3.635,2.859.343.2.729.582.542.935-.161.307-.6.282-.94.189a7.751,7.751,0,0,1-2.3-1.066l2.46,1.836c.251.187.531.488.387.765-.114.219-.416.242-.663.22a6.237,6.237,0,0,1-3.557-1.527l2.412,2.192a.57.57,0,0,1,.221.323.386.386,0,0,1-.314.386,1.059,1.059,0,0,1-.535-.052,11.462,11.462,0,0,1-3.316-1.547l.9,1.194c.177.236.353.58.155.8s-.525.1-.765-.043A8.121,8.121,0,0,1,150.4,380.2a24.2,24.2,0,0,1-1.66-3.854,1.811,1.811,0,0,1-.151-.66,1.429,1.429,0,0,1,.269-.729,4.3,4.3,0,0,1,2.106-1.61A6.261,6.261,0,0,1,157.18,374.343Z" transform="translate(-120.765 -351.888)" fill="#ffb894"/></g></g><path id="Path_7231" data-name="Path 7231" d="M136.039,368.076l.041-.033c2.109-1.618,2.8-3.939,1.61-5.657l-17.669-26.045a6.6,6.6,0,0,0-9.463-1.554l-.059.046c-3.028,2.324-1.663,8.651.787,11.528l18.812,21.6C131.45,369.553,133.929,369.7,136.039,368.076Z" transform="translate(-108.27 -332.664)" fill="#ffb894"/><path id="Path_7232" data-name="Path 7232" d="M114.218,351.144s-6.475-7.513-5.818-11.925,5.022-8.683,10.11-5.067a26.811,26.811,0,0,1,7.8,9.708Z" transform="translate(-108.353 -332.795)" fill="#333"/></g><g id="Group_8445" data-name="Group 8445" transform="translate(0 53.781)"><g id="Group_8440" data-name="Group 8440" transform="translate(17.361)"><g id="Group_8438" data-name="Group 8438" transform="translate(72.096 18.293)"><path id="Path_7233" data-name="Path 7233" d="M173.3,365.7c-1.611,3.294-3.526,6.416-5.417,9.574,6.6,3.528,11.226,5.893,11.226,5.893l5.205-8.125Z" transform="translate(-167.883 -364.876)" fill="#f2a883"/><path id="Path_7234" data-name="Path 7234" d="M192.86,365.911a.357.357,0,0,0-.077-.472,2.727,2.727,0,0,0-2.559-.2,5.66,5.66,0,0,0-2.248,1.925,29,29,0,0,1-1.806,2.389,14.3,14.3,0,0,1-4.211,2.774c-.454.228-.9.576-1.353.843a.926.926,0,0,0-.4.423c-.382.935-.146,2.074-.5,3.044a5.73,5.73,0,0,1-1.931,2.229,5.529,5.529,0,0,0-1.5,1.733.959.959,0,0,0,.211,1.1,14.964,14.964,0,0,0,4.6,2.97.365.365,0,0,0,.44-.157Z" transform="translate(-166.182 -365.016)" fill="#d64a47"/></g><g id="Group_8439" data-name="Group 8439"><path id="Path_7235" data-name="Path 7235" d="M193.327,373.658l-6.8,9.23L152.7,364.429s-1.868,1.446-4.82,3.579c-5.3,3.807-14.1,9.784-21.953,13.459-4.133,1.94-8.013,3.229-10.989,3.241-4.1.012-5.94-2.41-6.591-5.555-1.217-5.856,1.675-14.266,1.675-14.266h10.41s1.627-.928,4.157-2.325c7.735-4.277,23.941-12.929,28.11-12.724C158.217,350.091,193.327,373.658,193.327,373.658Z" transform="translate(-108.047 -349.834)" fill="#60ce6f"/><path id="Path_7236" data-name="Path 7236" d="M147.879,365.843c-5.3,3.807-14.1,9.784-21.953,13.459-.747.024-1.482.024-2.217.024-5.193-.012-10.591-.41-15.362-2.338-1.217-5.856,1.675-14.266,1.675-14.266h10.41s1.627-.928,4.157-2.325a16.231,16.231,0,0,0,1.771.747c4.1,1.386,8.422,1.88,12.663,2.554a61.191,61.191,0,0,1,7.061,1.47A10.136,10.136,0,0,1,147.879,365.843Z" transform="translate(-108.047 -347.67)" fill="#143c4a" opacity="0.3" style="mix-blend-mode: multiply;isolation: isolate"/></g></g><g id="Group_8444" data-name="Group 8444" transform="translate(0 14.062)"><g id="Group_8441" data-name="Group 8441" transform="translate(92.692)"><path id="Path_7237" data-name="Path 7237" d="M170.568,371.269c.421,3.644.493,7.305.6,10.985,7.462-.592,12.631-1.094,12.631-1.094v-9.649Z" transform="translate(-170.568 -359.504)" fill="#ffb894"/><path id="Path_7238" data-name="Path 7238" d="M186.567,361.863a.355.355,0,0,0-.319-.355,2.726,2.726,0,0,0-2.262,1.213,5.674,5.674,0,0,0-.854,2.835,28.975,28.975,0,0,1-.231,2.986,14.3,14.3,0,0,1-2.051,4.608c-.259.436-.447.971-.683,1.44a.916.916,0,0,0-.112.574c.182.994,1,1.825,1.224,2.831a5.72,5.72,0,0,1-.425,2.918,5.547,5.547,0,0,0-.329,2.269.961.961,0,0,0,.771.812,14.979,14.979,0,0,0,5.479.017.365.365,0,0,0,.286-.37Z" transform="translate(-168.626 -361.505)" fill="#333"/></g><g id="Group_8443" data-name="Group 8443" transform="translate(0 0.991)"><path id="Path_7239" data-name="Path 7239" d="M190.086,385.172s-39.665.711-51.413.518S104.539,390.3,97,384.112s0-21.785,0-21.785h26.387l-10.109,7.7,75,.687,1.229,9.808.145,1.2Z" transform="translate(-93.638 -362.327)" fill="#60ce6f"/><g id="Group_8442" data-name="Group 8442" transform="translate(5.076)" style="mix-blend-mode: screen;isolation: isolate"><path id="Path_7240" data-name="Path 7240" d="M188.789,381.726c-8.723.241-38.388,1.036-45.425,1.036-.446,0-.8-.012-1.048-.012-1.109-.036-3.567-.036-6.663-.024-11.145.012-29.8.012-34.147-1.181-5.193-1.41-3.542-14.772-2.844-19.218h1.2C99,367.833,98,379.34,101.82,380.388c4.193,1.133,23.471,1.133,33.822,1.133,3.121,0,5.579-.012,6.711.024,4.157.1,36.954-.771,46.292-1.024Z" transform="translate(-97.852 -362.327)" fill="#143c4a"/></g></g></g></g><g id="Group_8453" data-name="Group 8453" transform="translate(1.245 16.743)"><g id="Group_8446" data-name="Group 8446" transform="translate(10.32)"><path id="Path_7241" data-name="Path 7241" d="M103.237,331.574l5.774,1.583,4.191-1.583-.493-12.48h-8.729Z" transform="translate(-103.237 -319.095)" fill="#ffb894"/><path id="Path_7242" data-name="Path 7242" d="M112.468,324.9s-4.891-.057-6.8-2.158c0,0,2.8,5.209,6.911,4.975Z" transform="translate(-102.738 -318.348)" fill="#f29272"/></g><g id="Group_8449" data-name="Group 8449" transform="translate(0 12.479)"><path id="Path_7243" data-name="Path 7243" d="M95.536,342.368c.142-6.067,9.28-12.917,9.28-12.917h9.963s9.255,7.043,10.156,12.69c.472,2.96-1.943,26.925-1.943,26.925l-13.195-.255-13.194.255S95.466,345.364,95.536,342.368Z" transform="translate(-94.496 -329.452)" fill="#ffb894"/><g id="Group_8448" data-name="Group 8448" transform="translate(0 0.006)"><path id="Path_7244" data-name="Path 7244" d="M123.171,369.062H96.784s-5.567-26.544,1.374-33.99l5.157-4.241.952-.783.723-.59,7.037,6.687,2.928-6.687s.53.4,1.337,1.036c.289.229.615.494.964.771a70.3,70.3,0,0,1,6.952,6.133C126.617,340.108,125.75,360.4,123.171,369.062Z" transform="translate(-94.672 -329.457)" fill="#333"/><g id="Group_8447" data-name="Group 8447" transform="translate(8.643 0.59)" opacity="0.5" style="mix-blend-mode: screen;isolation: isolate"><path id="Path_7245" data-name="Path 7245" d="M115.786,331.164l-3.868,8.109-10.073-8.543.952-.783,8.7,7.4,3.326-6.952C115.111,330.622,115.436,330.887,115.786,331.164Z" transform="translate(-101.845 -329.947)" fill="#333"/></g></g></g><g id="Group_8452" data-name="Group 8452" transform="translate(1.549 13.076)"><g id="Group_8450" data-name="Group 8450" transform="translate(1.968 9.143)"><path id="Path_7246" data-name="Path 7246" d="M100.65,338.434a6.29,6.29,0,0,0-2.275,8.434c4.558,8.237,13.249,23.024,16.53,22.3,4.535-1,22.979-25.1,22.979-25.1l-4.141-4.194-17.053,17.51-7.037-16.072a6.294,6.294,0,0,0-9-2.872Z" transform="translate(-97.591 -337.535)" fill="#ffb894"/></g><g id="Group_8451" data-name="Group 8451" transform="translate(37.462)"><path id="Path_7247" data-name="Path 7247" d="M130.329,343.241h0a1.329,1.329,0,0,0,1.784-.6l5.385-10.773a1.331,1.331,0,0,0-.6-1.784h0a1.329,1.329,0,0,0-1.784.6l-5.385,10.773A1.329,1.329,0,0,0,130.329,343.241Z" transform="translate(-126.528 -329.947)" fill="#143c4a"/><path id="Path_7248" data-name="Path 7248" d="M129.972,345.636s11.2-4.793,8.9-9.615c0,0,.03-.166-.936-.454,0,0-.217-1.733-.842-2.1s-2.06,5.386-5.083,4.945c0,0,.4-2.33.517-2.787s-.789-.716-1.536.155a17.51,17.51,0,0,0-3.946,6.339Z" transform="translate(-127.049 -329.228)" fill="#ffb894"/></g><path id="Path_7249" data-name="Path 7249" d="M100.408,352.007s-5.482-8.266-4.277-12.561,7.479-7.826,12.073-3.6a17.634,17.634,0,0,1,5.112,10.45Z" transform="translate(-95.957 -329.128)" fill="#333"/><path id="Path_7250" data-name="Path 7250" d="M97.191,344.33l2.985,5.549.715-.316,4.556,7.725-3.038-1.827a10.967,10.967,0,0,1-5.286-10.244Z" transform="translate(-95.725 -327)" fill="#333" opacity="0.5" style="mix-blend-mode: multiply;isolation: isolate"/></g></g><g id="Group_8457" data-name="Group 8457" transform="translate(7.853)"><g id="Group_8456" data-name="Group 8456"><g id="Group_8455" data-name="Group 8455" transform="translate(0 3.66)"><path id="Path_7251" data-name="Path 7251" d="M118.458,312.534a3.742,3.742,0,0,0-1.452-2.741c-3.806-2.812-9.234-1.119-12.138-.278a3.588,3.588,0,0,0-2.441,2.583,25.9,25.9,0,0,0-.657,3.271,1.561,1.561,0,0,0-1.016.331c-1.224.918-.5,4.205,1.509,5.227a8.924,8.924,0,0,0,1.2,2.227c3.576,4.85,11.921,6.026,14.1,3.52a7.844,7.844,0,0,0,1.043-3.822c.1-1.065.159-2.252.174-3.48A62.362,62.362,0,0,0,118.458,312.534Z" transform="translate(-100.156 -308.236)" fill="#ffb894"/><g id="Group_8454" data-name="Group 8454" transform="translate(0.897 6.946)"><path id="Path_7252" data-name="Path 7252" d="M111.542,314.987a2.322,2.322,0,0,0-.248,1.5,4.641,4.641,0,0,0,.476,1.457,4.849,4.849,0,0,1,.311.617.688.688,0,0,1-.036.541,1.353,1.353,0,0,1-1.113.658,1.283,1.283,0,0,0,1.454-.454,1.061,1.061,0,0,0,.159-.877,4.266,4.266,0,0,0-.32-.715,7.568,7.568,0,0,1-.542-1.306A3.56,3.56,0,0,1,111.542,314.987Z" transform="translate(-98.846 -313.799)" fill="#f29272"/><path id="Path_7253" data-name="Path 7253" d="M110.39,314.308a1.157,1.157,0,0,0-.668-.3,2.058,2.058,0,0,0-.74.064,1.5,1.5,0,0,0-.652.358,1.615,1.615,0,0,0-.411.576.14.14,0,0,0,.219.166l.013-.011a2.276,2.276,0,0,1,.463-.34,1.426,1.426,0,0,1,.5-.16c.348-.059.693.077,1.083.048l.052,0a.232.232,0,0,0,.214-.248A.238.238,0,0,0,110.39,314.308Z" transform="translate(-99.466 -314.001)" fill="#523329"/><path id="Path_7254" data-name="Path 7254" d="M112.4,314.712c.39.029.735-.107,1.083-.048a1.426,1.426,0,0,1,.5.16,2.276,2.276,0,0,1,.463.34l.013.011a.14.14,0,0,0,.219-.166,1.616,1.616,0,0,0-.411-.576,1.5,1.5,0,0,0-.652-.358,2.058,2.058,0,0,0-.74-.064,1.157,1.157,0,0,0-.668.3.232.232,0,0,0-.01.328.235.235,0,0,0,.151.072Z" transform="translate(-98.599 -314.001)" fill="#523329"/><path id="Path_7255" data-name="Path 7255" d="M111.853,320.5a4.1,4.1,0,0,1-1.668-.27,1.666,1.666,0,0,1-.612-.474,5.812,5.812,0,0,1-.5-.731,1.68,1.68,0,0,0,.167.948,1.506,1.506,0,0,0,.727.717,1.926,1.926,0,0,0,1.887-.19Z" transform="translate(-99.229 -312.972)" fill="#f29272"/><path id="Path_7256" data-name="Path 7256" d="M109.071,316.762c0,.57.276,1.031.616,1.031s.616-.461.616-1.031-.276-1.031-.616-1.031S109.071,316.193,109.071,316.762Z" transform="translate(-99.227 -313.646)" fill="#523329"/><path id="Path_7257" data-name="Path 7257" d="M112.7,316.762c0,.57.276,1.031.616,1.031s.616-.461.616-1.031-.276-1.031-.616-1.031S112.7,316.193,112.7,316.762Z" transform="translate(-98.483 -313.646)" fill="#523329"/><path id="Path_7258" data-name="Path 7258" d="M100.9,316.09a.727.727,0,0,1,.581-.366,1.041,1.041,0,0,1,.641.165,3.95,3.95,0,0,1,1.012,1,.212.212,0,0,0,.3.046.215.215,0,0,0,.06-.276,1.208,1.208,0,0,0-.871-.558,1.363,1.363,0,0,0-.513,0,.739.739,0,0,0-.481.3.83.83,0,0,0,.094,1,1.231,1.231,0,0,0,.84.368,1.382,1.382,0,0,1-.661-.5.582.582,0,0,1,.012-.654.653.653,0,0,1,.631-.1.868.868,0,0,1,.578.357l.357-.23a3.29,3.29,0,0,0-1.211-1.035,1.178,1.178,0,0,0-.829-.071A.744.744,0,0,0,100.9,316.09Z" transform="translate(-100.901 -313.697)" fill="#f29272"/></g></g><path id="Path_7259" data-name="Path 7259" d="M105.455,320.328s2.862-1.506,2.76-6.827c0,0,8.636,2.76,10.795.7s1.282-6.226-.239-6.678c0,0-3.339-3.715-6.5-1.757,0,0-5.365-1.657-6.47,2.31,0,0-6.869-.139-5.414,8.668a1.879,1.879,0,0,1,2.758-.154A13.589,13.589,0,0,1,105.455,320.328Z" transform="translate(-100.149 -305.199)" fill="#523329"/></g></g></g><g id="bottom_line" data-name="bottom line" transform="translate(3.436 336.836)"><rect id="Rectangle_1266" data-name="Rectangle 1266" width="529.754" height="3.012" fill="#333"/></g><g id="chr1"><g id="person1" transform="translate(413.971 176.794)"><path id="Path_7260" data-name="Path 7260" d="M455.713,397.759c0,2.294-3.28,2.748-26.016,2.748s-56.319-.454-56.319-2.748,18.431-4.156,41.168-4.156S455.713,395.463,455.713,397.759Z" transform="translate(-370.378 -219.704)" fill="#d7e3ed"/><g id="Group_8483" data-name="Group 8483"><g id="Group_8473" data-name="Group 8473"><g id="Group_8462" data-name="Group 8462" transform="translate(0 33.533)"><g id="Group_8461" data-name="Group 8461" transform="translate(0 26.011)"><g id="Group_8460" data-name="Group 8460"><path id="Path_7261" data-name="Path 7261" d="M379.551,328.19,375,324.447l20.546-24.018a4.814,4.814,0,0,1,6.78-.622h0a4.814,4.814,0,0,1,.7,6.773Z" transform="translate(-370.046 -298.695)" fill="#e28758"/><path id="Path_7262" data-name="Path 7262" d="M371.987,321.949a1.272,1.272,0,0,0-.314.534.494.494,0,0,0,.21.543.8.8,0,0,0,.554,0,5.079,5.079,0,0,1,2.009-.059c-.534,1.466-1.91,2.421-3.094,3.438-.3.26-.619.7-.376,1.015.212.275.645.173.959.025A7.783,7.783,0,0,0,374.023,326l-2.111,2.228c-.216.227-.441.571-.251.821.149.2.451.168.69.1a6.232,6.232,0,0,0,3.245-2.11q-1,1.285-2,2.57a.577.577,0,0,0-.163.357.389.389,0,0,0,.376.327,1.067,1.067,0,0,0,.518-.142,11.484,11.484,0,0,0,3-2.089q-.34.663-.678,1.328c-.135.264-.249.633-.017.815s.534,0,.747-.174a8.12,8.12,0,0,0,2.286-3.469,24.2,24.2,0,0,0,.98-4.081,1.811,1.811,0,0,0,.036-.677,1.444,1.444,0,0,0-.389-.671,4.3,4.3,0,0,0-2.351-1.228A6.261,6.261,0,0,0,371.987,321.949Z" transform="translate(-370.888 -294.374)" fill="#e28758"/></g></g><path id="Path_7263" data-name="Path 7263" d="M418.525,281.806s-7.76,17.82-11.88,25.773a24.7,24.7,0,0,1-2.036,3.494c-.133.157-.313.361-.542.59-3.928,4.121-21.266,19-21.266,19l-6.458-5.169,18.881-22.122,11.615-26.267Z" transform="translate(-369.771 -277.107)" fill="#333"/><path id="Path_7264" data-name="Path 7264" d="M403.148,303.739a24.7,24.7,0,0,1-2.036,3.494c-.133.157-.313.361-.542.59-1.723-.229-7.266-1.807-7.157-11.977,0,0,3.121,8.374,6.024,8.579A6.028,6.028,0,0,0,403.148,303.739Z" transform="translate(-366.273 -273.267)" fill="#333" opacity="0.5" style="mix-blend-mode: multiply;isolation: isolate"/></g><g id="Group_8466" data-name="Group 8466" transform="translate(33.351 15.085)"><g id="Group_8463" data-name="Group 8463" transform="translate(10.44)"><path id="Path_7265" data-name="Path 7265" d="M415.961,274.276l-4.364,1.378-4.364-1.378V261.8h8.729Z" transform="translate(-407.232 -261.796)" fill="#e28758"/><path id="Path_7266" data-name="Path 7266" d="M407.232,267.6s4.632-.054,6.543-2.157c0,0-2.428,5.2-6.543,4.968Z" transform="translate(-407.232 -261.049)" fill="#c26144"/></g><path id="Path_7267" data-name="Path 7267" d="M422.438,311.379s3.681-31.213,1.015-34.246a33.506,33.506,0,0,0-5.787-4.98h-8.729s-10.219,7.749-10.019,14.307c.1,3.115,2.662,8.983,3.462,14.283a38.871,38.871,0,0,1,0,11.025Z" transform="translate(-398.496 -259.674)" fill="#e28758"/><g id="Group_8465" data-name="Group 8465" transform="translate(0 13.339)"><path id="Path_7268" data-name="Path 7268" d="M422.9,311.231H402.164s.807-9.181-.7-14-4.82-10.8-1.41-16.17a29.622,29.622,0,0,1,6.326-7.037c.374-.3.711-.554.964-.735.386-.277.6-.422.6-.422s3.41,4.494,11.29,0l.518.422c.253.193.578.47.94.783,1.349,1.193,3.205,2.988,3.567,4.229C425.261,281.747,422.9,311.231,422.9,311.231Z" transform="translate(-398.567 -272.867)" fill="#333"/><g id="Group_8464" data-name="Group 8464" transform="translate(7.813 0.422)" opacity="0.5" style="mix-blend-mode: screen;isolation: isolate"><path id="Path_7269" data-name="Path 7269" d="M419.366,274c-2.8,2.193-5.422,3.289-7.856,3.289a7.537,7.537,0,0,1-1.482-.145,8.416,8.416,0,0,1-4.976-3.193c.374-.3.711-.554.964-.735a7.271,7.271,0,0,0,4.253,2.747c2.422.47,5.157-.458,8.157-2.747C418.679,273.41,419,273.687,419.366,274Z" transform="translate(-405.052 -273.217)" fill="#333"/></g></g></g><g id="Group_8472" data-name="Group 8472" transform="translate(4.54)"><g id="Group_8469" data-name="Group 8469"><path id="Path_7270" data-name="Path 7270" d="M391.783,279.257l-2.346-.329a.771.771,0,0,1-.611-1.045l4.967-12.716,3.916.549-5.1,13.057A.769.769,0,0,1,391.783,279.257Z" transform="translate(-371.764 -246.021)" fill="#333"/><g id="Group_8467" data-name="Group 8467" transform="translate(19.695 11.917)"><path id="Path_7271" data-name="Path 7271" d="M398.894,264.7a4.549,4.549,0,0,1-4.494,3.916,3.944,3.944,0,0,1-.651-.048l-.386-.048L391,268.18l1.277-9.013,2.747.386a4.518,4.518,0,0,1,2.265,1A4.567,4.567,0,0,1,398.894,264.7Z" transform="translate(-391.002 -259.167)" fill="#333"/><path id="Path_7272" data-name="Path 7272" d="M398.492,264.462A4.549,4.549,0,0,1,394,268.378a3.944,3.944,0,0,1-.651-.048l-.386-.048c4.386-2.566,4.494-5.832,3.928-7.964A4.567,4.567,0,0,1,398.492,264.462Z" transform="translate(-390.6 -258.931)" fill="#333" opacity="0.5" style="mix-blend-mode: multiply;isolation: isolate"/></g><path id="Path_7273" data-name="Path 7273" d="M380.952,260.495a3.163,3.163,0,1,1-2.692-3.571A3.163,3.163,0,0,1,380.952,260.495Z" transform="translate(-374.656 -247.716)" fill="#333"/><path id="Path_7274" data-name="Path 7274" d="M378.736,250.157s-.024.048-.084.145C378.688,250.205,378.712,250.157,378.736,250.157Z" transform="translate(-373.838 -249.096)" fill="#333" opacity="0.5" style="mix-blend-mode: multiply;isolation: isolate"/><g id="Group_8468" data-name="Group 8468" transform="translate(1.718)"><path id="Path_7275" data-name="Path 7275" d="M396.77,262.145l-.94,6.711a2.677,2.677,0,0,1-1.711,2.121c-5.53,2.036-13.423,3-16.712,3.326a1.211,1.211,0,0,1-1.313-1.374l2.554-18.206.614-4.386a1.213,1.213,0,0,1,1.7-.952c5.518,2.494,12.326,8.157,14.929,10.41a2.387,2.387,0,0,1,.59.747A2.628,2.628,0,0,1,396.77,262.145Z" transform="translate(-376.082 -249.277)" fill="#333"/><path id="Path_7276" data-name="Path 7276" d="M396.77,261.219l-.94,6.711a2.677,2.677,0,0,1-1.711,2.121c-5.53,2.036-13.423,3-16.712,3.326A1.211,1.211,0,0,1,376.094,272l2.554-18.206c-.518,6.241-.807,17.085,1.325,17,2.88-.133,13.88-3.012,16.507-11.181A2.628,2.628,0,0,1,396.77,261.219Z" transform="translate(-376.082 -248.35)" fill="#333" opacity="0.5" style="mix-blend-mode: multiply;isolation: isolate"/></g></g><g id="Group_8470" data-name="Group 8470" transform="translate(14.647 22.443)"><path id="Path_7277" data-name="Path 7277" d="M395.929,276.808a6.25,6.25,0,0,0,.6-4.587,1.262,1.262,0,0,0-.258-.563.5.5,0,0,0-.566-.139.8.8,0,0,0-.312.458,5.089,5.089,0,0,1-1.1,1.683c-.9-1.276-.9-2.95-1.055-4.5-.041-.4-.219-.907-.618-.888-.347.017-.511.43-.569.772a7.745,7.745,0,0,0-.007,2.54q-.313-1.5-.624-3.005c-.064-.306-.218-.688-.53-.675-.247.012-.4.275-.48.508a6.225,6.225,0,0,0-.12,3.868q-.483-1.556-.966-3.112a.571.571,0,0,0-.2-.336.387.387,0,0,0-.482.122,1.063,1.063,0,0,0-.18.507,11.508,11.508,0,0,0,0,3.659l-.7-1.316c-.14-.261-.377-.566-.659-.478-.265.081-.31.435-.284.711a8.119,8.119,0,0,0,1.543,3.858,18.1,18.1,0,0,0,1.806,2.13l-.012,0,.91,6.62q2.335-.551,4.651-1.18c.584-.248,1.175-.482,1.764-.718Z" transform="translate(-386.813 -267.903)" fill="#e28758"/><path id="Path_7278" data-name="Path 7278" d="M389.089,278.659l7.246-2.228,6.385,17.03,9.628-12.692a7.1,7.1,0,0,1,10.027-1.3l4.08,3.188s-17.71,26-25.3,25.886S389.089,278.659,389.089,278.659Z" transform="translate(-386.346 -266.155)" fill="#333"/></g><g id="Group_8471" data-name="Group 8471" transform="translate(27.98 49.748)" opacity="0.5"><path id="Path_7279" data-name="Path 7279" d="M400.919,290.565s-3.721,3.744-2.932,4.045S400.919,290.565,400.919,290.565Z" transform="translate(-397.878 -290.565)" fill="#333" style="mix-blend-mode: multiply;isolation: isolate"/><path id="Path_7280" data-name="Path 7280" d="M400.479,290.565s-1.022,2.689,0,3.292S400.479,290.565,400.479,290.565Z" transform="translate(-397.438 -290.565)" fill="#333" style="mix-blend-mode: multiply;isolation: isolate"/></g><path id="Path_7281" data-name="Path 7281" d="M420.068,284.187,409.5,297.5S417.91,296.481,420.068,284.187Z" transform="translate(-367.517 -242.123)" fill="#333" opacity="0.5" style="mix-blend-mode: multiply;isolation: isolate"/></g></g><g id="Group_8479" data-name="Group 8479" transform="translate(24.406 66.788)"><g id="Group_8476" data-name="Group 8476" transform="translate(0 2.451)"><g id="Group_8474" data-name="Group 8474" transform="translate(13.658)"><path id="Path_7282" data-name="Path 7282" d="M422.228,306.741s8.534,5.72,6.192,21.105c-.7,4.6-4.443,18.126-4.255,30.843.292,19.764-2.968,53.264-2.968,53.264h-9.649l-1.921-105.212Z" transform="translate(-401.014 -306.741)" fill="#e28758"/><path id="Path_7283" data-name="Path 7283" d="M425.3,398.4c1.072-.48-.135-2.323-.5-3.44a5.259,5.259,0,0,1-.269-3.442c.093-.243-.363-.242-.6-.13-.946.451-1.646,1.4-2.672,1.613a4.08,4.08,0,0,1-1.563-.082,5.015,5.015,0,0,1-2.146-.745c-.753-.561-1.153-1.517-1.945-2.022a3.026,3.026,0,0,0-2-.363,1.848,1.848,0,0,0-1.539.911,2.273,2.273,0,0,0,.017,1.406q.2.882.4,1.764c-2.6,1.3-5.592,1.556-8.321,2.541a3.168,3.168,0,0,0-1.313.761,1.252,1.252,0,0,0-.246,1.413S422.367,399.705,425.3,398.4Z" transform="translate(-402.479 -289.732)" fill="#333"/></g><g id="Group_8475" data-name="Group 8475"><path id="Path_7284" data-name="Path 7284" d="M412.771,306.741s5.852,7.443,3.511,22.828c-.7,4.6-2.906,16.4-2.718,29.12.292,19.764-2.968,53.264-2.968,53.264H402.05l-4.081-92.093Z" transform="translate(-389.745 -306.741)" fill="#d67c4d"/><path id="Path_7285" data-name="Path 7285" d="M413.96,398.4c1.072-.48-.135-2.323-.5-3.44a5.252,5.252,0,0,1-.27-3.442c.093-.243-.361-.242-.6-.13-.946.451-1.646,1.4-2.671,1.613a4.078,4.078,0,0,1-1.563-.082,5.02,5.02,0,0,1-2.147-.745c-.752-.561-1.152-1.517-1.943-2.022a3.028,3.028,0,0,0-2-.363,1.85,1.85,0,0,0-1.539.911,2.273,2.273,0,0,0,.018,1.406l.4,1.764c-2.6,1.3-5.593,1.556-8.321,2.541a3.16,3.16,0,0,0-1.313.761,1.254,1.254,0,0,0-.247,1.413S411.032,399.705,413.96,398.4Z" transform="translate(-391.144 -289.732)" fill="#333"/></g></g><g id="Group_8478" data-name="Group 8478" transform="translate(6.629)"><path id="Path_7286" data-name="Path 7286" d="M432.788,322.877c0,11.254-4.808,44.123-4.808,44.123h-28.6s-7.9-49.148,3.181-62.293h20.736S432.788,311.611,432.788,322.877Z" transform="translate(-396.645 -304.707)" fill="#1e1e1e"/><g id="Group_8477" data-name="Group 8477" transform="translate(23.6)" style="mix-blend-mode: screen;isolation: isolate"><path id="Path_7287" data-name="Path 7287" d="M423.4,324.431c-.482,8.422-2.518,33.593-3.253,42.569h-1.2c.723-8.88,2.771-34.2,3.265-42.641.446-7.8-3.94-16.206-5.976-19.652h1.422C419.871,308.563,423.859,316.66,423.4,324.431Z" transform="translate(-416.232 -304.707)" fill="url(#linear-gradient)"/></g></g></g><g id="Group_8482" data-name="Group 8482" transform="translate(34.03 0.816)"><g id="Group_8481" data-name="Group 8481"><path id="Path_7288" data-name="Path 7288" d="M420.741,258.33a1.642,1.642,0,0,0-.669-.3c-.206-1.118-.506-2.2-.771-3.23a3.584,3.584,0,0,0-2.441-2.582c-2.9-.841-8.564-1.927-12.371.886a3.748,3.748,0,0,0-1.452,2.741,49.041,49.041,0,0,0-.316,6.161c.016,1.228.071,2.415.173,3.48a7.823,7.823,0,0,0,1.045,3.821c2.175,2.507,11.209,1,14.785-3.846a7.977,7.977,0,0,0,1.218-2.407C421.389,261.715,421.807,259.13,420.741,258.33Z" transform="translate(-398.397 -249.68)" fill="#e28758"/><g id="Group_8480" data-name="Group 8480" transform="translate(4.32 8.132)"><circle id="Ellipse_34" data-name="Ellipse 34" cx="1.79" cy="1.79" r="1.79" transform="translate(7.645 4.159)" fill="#f09e73"/><path id="Path_7289" data-name="Path 7289" d="M404.185,261.938a1.793,1.793,0,0,1-1.294,1.722c-.1-1.065-.158-2.252-.173-3.48A1.78,1.78,0,0,1,404.185,261.938Z" transform="translate(-402.717 -255.99)" fill="#f09e73"/><path id="Path_7290" data-name="Path 7290" d="M406.211,257.689a2.32,2.32,0,0,1,.248,1.5,4.643,4.643,0,0,1-.476,1.456,4.92,4.92,0,0,0-.311.617.686.686,0,0,0,.037.542,1.353,1.353,0,0,0,1.113.658,1.286,1.286,0,0,1-1.456-.454,1.069,1.069,0,0,1-.159-.878,4.358,4.358,0,0,1,.32-.714,7.53,7.53,0,0,0,.542-1.306A3.554,3.554,0,0,0,406.211,257.689Z" transform="translate(-402.213 -256.501)" fill="#c26144"/><path id="Path_7291" data-name="Path 7291" d="M407.517,257.009a1.156,1.156,0,0,1,.667-.3,2.058,2.058,0,0,1,.74.064,1.5,1.5,0,0,1,.652.358,1.622,1.622,0,0,1,.411.575.141.141,0,0,1-.219.168l-.013-.011a2.329,2.329,0,0,0-.463-.341,1.424,1.424,0,0,0-.5-.16c-.348-.059-.693.078-1.083.049l-.052,0a.233.233,0,0,1-.214-.248A.238.238,0,0,1,407.517,257.009Z" transform="translate(-401.748 -256.703)" fill="#523329"/><path id="Path_7292" data-name="Path 7292" d="M405.507,257.414c-.39.029-.735-.108-1.083-.049a1.424,1.424,0,0,0-.5.16,2.329,2.329,0,0,0-.463.341l-.013.011a.141.141,0,0,1-.219-.168,1.622,1.622,0,0,1,.411-.575,1.5,1.5,0,0,1,.653-.358,2.049,2.049,0,0,1,.739-.064,1.156,1.156,0,0,1,.667.3.232.232,0,0,1,.01.328.224.224,0,0,1-.151.072Z" transform="translate(-402.615 -256.703)" fill="#523329"/><path id="Path_7293" data-name="Path 7293" d="M408.611,259.464c0,.57-.276,1.031-.616,1.031s-.616-.461-.616-1.031.276-1.031.616-1.031S408.611,258.894,408.611,259.464Z" transform="translate(-401.762 -256.348)" fill="#523329"/><ellipse id="Ellipse_35" data-name="Ellipse 35" cx="0.616" cy="1.032" rx="0.616" ry="1.032" transform="translate(1.246 2.084)" fill="#523329"/><path id="Path_7294" data-name="Path 7294" d="M417.385,259.159a.728.728,0,0,0-.582-.367,1.039,1.039,0,0,0-.64.165,3.913,3.913,0,0,0-1.012,1,.213.213,0,0,1-.358-.23,1.2,1.2,0,0,1,.871-.558,1.355,1.355,0,0,1,.512,0,.745.745,0,0,1,.482.3.828.828,0,0,1-.1,1,1.226,1.226,0,0,1-.839.367,1.382,1.382,0,0,0,.661-.5.582.582,0,0,0-.012-.654.653.653,0,0,0-.631-.1.862.862,0,0,0-.578.358l-.358-.231a3.3,3.3,0,0,1,1.212-1.035,1.176,1.176,0,0,1,.828-.071A.746.746,0,0,1,417.385,259.159Z" transform="translate(-400.248 -256.324)" fill="#c26144"/><path id="Path_7295" data-name="Path 7295" d="M405.859,263s3.313,2.1,3.189-1.071Z" transform="translate(-402.073 -255.633)" fill="#fff"/></g><path id="Path_7296" data-name="Path 7296" d="M412.887,256.944s1.627,6.928,4.734,4.97a7.552,7.552,0,0,1,1.269-2.652,1.67,1.67,0,0,1,2.911,1.482,8.314,8.314,0,0,1-1.723,3.027,10.9,10.9,0,0,1-2.507,3.874v5.114a10.5,10.5,0,0,0,5.717-6.933c1.607-5.417-1.34-12.647-4.009-13.449,0,0-8.473-5.171-14.582-.4s-6.261,26.007-4.8,26.91,9-2.181,9-2.181v-5.932s-5.24.81-5.227-5.72C403.679,257.893,408.31,256.04,412.887,256.944Z" transform="translate(-399.131 -249.953)" fill="#523329"/></g></g></g></g></g></g></svg>