<svg xmlns="http://www.w3.org/2000/svg" xmlns:xlink="http://www.w3.org/1999/xlink" width="59" height="59" viewBox="0 0 59 59"><defs><linearGradient id="linear-gradient" x1="-0.072" y1="-0.032" x2="1" y2="1" gradientUnits="objectBoundingBox"><stop offset="0" stop-color="#3cd89d"/><stop offset="1" stop-color="#82c444"/></linearGradient></defs><g id="phone_icon" transform="translate(-179 -1658)"><circle id="Ellipse_36" data-name="Ellipse 36" cx="29.5" cy="29.5" r="29.5" transform="translate(179 1658)" fill="url(#linear-gradient)"/><path id="Icon_awesome-phone-alt" data-name="Icon awesome-phone-alt" d="M19.814,14.413,15.352,12.5a.956.956,0,0,0-1.115.275L12.261,15.19A14.766,14.766,0,0,1,5.2,8.131L7.617,6.155A.954.954,0,0,0,7.892,5.04L5.979.578a.962.962,0,0,0-1.1-.554L.741.981A.956.956,0,0,0,0,1.912,18.482,18.482,0,0,0,18.484,20.4a.956.956,0,0,0,.932-.741l.956-4.143a.968.968,0,0,0-.558-1.1Z" transform="translate(198 1677)" fill="#fff"/></g></svg>