<svg xmlns="http://www.w3.org/2000/svg" xmlns:xlink="http://www.w3.org/1999/xlink" width="59" height="59" viewBox="0 0 59 59"><defs><linearGradient id="linear-gradient" x1="-0.072" y1="-0.032" x2="1" y2="1" gradientUnits="objectBoundingBox"><stop offset="0" stop-color="#3cd89d"/><stop offset="1" stop-color="#82c444"/></linearGradient></defs><g id="email_icon" transform="translate(-179 -1658)"><circle id="Ellipse_36" data-name="Ellipse 36" cx="29.5" cy="29.5" r="29.5" transform="translate(179 1658)" fill="url(#linear-gradient)"/><g id="Icon_ionic-ios-mail" data-name="Icon ionic-ios-mail" transform="translate(191.625 1670.125)"><path id="Path_7701" data-name="Path 7701" d="M29.575,10.353l-6.833,6.96a.123.123,0,0,0,0,.178l4.781,5.093a.824.824,0,0,1,0,1.168.828.828,0,0,1-1.168,0l-4.762-5.074a.13.13,0,0,0-.184,0l-1.162,1.181A5.113,5.113,0,0,1,16.6,21.4a5.215,5.215,0,0,1-3.721-1.581l-1.118-1.137a.13.13,0,0,0-.184,0L6.817,23.751a.828.828,0,0,1-1.168,0,.824.824,0,0,1,0-1.168L10.43,17.49a.135.135,0,0,0,0-.178l-6.839-6.96a.125.125,0,0,0-.216.089V24.367A2.038,2.038,0,0,0,5.407,26.4H27.759a2.038,2.038,0,0,0,2.032-2.032V10.442A.127.127,0,0,0,29.575,10.353Z" transform="translate(0 -0.236)" fill="#fff"/><path id="Path_7702" data-name="Path 7702" d="M16.665,19.5a3.452,3.452,0,0,0,2.483-1.041L29.111,8.319a2,2,0,0,0-1.257-.444H5.483a1.983,1.983,0,0,0-1.257.444L14.189,18.46A3.453,3.453,0,0,0,16.665,19.5Z" transform="translate(-0.082 0)" fill="#fff"/></g></g></svg>