<svg xmlns="http://www.w3.org/2000/svg" xmlns:xlink="http://www.w3.org/1999/xlink" id="About_us_pag_-_icons" data-name="About us pag - icons" width="451.662" height="336.542" viewBox="0 0 451.662 336.542"><defs><linearGradient id="linear-gradient" x1="-0.072" y1="-0.032" x2="1" y2="1" gradientUnits="objectBoundingBox"><stop offset="0" stop-color="#3cd89d"/><stop offset="1" stop-color="#82c444"/></linearGradient><clipPath id="clip-path"><circle id="Ellipse_17" data-name="Ellipse 17" cx="42.79" cy="42.79" r="42.79" transform="translate(0 60.515) rotate(-45)" fill="#fff"/></clipPath><clipPath id="clip-path-2"><circle id="Ellipse_20" data-name="Ellipse 20" cx="42.79" cy="42.79" r="42.79" fill="#fff"/></clipPath></defs><g id="background"><g id="Group_8338" data-name="Group 8338"><g id="Component_34_2" data-name="Component 34 – 2"><rect id="Rectangle_1170" data-name="Rectangle 1170" width="451.662" height="0.226" transform="translate(0 295.748)" fill="#ebebeb"/><rect id="Rectangle_1171" data-name="Rectangle 1171" width="22.466" height="0.226" transform="translate(81.715 304.348)" fill="#ebebeb"/><rect id="Rectangle_1172" data-name="Rectangle 1172" width="24.841" height="0.226" transform="translate(137.603 301.9)" fill="#ebebeb"/><rect id="Rectangle_1173" data-name="Rectangle 1173" width="52.492" height="0.226" transform="translate(43.061 312.74)" fill="#ebebeb"/><rect id="Rectangle_1174" data-name="Rectangle 1174" width="19.512" height="0.226" transform="translate(386.893 311.222)" fill="#ebebeb"/><rect id="Rectangle_1175" data-name="Rectangle 1175" width="25.23" height="0.226" transform="translate(194.025 303.643)" fill="#ebebeb"/><rect id="Rectangle_1176" data-name="Rectangle 1176" width="63.431" height="0.226" transform="translate(271.602 307.41)" fill="#ebebeb"/><rect id="Rectangle_1177" data-name="Rectangle 1177" width="276.751" height="176.41" rx="8.6" transform="translate(21.002 8.69)" fill="#3cd89d" opacity="0.5"/><rect id="Rectangle_1178" data-name="Rectangle 1178" width="276.751" height="142.201" transform="translate(21.002 17.615)" fill="#fafafa"/></g></g></g><g id="downback"><path id="Path_6862" data-name="Path 6862" d="M231.27,133.429a6.657,6.657,0,0,1,6.639-6.639H444.77a6.657,6.657,0,0,1,6.639,6.639V154.8H231.27Z" transform="translate(-22.359 -61.94)" fill="#3cd89d" opacity="0.5"/><circle id="Ellipse_6" data-name="Ellipse 6" cx="5.022" cy="5.022" r="5.022" transform="translate(257.583 73.838)" fill="#fff"/><circle id="Ellipse_7" data-name="Ellipse 7" cx="5.022" cy="5.022" r="5.022" transform="translate(239.787 73.838)" fill="#fff"/><circle id="Ellipse_8" data-name="Ellipse 8" cx="5.022" cy="5.022" r="5.022" transform="translate(222.001 73.838)" fill="#fff"/><path id="Path_6863" data-name="Path 6863" d="M444.74,272.888H237.879a6.658,6.658,0,0,1-6.639-6.639V157.85H451.38v108.4a6.658,6.658,0,0,1-6.639,6.639Z" transform="translate(-22.356 -64.943)" fill="#f5f5f5"/><path id="Path_6864" data-name="Path 6864" d="M198.55,174.359a6.657,6.657,0,0,1,6.639-6.639H412.05a6.657,6.657,0,0,1,6.639,6.639v21.373H198.55Z" transform="translate(-19.195 -65.897)" fill="#3cd89d" opacity="0.5"/><circle id="Ellipse_9" data-name="Ellipse 9" cx="5.022" cy="5.022" r="5.022" transform="translate(228.017 110.811)" fill="#e6e6e6"/><circle id="Ellipse_10" data-name="Ellipse 10" cx="5.022" cy="5.022" r="5.022" transform="translate(210.221 110.811)" fill="#e6e6e6"/><circle id="Ellipse_11" data-name="Ellipse 11" cx="5.022" cy="5.022" r="5.022" transform="translate(192.435 110.811)" fill="#e6e6e6"/><path id="Path_6865" data-name="Path 6865" d="M412.01,313.818H205.149a6.658,6.658,0,0,1-6.639-6.639V198.78H418.65v108.4a6.658,6.658,0,0,1-6.639,6.639Z" transform="translate(-19.191 -68.9)" fill="#fafafa"/><path id="Path_6866" data-name="Path 6866" d="M165.82,215.289a6.657,6.657,0,0,1,6.639-6.639H379.32a6.657,6.657,0,0,1,6.639,6.639v21.373H165.82Z" transform="translate(-16.031 -69.854)" fill="#fafafa"/><circle id="Ellipse_12" data-name="Ellipse 12" cx="5.022" cy="5.022" r="5.022" transform="translate(198.451 147.784)" fill="#f0f0f0"/><circle id="Ellipse_13" data-name="Ellipse 13" cx="5.022" cy="5.022" r="5.022" transform="translate(180.656 147.784)" fill="#f0f0f0"/><circle id="Ellipse_14" data-name="Ellipse 14" cx="5.022" cy="5.022" r="5.022" transform="translate(162.869 147.784)" fill="#f0f0f0"/><path id="anim_rec" data-name="anim rec" d="M379.28,354.748H172.419a6.658,6.658,0,0,1-6.639-6.639V239.71H385.92v108.4a6.658,6.658,0,0,1-6.639,6.639Z" transform="translate(-16.027 -72.857)" fill="#e6e6e6"/></g><g id="freepik--Shadow--inject-31" transform="translate(50.685 316.091)"><ellipse id="freepik--path--inject-31" cx="175.145" cy="10.226" rx="175.145" ry="10.226" fill="#f5f5f5"/></g><g id="About_us" data-name="About us"><g id="Group_8337" data-name="Group 8337"><g id="Component_33_1" data-name="Component 33 – 1" transform="translate(70.757 24.841)"><rect id="Rectangle_1179" data-name="Rectangle 1179" width="7.976" height="0.903" rx="0.452" transform="translate(93.946)" fill="url(#linear-gradient)"/><rect id="Rectangle_1180" data-name="Rectangle 1180" width="19.575" height="0.903" rx="0.452" transform="translate(64.895)" fill="url(#linear-gradient)"/><path id="Path_6868" data-name="Path 6868" d="M89.17,86H377.637a10.84,10.84,0,0,1,10.84,10.84V345.9H78.33V96.84A10.84,10.84,0,0,1,89.17,86Z" transform="translate(-78.33 -82.838)" fill="url(#linear-gradient)"/><rect id="Rectangle_1181" data-name="Rectangle 1181" width="310.138" height="239.435" transform="translate(0 19.421)" fill="#fff" opacity="0.8"/><rect id="Rectangle_1182" data-name="Rectangle 1182" width="310.138" height="52.637" transform="translate(0 19.421)" fill="#333"/><rect id="Rectangle_1183" data-name="Rectangle 1183" width="12.945" height="12.945" transform="translate(290.798 24.453)" fill="#333" opacity="0.4"/><rect id="Rectangle_1184" data-name="Rectangle 1184" width="12.945" height="12.945" transform="translate(271.593 24.453)" fill="#333" opacity="0.4"/><rect id="Rectangle_1185" data-name="Rectangle 1185" width="12.945" height="12.945" transform="translate(252.389 24.453)" fill="#333" opacity="0.4"/><rect id="Rectangle_1186" data-name="Rectangle 1186" width="12.945" height="1.301" rx="0.65" transform="translate(45.735 250.22)" fill="url(#linear-gradient)"/><rect id="Rectangle_1187" data-name="Rectangle 1187" width="12.945" height="1.301" rx="0.65" transform="translate(26.531 250.22)" fill="url(#linear-gradient)"/><rect id="Rectangle_1188" data-name="Rectangle 1188" width="12.945" height="1.301" rx="0.65" transform="translate(7.326 250.22)" fill="url(#linear-gradient)"/><path id="Path_6869" data-name="Path 6869" d="M214.829,136.194h-3.948l-.551,1.861h-3.55l4.228-11.264h3.8l4.228,11.264h-3.613Zm-.723-2.43-1.238-4.074-1.238,4.056Z" transform="translate(-90.748 -86.782)" fill="#fff"/><path id="Path_6870" data-name="Path 6870" d="M221.36,126.79h3.162v3.9a3.008,3.008,0,0,1,1.057-.732,3.469,3.469,0,0,1,1.319-.253,3.2,3.2,0,0,1,2.466,1.075,4.426,4.426,0,0,1,.976,3.08,5.8,5.8,0,0,1-.443,2.349,3.405,3.405,0,0,1-1.238,1.527,3.161,3.161,0,0,1-1.743.5,3.252,3.252,0,0,1-1.509-.352,3.821,3.821,0,0,1-1.12-1.039v1.21H221.36Zm3.135,7.163a2.394,2.394,0,0,0,.4,1.527,1.265,1.265,0,0,0,1,.47,1.156,1.156,0,0,0,.9-.47,2.493,2.493,0,0,0,.379-1.563,2.258,2.258,0,0,0-.37-1.418,1.147,1.147,0,0,0-.9-.452,1.283,1.283,0,0,0-1.039.47A2.159,2.159,0,0,0,224.495,133.953Z" transform="translate(-92.158 -86.782)" fill="#fff"/><path id="Path_6871" data-name="Path 6871" d="M232.53,134.308a4.1,4.1,0,0,1,1.265-3.08A4.715,4.715,0,0,1,237.2,130a4.661,4.661,0,0,1,3.695,1.427,4.426,4.426,0,0,1-.235,5.9,4.769,4.769,0,0,1-3.46,1.2,4.887,4.887,0,0,1-3.18-.994A4.011,4.011,0,0,1,232.53,134.308Zm3.135,0a2.5,2.5,0,0,0,.443,1.617,1.463,1.463,0,0,0,2.222,0,2.547,2.547,0,0,0,.434-1.653,2.412,2.412,0,0,0-.388-1.563,1.382,1.382,0,0,0-1.084-.515,1.4,1.4,0,0,0-1.129.524,2.43,2.43,0,0,0-.5,1.581Z" transform="translate(-93.237 -87.091)" fill="#fff"/><path id="Path_6872" data-name="Path 6872" d="M253.166,138.387h-2.918v-1.319a4.219,4.219,0,0,1-1.319,1.156,3.451,3.451,0,0,1-1.635.343,2.656,2.656,0,0,1-2.023-.768,3.351,3.351,0,0,1-.732-2.376V130.23h3.126v4.517a1.653,1.653,0,0,0,.28,1.093,1.012,1.012,0,0,0,.8.325,1.129,1.129,0,0,0,.9-.434,2.421,2.421,0,0,0,.361-1.545v-3.92h3.126Z" transform="translate(-94.398 -87.115)" fill="#fff"/><path id="Path_6873" data-name="Path 6873" d="M259.911,126.79V129.9h1.716v2.285h-1.716v2.927a1.508,1.508,0,0,0,.1.7.56.56,0,0,0,.533.253,3.306,3.306,0,0,0,.967-.2l.235,2.159a10.063,10.063,0,0,1-2.168.253,3.74,3.74,0,0,1-1.716-.3,1.807,1.807,0,0,1-.822-.9,5.284,5.284,0,0,1-.262-1.978v-2.873H255.62v-2.285h1.156v-1.5Z" transform="translate(-95.47 -86.782)" fill="#fff"/><path id="Path_6874" data-name="Path 6874" d="M277.286,126.786h3.469V133.5a5.663,5.663,0,0,1-.307,1.888,4.083,4.083,0,0,1-.976,1.545,3.992,3.992,0,0,1-1.391.9,7.227,7.227,0,0,1-2.439.37,14.458,14.458,0,0,1-1.807-.117,4.625,4.625,0,0,1-1.617-.452,3.92,3.92,0,0,1-1.2-.976,3.559,3.559,0,0,1-.741-1.292,6.694,6.694,0,0,1-.316-1.906V126.75h3.469v6.874a1.978,1.978,0,0,0,.506,1.436,1.915,1.915,0,0,0,1.418.515,1.87,1.87,0,0,0,1.409-.506,1.951,1.951,0,0,0,.515-1.445Z" transform="translate(-96.856 -86.778)" fill="#fff"/><path id="Path_6875" data-name="Path 6875" d="M283.62,136.1l3.107-.289a1.5,1.5,0,0,0,.533.786,1.59,1.59,0,0,0,.9.244,1.527,1.527,0,0,0,.976-.271.6.6,0,0,0,.271-.5.578.578,0,0,0-.352-.524,6.656,6.656,0,0,0-1.346-.325,13.748,13.748,0,0,1-2.258-.524,2.4,2.4,0,0,1-1.066-.813,2.1,2.1,0,0,1-.443-1.319,2.168,2.168,0,0,1,.47-1.382,2.909,2.909,0,0,1,1.292-.9,6.928,6.928,0,0,1,2.2-.289,7.814,7.814,0,0,1,2.159.226,2.818,2.818,0,0,1,1.156.7,3.614,3.614,0,0,1,.777,1.265l-2.972.289a.994.994,0,0,0-.379-.578,1.572,1.572,0,0,0-.9-.244,1.246,1.246,0,0,0-.768.19.569.569,0,0,0-.244.461.488.488,0,0,0,.307.452,5.158,5.158,0,0,0,1.337.271,8.817,8.817,0,0,1,2.322.5,2.566,2.566,0,0,1,1.165.9,2.24,2.24,0,0,1,.4,1.283,2.547,2.547,0,0,1-.425,1.373,2.927,2.927,0,0,1-1.346,1.066,6.513,6.513,0,0,1-2.5.388,5.935,5.935,0,0,1-3.18-.632A2.873,2.873,0,0,1,283.62,136.1Z" transform="translate(-98.177 -87.091)" fill="#fff"/><path id="Path_6942" data-name="Path 6942" d="M333.377,219.5H214.77a3.92,3.92,0,0,1-3.92-3.92h0a3.911,3.911,0,0,1,3.92-3.911H333.377a3.911,3.911,0,0,1,3.911,3.911h0a3.911,3.911,0,0,1-3.911,3.92Z" transform="translate(-91.142 -94.988)" fill="#3cd89d" opacity="0.5"/><path id="Path_6943" data-name="Path 6943" d="M305.834,237.732H214.77a3.911,3.911,0,0,1-3.92-3.911h0a3.92,3.92,0,0,1,3.92-3.92h91.064a3.92,3.92,0,0,1,3.92,3.92h0a3.911,3.911,0,0,1-3.92,3.911Z" transform="translate(-91.142 -96.75)" fill="#3cd89d" opacity="0.5"/><path id="Path_6944" data-name="Path 6944" d="M234.3,303.822h45.247a3.92,3.92,0,0,0,3.92-3.92h0a3.911,3.911,0,0,0-3.92-3.911H234.3a3.911,3.911,0,0,0-3.911,3.911h0a3.911,3.911,0,0,0,3.911,3.92Z" transform="translate(-93.031 -103.14)" fill="#82c444" opacity="0.5"/><path id="Path_6945" data-name="Path 6945" d="M178.641,303.822H209.86a3.911,3.911,0,0,0,3.911-3.92h0a3.911,3.911,0,0,0-3.911-3.911H178.641a3.911,3.911,0,0,0-3.911,3.911h0a3.911,3.911,0,0,0,3.911,3.92Z" transform="translate(-87.65 -103.14)" fill="#82c444" opacity="0.5"/><path id="Path_6946" data-name="Path 6946" d="M153.091,322.052H271.7a3.911,3.911,0,0,0,3.92-3.911h0a3.92,3.92,0,0,0-3.92-3.92H153.091a3.911,3.911,0,0,0-3.911,3.92h0a3.911,3.911,0,0,0,3.911,3.911Z" transform="translate(-85.179 -104.902)" fill="#82c444" opacity="0.5"/><path id="Path_6947" data-name="Path 6947" d="M99.024,94.6a3.767,3.767,0,1,1-3.758-3.767A3.767,3.767,0,0,1,99.024,94.6Z" transform="translate(-79.602 -83.305)" fill="#fff"/><circle id="Ellipse_21" data-name="Ellipse 21" cx="3.767" cy="3.767" r="3.767" transform="translate(24.697 7.525)" fill="#fff"/><circle id="Ellipse_22" data-name="Ellipse 22" cx="3.767" cy="3.767" r="3.767" transform="translate(37.497 7.525)" fill="#fff"/></g></g></g><g id="person"><g id="Group_8339" data-name="Group 8339"><g id="Component_35_2" data-name="Component 35 – 2" transform="translate(74.244 93.156)"><circle id="Ellipse_15" data-name="Ellipse 15" cx="45.166" cy="45.166" r="45.166" transform="translate(15.348 15.351)" fill="#82c444"/><circle id="Ellipse_16" data-name="Ellipse 16" cx="42.79" cy="42.79" r="42.79" transform="translate(0 60.515) rotate(-45)" fill="#fff"/><circle id="Ellipse_18" data-name="Ellipse 18" cx="45.166" cy="45.166" r="45.166" transform="translate(197.494 91.519)" fill="#3cd89d"/><circle id="Ellipse_19" data-name="Ellipse 19" cx="42.79" cy="42.79" r="42.79" transform="translate(199.87 93.895)" fill="#fff"/><g id="Group_8332" data-name="Group 8332" transform="translate(-3.486 -68.315)"><g id="Group_8292" data-name="Group 8292" transform="translate(3.486 68.315)" clip-path="url(#clip-path)"><path id="Path_6876" data-name="Path 6876" d="M151.6,232.765l3.613-7.516s18.861,5.962,21.68,7.344c-.072-4.715,2.331-13.55,2.593-18.392.714-.677,2.439-2.385,3.333-2.322,2.71,6.323,2.123,28-3.207,28.391C171.094,240.813,151.6,232.765,151.6,232.765Z" transform="translate(-88.9 -163.323)" fill="#b55b52"/><path id="Path_6877" data-name="Path 6877" d="M148.934,232.784c2.177,5.1,20.054,9.647,20.054,9.647l3.613-10.984s-6.811-5.167-13.884-6.838C151.482,222.883,146.532,227.183,148.934,232.784Z" transform="translate(-88.583 -164.516)" fill="#333"/><path id="Path_6878" data-name="Path 6878" d="M149.35,234.271c2.123,3.207,10.018,6.116,15.158,7.732C161.084,235.355,156.468,231.687,149.35,234.271Z" transform="translate(-88.683 -165.407)" opacity="0.2"/><path id="Path_6879" data-name="Path 6879" d="M182.142,214.8,179.26,211.1l5.33-2.972a9.322,9.322,0,0,1,1.545,5.357Z" transform="translate(-91.574 -162.961)" fill="#b55b52"/><path id="Path_6880" data-name="Path 6880" d="M178.39,205.67l5.194-.84.921,2.981-5.33,2.972Z" transform="translate(-91.49 -162.642)" fill="#b55b52"/><path id="Path_6881" data-name="Path 6881" d="M157.106,224.867s7.281,17.524,1.572,50.18H130.223c-.334-4.77,2.1-28-3.053-50.478a79.423,79.423,0,0,1,10.361-1.319,114.8,114.8,0,0,1,13.2,0C155.336,223.674,157.106,224.867,157.106,224.867Z" transform="translate(-86.538 -164.404)" fill="#333"/><path id="Path_6882" data-name="Path 6882" d="M134.1,230.5c.614,3.7-.334,12.547-3.613,22.764a149.584,149.584,0,0,0-2.782-26.07h0C129.778,226.938,133.517,227.01,134.1,230.5Z" transform="translate(-86.589 -164.795)" opacity="0.2"/><path id="Path_6883" data-name="Path 6883" d="M140.058,209.61c.9,4.246,1.481,9.512-1.418,12.339,0,0,1.807,4.309,9.7,4.309,7.227,0,3.5-4.309,3.5-4.309-4.761-1.129-4.661-6.983-3.911-10.289Z" transform="translate(-87.647 -163.104)" fill="#b55b52"/><path id="Path_6884" data-name="Path 6884" d="M149.51,227.644l1.716,1.9a.515.515,0,0,1,.108.488l-.551,1.671a.479.479,0,0,1-.434.325l-1.807.09a.488.488,0,0,1-.443-.226l-1.111-1.617a.506.506,0,0,1,0-.605l1.807-2.023a.506.506,0,0,1,.714,0Z" transform="translate(-88.445 -164.833)" fill="#fff"/><path id="Path_6885" data-name="Path 6885" d="M148.2,226.636a9.991,9.991,0,0,0-1.409,4.842s-9.937-3.487-9.638-8.6c0,0,1.382-.831,2.258-1.509C139.408,221.37,139.823,224.595,148.2,226.636Z" transform="translate(-87.502 -164.241)" fill="#263238"/><path id="Path_6886" data-name="Path 6886" d="M149.38,226.732a14.146,14.146,0,0,1,2.032,4.517s4.408-3.035,2.936-8.085a17.758,17.758,0,0,0-2.547-.8S152.469,225.648,149.38,226.732Z" transform="translate(-88.685 -164.336)" fill="#263238"/><path id="Path_6887" data-name="Path 6887" d="M150.15,232.219s2.827,20.776,2.891,24.39a35.067,35.067,0,0,1-1.6,10.081,26.541,26.541,0,0,1-2.276-10.235c-.334-6.558.072-20.56-.072-24.245Z" transform="translate(-88.652 -165.289)" fill="#fff"/><path id="Path_6888" data-name="Path 6888" d="M148.079,211.67a12.782,12.782,0,0,0,.2,6.974,7.741,7.741,0,0,1-2.123-.65c-2.71-1.265-4.074-3.243-5.51-6.179-.126-.759-.271-1.49-.425-2.2Z" transform="translate(-87.8 -163.104)" opacity="0.2"/><path id="Path_6889" data-name="Path 6889" d="M156.61,208.185a5.293,5.293,0,0,1-3.162,2.665c-1.807.533-2.791-1.12-2.34-2.882.416-1.59,1.807-3.776,3.7-3.55a2.52,2.52,0,0,1,1.8,3.767Z" transform="translate(-88.842 -162.6)" fill="#b55b52"/><path id="Path_6890" data-name="Path 6890" d="M156.61,208.185a5.293,5.293,0,0,1-3.162,2.665c-1.807.533-2.791-1.12-2.34-2.882.416-1.59,1.807-3.776,3.7-3.55a2.52,2.52,0,0,1,1.8,3.767Z" transform="translate(-88.842 -162.6)" opacity="0.2"/><path id="Path_6891" data-name="Path 6891" d="M151.034,203.361c1.807,1.653,5.1-7.416,1.409-9.937s-4.986.9-4.923,2.99A9.357,9.357,0,0,0,151.034,203.361Z" transform="translate(-88.505 -161.453)" fill="#263238"/><path id="Path_6892" data-name="Path 6892" d="M137.738,201.865c.849,5.745,1.057,9.151,4.191,11.924,4.706,4.164,11.508,1.039,12.367-4.815.777-5.275-.741-13.794-6.513-15.718a7.687,7.687,0,0,0-10.045,8.609Z" transform="translate(-87.549 -161.483)" fill="#b55b52"/><path id="Path_6893" data-name="Path 6893" d="M136.851,207.107c.994.641,2.358,2.376,4.408-.7,0-.795-2.014-2.132-2.168-4.011-.181-2.186-.659-4.517-2.43-5.284-4.038-1.807-4.779,1.662-4.381,3.74S133.77,205.092,136.851,207.107Z" transform="translate(-87.023 -161.847)" fill="#263238"/><path id="Path_6894" data-name="Path 6894" d="M136.472,197.926c9.53-1.481,15.158-1.807,18.021-5.375s-1.536-7.985-6.323-8.491c-.343,1.861-5.194,6.757-12.647,8.88a2.24,2.24,0,0,0-.641,4.029C135.795,197.556,136.472,197.926,136.472,197.926Z" transform="translate(-87.187 -160.634)" fill="#263238"/><path id="Path_6895" data-name="Path 6895" d="M135.459,209.638a5.555,5.555,0,0,0,3.613,2.2c1.888.289,2.565-1.472,1.807-3.153-.677-1.518-2.475-3.487-4.264-3.008A2.456,2.456,0,0,0,135.459,209.638Z" transform="translate(-87.284 -162.716)" fill="#b55b52"/><path id="Path_6896" data-name="Path 6896" d="M147.46,203.9c0,.47.325.84.623.813s.515-.416.479-.9-.316-.831-.623-.813S147.423,203.4,147.46,203.9Z" transform="translate(-88.499 -162.465)" fill="#263238"/><path id="Path_6897" data-name="Path 6897" d="M153.26,203.473c.045.47.325.831.623.813s.515-.416.479-.9-.325-.84-.623-.813S153.223,203,153.26,203.473Z" transform="translate(-89.06 -162.423)" fill="#263238"/><path id="Path_6898" data-name="Path 6898" d="M151.44,204a17.38,17.38,0,0,0,2.565,3.875,2.62,2.62,0,0,1-2.177.569Z" transform="translate(-88.885 -162.561)" fill="#a02724"/><path id="Path_6899" data-name="Path 6899" d="M150.137,210.241a.126.126,0,0,0,.117-.145.135.135,0,0,0-.145-.126,3.731,3.731,0,0,1-3.116-1.256.136.136,0,0,0-.217.163,3.939,3.939,0,0,0,3.36,1.364Z" transform="translate(-88.431 -163.012)" fill="#263238"/><path id="Path_6900" data-name="Path 6900" d="M145.518,202a.253.253,0,0,0,.208-.117,2.123,2.123,0,0,1,1.662-1.048.262.262,0,0,0,.271-.271.28.28,0,0,0-.28-.28,2.629,2.629,0,0,0-2.114,1.292.271.271,0,0,0,.09.379.217.217,0,0,0,.163.045Z" transform="translate(-88.284 -162.202)" fill="#263238"/><path id="Path_6901" data-name="Path 6901" d="M155.448,201.126l.108-.045a.271.271,0,0,0,.072-.388,2.764,2.764,0,0,0-2.168-1.283.271.271,0,0,0-.271.28.28.28,0,0,0,.28.271h0A2.2,2.2,0,0,1,155.177,201a.307.307,0,0,0,.271.126Z" transform="translate(-89.054 -162.118)" fill="#263238"/><path id="Path_6902" data-name="Path 6902" d="M122.521,233.26l7.317,4.3s-9.232,18.066-8.229,20.885c1.364,3.794,3.433,12.132,5.854,16.26a8.2,8.2,0,0,1-2.385,3.5c-5.817-3.9-12.186-16.684-12.168-20.334C112.991,249.592,122.521,233.26,122.521,233.26Z" transform="translate(-85.16 -165.39)" fill="#b55b52"/><path id="Path_6903" data-name="Path 6903" d="M125.961,224.719c-5.474.795-11.3,19.873-11.3,19.873l12.954,4.128a104.6,104.6,0,0,0,5.989-13.432C136.006,228.242,131.832,223.86,125.961,224.719Z" transform="translate(-85.329 -164.554)" fill="#333"/><path id="Path_6904" data-name="Path 6904" d="M127.23,278.3l5.519-.4-2.782,6.088s-4.842.19-5.727-3.5Z" transform="translate(-86.255 -169.706)" fill="#b55b52"/><path id="Path_6905" data-name="Path 6905" d="M137.915,280.7l-2.8,5.393-4.535-2.1,2.782-6.088Z" transform="translate(-86.868 -169.706)" fill="#b55b52"/></g><g id="Group_8293" data-name="Group 8293" transform="translate(203.356 162.21)" clip-path="url(#clip-path-2)"><path id="Path_6906" data-name="Path 6906" d="M347.64,273.331c-6.423-.578-10.424,9.3-9.087,24.39,8.13,4.616,17.443,0,24.9,3.713C370.34,290.891,368.507,267.116,347.64,273.331Z" transform="translate(-306.819 -263.06)" fill="#263238"/><path id="Path_6907" data-name="Path 6907" d="M335.649,321.033a48.067,48.067,0,0,1-3.875,9.882,22.113,22.113,0,0,1-3.306,4.742,10.835,10.835,0,0,1-1.238,1.138,5.6,5.6,0,0,1-2.412,1.22,4.264,4.264,0,0,1-2.069-.09,4.362,4.362,0,0,1-1.617-.9,6.033,6.033,0,0,1-1.409-1.888,13.339,13.339,0,0,1-.985-3.008,24.641,24.641,0,0,1-.434-2.71c-.2-1.807-.289-3.487-.316-5.2a84.85,84.85,0,0,1,.461-10.162l3.324.063c.289,3.252.623,6.54,1.048,9.738.226,1.6.479,3.189.8,4.706.163.75.352,1.49.551,2.168a7.477,7.477,0,0,0,.7,1.68c.1.163.226.253.072.081a1.526,1.526,0,0,0-.533-.3,1.806,1.806,0,0,0-.84-.054c-.406.072-.434.19-.271,0a6.531,6.531,0,0,0,.533-.614,19.342,19.342,0,0,0,2.087-3.613,44.028,44.028,0,0,0,1.752-4.273c.542-1.454,1.048-3.017,1.49-4.426Z" transform="translate(-304.855 -267.095)" fill="#ffb573"/><path id="Path_6908" data-name="Path 6908" d="M332.107,312.1c-2.71.7-4.607,11.843-4.607,11.843l10.361,7.046s4.264-13.216,2.177-16.2S336.082,311.064,332.107,312.1Z" transform="translate(-305.775 -266.864)" fill="#263238"/><path id="Path_6909" data-name="Path 6909" d="M332.647,314.91l-2.087,11.237,4.2,2.845Z" transform="translate(-306.071 -267.178)" opacity="0.2"/><path id="Path_6910" data-name="Path 6910" d="M321.891,314.408l1.373-6.928-5.51,1.6s-.542,4.8,1.68,6.377Z" transform="translate(-304.827 -266.46)" fill="#ffb573"/><path id="Path_6911" data-name="Path 6911" d="M322.719,304.11,318.167,306l-.406,2.755,5.51-1.6Z" transform="translate(-304.833 -266.134)" fill="#ffb573"/><path id="Path_6912" data-name="Path 6912" d="M332.516,311.947s-3.135,1.111,3.144,39.683h26.693c-.443-10.84-.461-17.57,4.733-39.873a79.49,79.49,0,0,0-11.337-1.49,84.747,84.747,0,0,0-12.123,0C338.424,310.746,332.516,311.947,332.516,311.947Z" transform="translate(-306.184 -266.709)" fill="#263238"/><path id="Path_6913" data-name="Path 6913" d="M367.968,321.72c-2.421.6-4.661,3.243-4.39,8.13a11.744,11.744,0,0,0,2.231,6.125c.425-3.74,1.138-8.085,2.276-13.631Z" transform="translate(-309.261 -267.837)" opacity="0.2"/><path id="Path_6914" data-name="Path 6914" d="M346.46,318.82s4.372,3.613,4.372,7.434c3.613-2.665,8.536-9.937,9.033-14.553a1.391,1.391,0,0,0-1.319-1.518,7.942,7.942,0,0,1-.976-.126.9.9,0,0,0-.777.2Z" transform="translate(-307.608 -266.707)" fill="#fafafa"/><path id="Path_6915" data-name="Path 6915" d="M345.752,318.811a11.057,11.057,0,0,0-4.381,7.434c-3.686-2.71-2.159-11.048-.108-14.986a2.114,2.114,0,0,1,1.644-1.12c.533-.063.948-.135,1.22-.19a.361.361,0,0,1,.434.307Z" transform="translate(-306.9 -266.698)" fill="#fafafa"/><path id="Path_6916" data-name="Path 6916" d="M355.678,295.18c-.759,3.9-1.527,11.048,1.2,13.649a34.245,34.245,0,0,1-10.713,8.555c-5.42-4.327-1.409-8.555-1.409-8.555,4.354-1.039,4.237-4.264,3.478-7.3Z" transform="translate(-307.305 -265.271)" fill="#ffb573"/><path id="Path_6917" data-name="Path 6917" d="M353.159,298.05l-4.4,3.758a12.911,12.911,0,0,1,.37,2.15c1.662-.235,4.273-1.653,4.634-3.46a5.122,5.122,0,0,0-.605-2.448Z" transform="translate(-307.83 -265.548)" opacity="0.2"/><path id="Path_6918" data-name="Path 6918" d="M362.121,287.014c-1.807,6.269-2.43,8.961-6.368,11.517-5.917,3.83-13.225.244-13.333-6.441-.1-6.016,2.873-15.257,9.657-16.4a8.9,8.9,0,0,1,10.045,11.328Z" transform="translate(-307.217 -263.374)" fill="#ffb573"/><path id="Path_6919" data-name="Path 6919" d="M358.9,281.742c1.1,6.26,1.527,8.681,3.74,10.3s4.273-5.808,2.638-8.663S358.9,281.742,358.9,281.742Z" transform="translate(-308.811 -263.947)" fill="#263238"/><path id="Path_6920" data-name="Path 6920" d="M347.343,275.083c-1.328,1.572,1.4,4.86,4.047,5.935a4.518,4.518,0,0,1-.352-1.084,17.768,17.768,0,0,0,6.323,2.71,2.484,2.484,0,0,1-.5-1.111c0-.307,6.522,4.011,7.47.9s-2.285-7.172-7.227-8.473C352.9,272.906,348.978,273.141,347.343,275.083Z" transform="translate(-307.66 -263.16)" fill="#263238"/><path id="Path_6921" data-name="Path 6921" d="M352.456,287.5c-.108.515-.479.9-.822.795s-.515-.551-.4-1.075.479-.9.822-.795S352.573,286.943,352.456,287.5Z" transform="translate(-308.066 -264.423)" fill="#263238"/><path id="Path_6922" data-name="Path 6922" d="M345.985,286.063c-.117.515-.488.9-.822.795s-.524-.551-.406-1.075.479-.9.822-.795S346.093,285.539,345.985,286.063Z" transform="translate(-307.44 -264.284)" fill="#263238"/><path id="Path_6923" data-name="Path 6923" d="M345.705,284.991l-1.165-.641S344.956,285.461,345.705,284.991Z" transform="translate(-307.422 -264.224)" fill="#263238"/><path id="Path_6924" data-name="Path 6924" d="M347.6,287.65a14.184,14.184,0,0,1-2.574,2.891,2.267,2.267,0,0,0,1.807.759Z" transform="translate(-307.47 -264.543)" fill="#ed893e"/><path id="Path_6925" data-name="Path 6925" d="M349.514,294.489a6.405,6.405,0,0,1-.777-.108.163.163,0,0,1-.117-.19.154.154,0,0,1,.19-.117,4.209,4.209,0,0,0,3.695-.858.157.157,0,0,1,.226.217,4.4,4.4,0,0,1-3.216,1.057Z" transform="translate(-307.817 -265.077)" fill="#263238"/><path id="Path_6926" data-name="Path 6926" d="M364.157,294.8a4.761,4.761,0,0,1-3.035,2c-1.644.307-2.322-1.2-1.734-2.71.524-1.328,2.005-3.08,3.613-2.71a2.141,2.141,0,0,1,1.156,3.424Z" transform="translate(-308.838 -264.898)" fill="#ffb573"/><path id="Path_6927" data-name="Path 6927" d="M355.509,286.029a.3.3,0,0,1-.262-.253,3.7,3.7,0,0,0-1.951-2.222.316.316,0,1,1,.262-.569,4.282,4.282,0,0,1,2.294,2.71.316.316,0,0,1-.244.361Z" transform="translate(-308.247 -264.087)" fill="#263238"/><path id="Path_6928" data-name="Path 6928" d="M344.8,281.469a.325.325,0,0,1-.28-.145.316.316,0,0,1,.09-.434,3.1,3.1,0,0,1,2.818-.361.31.31,0,1,1-.244.569,2.511,2.511,0,0,0-2.231.316A.316.316,0,0,1,344.8,281.469Z" transform="translate(-307.416 -263.837)" fill="#263238"/><path id="Path_6929" data-name="Path 6929" d="M352.176,286.431l-1.156-.641S351.436,286.883,352.176,286.431Z" transform="translate(-308.049 -264.363)" fill="#263238"/><path id="Path_6930" data-name="Path 6930" d="M363.091,354.328l.677,2.385c.1.19-.126.379-.434.379H335.856c-.244,0-.443-.126-.452-.271l-.244-2.394c0-.163.19-.307.452-.307h27.046a.479.479,0,0,1,.434.208Z" transform="translate(-306.516 -270.969)" fill="#333"/><path id="Path_6931" data-name="Path 6931" d="M363.091,354.328l.677,2.385c.1.19-.126.379-.434.379H335.856c-.244,0-.443-.126-.452-.271l-.244-2.394c0-.163.19-.307.452-.307h27.046a.479.479,0,0,1,.434.208Z" transform="translate(-306.516 -270.969)" opacity="0.2"/><path id="Path_6932" data-name="Path 6932" d="M361.933,357.323h.723c.145,0,.253-.072.244-.163l-.343-3.107c0-.09-.135-.163-.28-.163h-.723c-.145,0-.253.072-.244.163l.343,3.107C361.626,357.25,361.753,357.323,361.933,357.323Z" transform="translate(-309.044 -270.947)" fill="#333"/><path id="Path_6933" data-name="Path 6933" d="M361.933,357.323h.723c.145,0,.253-.072.244-.163l-.343-3.107c0-.09-.135-.163-.28-.163h-.723c-.145,0-.253.072-.244.163l.343,3.107C361.626,357.25,361.753,357.323,361.933,357.323Z" transform="translate(-309.044 -270.947)" opacity="0.4"/><path id="Path_6934" data-name="Path 6934" d="M338.114,357.323h.723c.145,0,.262-.072.253-.163l-.343-3.107c0-.09-.135-.163-.28-.163h-.723c-.145,0-.253.072-.244.163l.334,3.107C337.843,357.25,337.952,357.323,338.114,357.323Z" transform="translate(-306.742 -270.947)" fill="#333"/><path id="Path_6935" data-name="Path 6935" d="M338.114,357.323h.723c.145,0,.262-.072.253-.163l-.343-3.107c0-.09-.135-.163-.28-.163h-.723c-.145,0-.253.072-.244.163l.334,3.107C337.843,357.25,337.952,357.323,338.114,357.323Z" transform="translate(-306.742 -270.947)" opacity="0.4"/><path id="Path_6936" data-name="Path 6936" d="M349.933,357.323h.723c.145,0,.253-.072.244-.163l-.334-3.107c0-.09-.135-.163-.28-.163h-.723c-.145,0-.262.072-.253.163l.343,3.107A.3.3,0,0,0,349.933,357.323Z" transform="translate(-307.884 -270.947)" fill="#333"/><path id="Path_6937" data-name="Path 6937" d="M349.933,357.323h.723c.145,0,.253-.072.244-.163l-.334-3.107c0-.09-.135-.163-.28-.163h-.723c-.145,0-.262.072-.253.163l.343,3.107A.3.3,0,0,0,349.933,357.323Z" transform="translate(-307.884 -270.947)" opacity="0.4"/><path id="Path_6938" data-name="Path 6938" d="M347.177,361.69l-6.477-2.9,1.807,6.423s4.119.9,5.908-1.129Z" transform="translate(-307.051 -271.421)" fill="#ffb573"/><path id="Path_6939" data-name="Path 6939" d="M371.578,320.71c.3,2.258.533,4.517.8,6.775l.687,6.784c.244,2.258.416,4.517.614,6.784l.316,3.406.072.849a4.386,4.386,0,0,0,.045.687,7.619,7.619,0,0,1,0,.786,7.126,7.126,0,0,1-.9,2.755,11.409,11.409,0,0,1-3.053,3.342,24,24,0,0,1-3.27,2.069,46.968,46.968,0,0,1-6.639,2.791,85.391,85.391,0,0,1-13.55,3.342l-.741-3.243c2.1-.7,4.255-1.409,6.323-2.2s4.164-1.581,6.161-2.493a47.886,47.886,0,0,0,5.709-2.972,19.451,19.451,0,0,0,2.394-1.734,5.8,5.8,0,0,0,1.436-1.725,1.137,1.137,0,0,0,.135-.47l-.154-1.075-.479-3.378c-.316-2.249-.668-4.517-.9-6.757l-.858-6.766c-.244-2.267-.533-4.517-.741-6.784Z" transform="translate(-307.56 -267.739)" fill="#ffb573"/><path id="Path_6940" data-name="Path 6940" d="M370.084,311.924c2.71.813,5.89,10.027,5.89,10.027l-9.385,9.638s-4.806-9.937-3.677-13.36C364.1,314.625,367.031,311,370.084,311.924Z" transform="translate(-309.182 -266.876)" fill="#263238"/><path id="Path_6941" data-name="Path 6941" d="M334.76,360.107l1.834,5.293,5.375-.208-1.852-6.423Z" transform="translate(-306.477 -271.419)" fill="#ffb573"/></g></g></g></g></g></svg>