<svg xmlns="http://www.w3.org/2000/svg" width="468" height="223" viewBox="0 0 468 223" fill="none"><path d="M250.428 136.984H239.248V128.82H271.852V136.984H260.724V165.22H250.428V136.984Z" fill="white"></path><path d="M310.32 128.82V165.22H300.024V151.024H285.984V165.22H275.688V128.82H285.984V142.496H300.024V128.82H310.32Z" fill="white"></path><path d="M346.806 157.264V165.22H317.582V128.82H346.13V136.776H327.774V142.912H343.946V150.608H327.774V157.264H346.806Z" fill="white"></path><path d="M385.384 165.22L385.28 145.928L375.92 161.632H371.344L362.036 146.448V165.22H352.52V128.82H360.996L373.788 149.828L386.268 128.82H394.744L394.848 165.22H385.384Z" fill="white"></path><path d="M431.357 157.264V165.22H402.133V128.82H430.681V136.776H412.325V142.912H428.497V150.608H412.325V157.264H431.357Z" fill="white"></path><path d="M449.863 165.948C446.916 165.948 444.056 165.584 441.283 164.856C438.509 164.128 436.256 163.157 434.523 161.944L437.903 154.352C439.532 155.427 441.421 156.293 443.571 156.952C445.72 157.611 447.835 157.94 449.915 157.94C453.867 157.94 455.843 156.952 455.843 154.976C455.843 153.936 455.271 153.173 454.127 152.688C453.017 152.168 451.215 151.631 448.719 151.076C445.98 150.487 443.692 149.863 441.855 149.204C440.017 148.511 438.44 147.419 437.123 145.928C435.805 144.437 435.147 142.427 435.147 139.896C435.147 137.677 435.753 135.684 436.967 133.916C438.18 132.113 439.983 130.692 442.375 129.652C444.801 128.612 447.765 128.092 451.267 128.092C453.659 128.092 456.016 128.369 458.339 128.924C460.661 129.444 462.707 130.224 464.475 131.264L461.303 138.908C457.836 137.036 454.473 136.1 451.215 136.1C449.169 136.1 447.679 136.412 446.743 137.036C445.807 137.625 445.339 138.405 445.339 139.376C445.339 140.347 445.893 141.075 447.003 141.56C448.112 142.045 449.897 142.548 452.359 143.068C455.132 143.657 457.42 144.299 459.223 144.992C461.06 145.651 462.637 146.725 463.955 148.216C465.307 149.672 465.983 151.665 465.983 154.196C465.983 156.38 465.376 158.356 464.163 160.124C462.949 161.892 461.129 163.313 458.703 164.388C456.276 165.428 453.329 165.948 449.863 165.948Z" fill="white"></path><path d="M0 0C0 0 30 63.43 63.42 92.17C63.42 92.17 86.55 118.44 123.73 140.3C123.73 140.3 163.41 172.47 307.73 204.97C307.73 204.97 191.19 174.66 136.2 222.46C136.2 222.46 80.58 160.29 62.77 129.04C62.8 129.04 34.99 96.86 0 0Z" fill="url(#paint0_linear_58_2)"></path><path d="M0 222.46C0 222.46 30 159.04 63.42 130.29C63.42 130.29 86.55 104.02 123.73 82.16C123.73 82.16 163.41 49.99 307.73 17.5C307.73 17.5 191.19 47.8 136.2 0C136.2 0 80.58 62.18 62.77 93.42C62.8 93.42 34.99 125.6 0 222.46Z" fill="url(#paint1_linear_58_2)"></path><path d="M195.788 111.728C191.974 111.728 188.542 110.931 185.492 109.336C182.476 107.707 180.101 105.453 178.368 102.576C176.634 99.6987 175.768 96.4401 175.768 92.8001C175.768 89.1601 176.634 85.9014 178.368 83.0241C180.101 80.1467 182.476 77.9107 185.492 76.3161C188.542 74.6867 191.974 73.8721 195.788 73.8721C199.116 73.8721 202.114 74.4614 204.784 75.6401C207.453 76.8187 209.672 78.5174 211.44 80.7361L204.888 86.6641C202.53 83.8214 199.67 82.4001 196.308 82.4001C194.332 82.4001 192.564 82.8334 191.004 83.7001C189.478 84.5667 188.282 85.7974 187.416 87.3921C186.584 88.9521 186.168 90.7547 186.168 92.8001C186.168 94.8454 186.584 96.6654 187.416 98.2601C188.282 99.8201 189.478 101.033 191.004 101.9C192.564 102.767 194.332 103.2 196.308 103.2C199.67 103.2 202.53 101.779 204.888 98.9361L211.44 104.864C209.672 107.083 207.453 108.781 204.784 109.96C202.114 111.139 199.116 111.728 195.788 111.728Z" fill="white"></path><path d="M233.624 111.728C229.776 111.728 226.31 110.913 223.224 109.284C220.174 107.655 217.764 105.401 215.996 102.524C214.263 99.6467 213.396 96.4054 213.396 92.8001C213.396 89.1947 214.263 85.9534 215.996 83.0761C217.764 80.1987 220.174 77.9454 223.224 76.3161C226.31 74.6867 229.776 73.8721 233.624 73.8721C237.472 73.8721 240.922 74.6867 243.972 76.3161C247.058 77.9454 249.467 80.1987 251.2 83.0761C252.968 85.9534 253.852 89.1947 253.852 92.8001C253.852 96.4054 252.968 99.6467 251.2 102.524C249.467 105.401 247.058 107.655 243.972 109.284C240.922 110.913 237.472 111.728 233.624 111.728ZM233.624 103.2C235.462 103.2 237.126 102.767 238.616 101.9C240.107 101.033 241.286 99.8201 242.152 98.2601C243.019 96.6654 243.452 94.8454 243.452 92.8001C243.452 90.7547 243.019 88.9521 242.152 87.3921C241.286 85.7974 240.107 84.5667 238.616 83.7001C237.126 82.8334 235.462 82.4001 233.624 82.4001C231.787 82.4001 230.123 82.8334 228.632 83.7001C227.142 84.5667 225.963 85.7974 225.096 87.3921C224.23 88.9521 223.796 90.7547 223.796 92.8001C223.796 94.8454 224.23 96.6654 225.096 98.2601C225.963 99.8201 227.142 101.033 228.632 101.9C230.123 102.767 231.787 103.2 233.624 103.2Z" fill="white"></path><path d="M259.245 74.6001H276.457C280.444 74.6001 283.98 75.3454 287.065 76.8361C290.15 78.3267 292.542 80.4414 294.241 83.1801C295.94 85.9187 296.789 89.1254 296.789 92.8001C296.789 96.4747 295.94 99.6814 294.241 102.42C292.542 105.159 290.15 107.273 287.065 108.764C283.98 110.255 280.444 111 276.457 111H259.245V74.6001ZM276.041 102.784C279.161 102.784 281.657 101.9 283.529 100.132C285.436 98.3641 286.389 95.9201 286.389 92.8001C286.389 89.6801 285.436 87.2361 283.529 85.4681C281.657 83.7001 279.161 82.8161 276.041 82.8161H269.541V102.784H276.041Z" fill="white"></path><path d="M331.43 103.044V111H302.206V74.6001H330.754V82.5561H312.398V88.6921H328.57V96.3881H312.398V103.044H331.43Z" fill="white"></path><defs><linearGradient id="paint0_linear_58_2" x1="0" y1="111.23" x2="307.76" y2="111.23" gradientUnits="userSpaceOnUse"><stop stop-color="#32AE8A"></stop><stop offset="0.25" stop-color="#3AAF86"></stop><stop offset="0.4" stop-color="#41B082"></stop><stop offset="0.58" stop-color="#7DBF43"></stop></linearGradient><linearGradient id="paint1_linear_58_2" x1="0" y1="111.23" x2="307.76" y2="111.23" gradientUnits="userSpaceOnUse"><stop stop-color="#32AE8A"></stop><stop offset="0.25" stop-color="#3AAF86"></stop><stop offset="0.4" stop-color="#41B082"></stop><stop offset="0.58" stop-color="#7DBF43"></stop></linearGradient></defs></svg>