<svg xmlns="http://www.w3.org/2000/svg" xmlns:xlink="http://www.w3.org/1999/xlink" width="52.762" height="56.677" viewBox="0 0 52.762 56.677"><defs><linearGradient id="linear-gradient" x1="0.163" y1="0.238" x2="1" y2="1" gradientUnits="objectBoundingBox"><stop offset="0" stop-color="#3cd89d"/><stop offset="1" stop-color="#82c444"/></linearGradient></defs><g id="Group_8294" data-name="Group 8294" transform="translate(-812.836 -891.336)"><circle id="Ellipse_23" data-name="Ellipse 23" cx="19.018" cy="19.018" r="19.018" transform="translate(827.562 909.978)" fill="#3cd89d" opacity="0.2"/><g id="Out_line" data-name="Out line" transform="translate(812.836 891.336)"><path id="Path_6948" data-name="Path 6948" d="M88.54,34.967l3.21,3.21a2.644,2.644,0,0,0,3.735,0l8.885-8.885a.846.846,0,0,0,0-1.2L92.523,16.248a.847.847,0,0,0-1.2,0l-6.171,6.171-3.21-3.21a2.645,2.645,0,0,0-3.735,0L69.923,27.5l-1.94-1.94a.847.847,0,0,0-1.2,0l-2.539,2.539a.846.846,0,0,0,0,1.2L80.573,45.617l-1.094,1.094a.846.846,0,0,0-.248.6v4.727l-.846.846-.248-.248a.847.847,0,0,0-1.2,0L64.247,65.328l1.2,1.2L77.539,54.43l8.112,8.112-2.787,2.786,1.2,1.2,3.385-3.385a.846.846,0,0,0,0-1.2l-1.094-1.094,4.727-4.727,7.864,7.864a.846.846,0,0,0,1.2,0l2.539-2.539a.846.846,0,0,0,0-1.2l-7.864-7.864,1.094-1.094a.846.846,0,0,0,0-1.2l-6.77-6.77a.847.847,0,0,0-1.2,0l-.074.074A4.4,4.4,0,0,0,86.6,40.788a.847.847,0,0,0-1.2,0l-1.094,1.094L82.967,40.54ZM92.6,33.595l-.846.846a2.627,2.627,0,0,0-.546.8L89.736,33.77l1.517-1.517A.949.949,0,0,1,92.6,33.595Zm-.671-15.552,10.65,10.65L94.288,36.98a.949.949,0,1,1-1.342-1.342l.846-.846a2.642,2.642,0,0,0,0-3.735l-7.441-7.441ZM79.407,20.406a.95.95,0,0,1,1.342,0l10.1,10.1a2.63,2.63,0,0,0-.8.546L79.231,41.882l-10.65-10.65ZM67.384,27.351l1.342,1.342-1.342,1.342-1.342-1.342Zm33.5,33.5L99.54,62.191l-7.265-7.265,1.342-1.342ZM88.54,45.121l5.573,5.573-3.034,3.034-5.573-5.573L86.6,47.062h0l0,0Zm-2.632-2.445a2.748,2.748,0,0,1-.5,3.189L83.71,47.557a.846.846,0,0,0,0,1.2,3.945,3.945,0,0,1,0,5.573l1.2,1.2A5.614,5.614,0,0,0,86.553,51.6l3.329,3.329-4.727,4.727-5.573-5.573,1.094-1.094a.846.846,0,0,0,.248-.6V47.66Zm-2.8.4L81.77,44.42l-1.342-1.342,1.342-1.342Z" transform="translate(-64 -16)" fill="url(#linear-gradient)"/></g></g></svg>