<svg xmlns="http://www.w3.org/2000/svg" xmlns:xlink="http://www.w3.org/1999/xlink" width="49.762" height="55.677" viewBox="0 0 49.762 55.677"><defs><linearGradient id="linear-gradient" x1="0.163" y1="0.238" x2="1" y2="1" gradientUnits="objectBoundingBox"><stop offset="0" stop-color="#3cd89d"/><stop offset="1" stop-color="#82c444"/></linearGradient></defs><g id="our_vision" data-name="our vision" transform="translate(-815.836 -892.336)"><circle id="Ellipse_23" data-name="Ellipse 23" cx="19.018" cy="19.018" r="19.018" transform="translate(827.562 909.978)" fill="#3cd89d" opacity="0.2"/><g id="_3775630" data-name="3775630" transform="translate(810.384 891.336)"><path id="Path_6949" data-name="Path 6949" d="M38.822,12.02A15.821,15.821,0,0,0,17.133,35.046a5.37,5.37,0,0,1,1.649,3.815v3.166a4.753,4.753,0,0,0,3.2,4.482c.3,2.809,3.015,5.014,6.3,5.014s6-2.206,6.3-5.014a4.752,4.752,0,0,0,3.2-4.482V38.861a5.332,5.332,0,0,1,1.631-3.8,15.806,15.806,0,0,0-.585-23.043ZM20.365,40.444H36.193v1.583H20.365Zm7.914,9.5a4.618,4.618,0,0,1-4.637-3.166h9.29a4.627,4.627,0,0,1-4.653,3.166Zm4.748-4.748h-9.5a3.155,3.155,0,0,1-2.726-1.583H35.756a3.155,3.155,0,0,1-2.729,1.583Zm5.267-11.255a6.9,6.9,0,0,0-2.1,4.924H20.365a6.938,6.938,0,0,0-2.118-4.939A14.235,14.235,0,0,1,26.621,9.674,15.023,15.023,0,0,1,28.3,9.58,14.08,14.08,0,0,1,37.767,13.2a14.224,14.224,0,0,1,.527,20.734Z" transform="translate(-1.46 -1.458)" fill="url(#linear-gradient)"/><path id="Path_6950" data-name="Path 6950" d="M41.471,23.706l-3.376-2.624a14.633,14.633,0,0,0-17.964,0l-3.373,2.624a.791.791,0,0,0,0,1.25l3.373,2.624a14.633,14.633,0,0,0,17.964,0l3.374-2.624a.791.791,0,0,0,0-1.25Zm-7.608.625a4.748,4.748,0,1,1-4.748-4.748,4.748,4.748,0,0,1,4.748,4.748Zm-15.33,0,2.571-2a12.979,12.979,0,0,1,2.874-1.687,6.286,6.286,0,0,0,0,7.374A12.979,12.979,0,0,1,21.1,26.331Zm18.592,2a12.992,12.992,0,0,1-2.874,1.687,6.286,6.286,0,0,0,0-7.374,12.992,12.992,0,0,1,2.874,1.687l2.571,2Z" transform="translate(-2.295 -3.547)" fill="url(#linear-gradient)"/><path id="Path_6951" data-name="Path 6951" d="M31.409,28.914a3.957,3.957,0,1,0-3.957-3.957,3.957,3.957,0,0,0,3.957,3.957Zm1.583-5.54a.791.791,0,1,1-1.065-.73,2.346,2.346,0,0,1,1.019.518.776.776,0,0,1,.047.212Zm-3.149-.188c-.006.063-.017.123-.017.188a2.363,2.363,0,0,0,3.938,1.773,2.368,2.368,0,1,1-3.921-1.96Z" transform="translate(-4.59 -4.172)" fill="url(#linear-gradient)"/><path id="Path_6952" data-name="Path 6952" d="M31.452,1h1.583V4.957H31.452Z" transform="translate(-5.424)" fill="url(#linear-gradient)"/><path id="Path_6953" data-name="Path 6953" d="M54.452,26h3.957v1.583H54.452Z" transform="translate(-10.222 -5.216)" fill="url(#linear-gradient)"/><path id="Path_6954" data-name="Path 6954" d="M5.452,26H9.409v1.583H5.452Z" transform="translate(0 -5.216)" fill="url(#linear-gradient)"/><path id="Path_6955" data-name="Path 6955" d="M0,0H5.6V1.583H0Z" transform="translate(38.917 9.149) rotate(-45)" fill="url(#linear-gradient)"/><path id="Path_6956" data-name="Path 6956" d="M0,0H1.583V5.6H0Z" transform="translate(9.639 6.308) rotate(-45)" fill="url(#linear-gradient)"/><path id="Path_6957" data-name="Path 6957" d="M0,0H1.583V5.6H0Z" transform="translate(40.496 33.215) rotate(-45)" fill="url(#linear-gradient)"/><path id="Path_6958" data-name="Path 6958" d="M0,0H5.6V1.583H0Z" transform="translate(8.053 36.05) rotate(-45)" fill="url(#linear-gradient)"/></g></g></svg>