<svg xmlns="http://www.w3.org/2000/svg" xmlns:xlink="http://www.w3.org/1999/xlink" width="644.068" height="626.708" viewBox="0 0 644.068 626.708"><defs><linearGradient id="linear-gradient" x1="0.964" y1="0.802" x2="0.498" y2="0.053" gradientUnits="objectBoundingBox"><stop offset="0" stop-color="#3cd89d"/><stop offset="1" stop-color="#82c444"/></linearGradient><linearGradient id="linear-gradient-2" x1="-0.072" y1="-0.032" x2="1" y2="1" xlink:href="#linear-gradient"/></defs><g id="Hero_sec_antataitech" data-name="Hero sec antataitech" transform="translate(0)"><path id="Oval" d="M198.979,27.6c6.2,86.744,105.848,72.815,105.848,156.154S234.238,313.09,150.9,313.09A150.9,150.9,0,0,1,0,162.191C0,78.852,192.778-59.141,198.979,27.6Z" transform="translate(318.143 41.499) rotate(-4)" fill="url(#linear-gradient)"/><g id="Oval-2" data-name="Oval" transform="matrix(-0.375, -0.927, 0.927, -0.375, 318.661, 406.511)" fill="none"><path d="M158.648,0A158.639,158.639,0,0,1,317.288,158.639c0,87.614-1,181.387-161.118,123.166S.009,246.254.009,158.639A158.639,158.639,0,0,1,158.648,0Z" stroke="none"/><path d="M 158.6482849121094 2 C 148.0191802978516 2 137.3973693847656 3.07073974609375 127.0778198242188 5.182373046875 C 117.0215911865234 7.24017333984375 107.1299591064453 10.31072998046875 97.677734375 14.30868530273438 C 88.39663696289062 18.23428344726562 79.44482421875 23.0931396484375 71.071044921875 28.7503662109375 C 62.77627563476562 34.35418701171875 54.9761962890625 40.78985595703125 47.88742065429688 47.87863159179688 C 40.79867553710938 54.96737670898438 34.36300659179688 62.7674560546875 28.7591552734375 71.06222534179688 C 23.1019287109375 79.43603515625 18.2430419921875 88.3878173828125 14.31747436523438 97.66891479492188 C 10.31951904296875 107.1211853027344 7.24896240234375 117.0127716064453 5.191192626953125 127.0690002441406 C 3.079498291015625 137.3885498046875 2.0087890625 148.0103607177734 2.0087890625 158.6394500732422 C 2.0087890625 160.7648162841797 2.0064697265625 162.8277282714844 2.004180908203125 164.8226776123047 C 1.985870361328125 181.0611419677734 1.97265625 192.7936401367188 3.191131591796875 202.1087341308594 C 3.808502197265625 206.8279571533203 4.733245849609375 210.7308654785156 6.018218994140625 214.0404663085938 C 7.34295654296875 217.4522705078125 9.1063232421875 220.3844604492188 11.40914916992188 223.0045471191406 C 21.00787353515625 233.9258117675781 40.81942749023438 240.4853668212891 80.28936767578125 253.5536804199219 C 100.4055938720703 260.214111328125 125.44091796875 268.503173828125 156.8533630371094 279.9254455566406 C 173.6138610839844 286.0199584960938 189.1559143066406 290.6151428222656 203.0478210449219 293.5834045410156 C 216.3042755126953 296.4159240722656 228.4576416015625 297.8520812988281 239.17041015625 297.8520812988281 C 248.4037780761719 297.8520812988281 256.8346557617188 296.7845153808594 264.2289123535156 294.6790466308594 C 267.7734985351562 293.6697387695312 271.1602172851562 292.3993530273438 274.2949523925781 290.9033203125 C 277.3385620117188 289.4507751464844 280.2345886230469 287.7424011230469 282.9026794433594 285.8257446289062 C 288.002685546875 282.1619567871094 292.51171875 277.557861328125 296.304443359375 272.1414184570312 C 299.8656005859375 267.0556945800781 302.93017578125 261.0599975585938 305.4130859375 254.3208312988281 C 307.7383117675781 248.0097351074219 309.5780029296875 241.0857238769531 311.0372314453125 233.1532745361328 C 312.3432922363281 226.0536804199219 313.3076782226562 218.328857421875 313.985595703125 209.5374603271484 C 315.2877197265625 192.6504974365234 315.2877197265625 174.5814514160156 315.2877197265625 158.6394500732422 C 315.2877197265625 148.0103607177734 314.2170104980469 137.3885498046875 312.1053161621094 127.0690002441406 C 310.0475463867188 117.0127716064453 306.9769897460938 107.1211853027344 302.9790649414062 97.66891479492188 C 299.053466796875 88.3878173828125 294.194580078125 79.43603515625 288.537353515625 71.06222534179688 C 282.9335021972656 62.7674560546875 276.4978637695312 54.96737670898438 269.4090881347656 47.87863159179688 C 262.3203125 40.78985595703125 254.5202331542969 34.35418701171875 246.2254943847656 28.7503662109375 C 237.8516845703125 23.0931396484375 228.8999176025391 18.23428344726562 219.6188201904297 14.30868530273438 C 210.1665496826172 10.31072998046875 200.2749176025391 7.24017333984375 190.2186889648438 5.182373046875 C 179.8991851806641 3.07073974609375 169.2773742675781 2 158.6482849121094 2 M 158.6482849121094 0 C 246.2624206542969 0 317.2877197265625 71.0252685546875 317.2877197265625 158.6394500732422 C 317.2877197265625 227.3500671386719 316.6656494140625 299.8521118164062 239.17041015625 299.8521118164062 C 217.8500061035156 299.8521118164062 190.7163391113281 294.3668823242188 156.1699066162109 281.8050537109375 C -3.94580078125 223.58349609375 0.0087890625 246.2536315917969 0.0087890625 158.6394500732422 C 0.0087890625 71.0252685546875 71.03410339355469 0 158.6482849121094 0 Z" stroke="none" fill="#727272"/></g><g id="Oval-3" data-name="Oval" transform="translate(30.205 321.31)" fill="none" opacity="0.5"><path d="M140.9,0a136.918,136.918,0,0,1,0,273.835c-75.618,0-30.968-79.612-136.918-136.918S65.284,0,140.9,0Z" stroke="none"/><path d="M 140.9014739990234 1.999969482421875 C 127.6067810058594 1.999969482421875 111.1175765991211 4.50042724609375 93.21657562255859 9.23101806640625 C 75.36067962646484 13.94973754882812 57.07977294921875 20.62652587890625 40.35008239746094 28.5396728515625 C 31.68727111816406 32.63713073730469 23.55577087402344 37.01492309570312 16.18142700195312 41.55142211914062 C 8.481369018554688 46.28826904296875 1.6102294921875 51.19767761230469 -4.241226196289062 56.14328002929688 C -10.37551879882812 61.32797241210938 -15.42286682128906 66.58267211914062 -19.24302673339844 71.76152038574219 C -23.23112487792969 77.16802978515625 -25.92127990722656 82.54843139648438 -27.23867797851562 87.75332641601562 C -28.25712585449219 91.77713012695312 -28.46942138671875 95.77102661132812 -27.86962890625 99.62406921386719 C -27.24166870117188 103.6579742431641 -25.70556640625 107.6534271240234 -23.30397033691406 111.4994812011719 C -18.05767822265625 119.901123046875 -8.556625366210938 127.8611755371094 4.935226440429688 135.1585693359375 C 59.52713012695312 164.6857757568359 74.37648010253906 199.5760192871094 86.30812835693359 227.6108245849609 C 91.82227325439453 240.5670776367188 96.58452606201172 251.7564697265625 104.3837738037109 259.5571899414062 C 108.4372787475586 263.6113891601562 113.1145248413086 266.5525207519531 118.6828308105469 268.5487365722656 C 124.8520278930664 270.7603149414062 132.1198272705078 271.8354187011719 140.9014739990234 271.8354187011719 C 150.0567779541016 271.8354187011719 159.2057189941406 270.9131774902344 168.0942230224609 269.0943298339844 C 176.7557830810547 267.3219299316406 185.2755737304688 264.6772155761719 193.4169311523438 261.2337646484375 C 201.4109191894531 257.8525695800781 209.1212768554688 253.6675262451172 216.3338317871094 248.7947692871094 C 223.4783782958984 243.968017578125 230.1968688964844 238.4247741699219 236.3026733398438 232.3189697265625 C 242.4084777832031 226.2131652832031 247.9517211914062 219.4946746826172 252.7784729003906 212.3501281738281 C 257.6512451171875 205.1375732421875 261.8362731933594 197.4271850585938 265.2174682617188 189.4331665039062 C 268.6609191894531 181.2918243408203 271.3056335449219 172.7720336914062 273.0780334472656 164.1104736328125 C 274.8968811035156 155.2219848632812 275.8191223144531 146.0730285644531 275.8191223144531 136.917724609375 C 275.8191223144531 127.7624206542969 274.8968811035156 118.6134796142578 273.0780334472656 109.7249755859375 C 271.3056335449219 101.0634307861328 268.6609191894531 92.54362487792969 265.2174682617188 84.40226745605469 C 261.8362731933594 76.40827941894531 257.6512451171875 68.69792175292969 252.7784729003906 61.48532104492188 C 247.9517211914062 54.34077453613281 242.4084777832031 47.62226867675781 236.3026733398438 41.5164794921875 C 230.1968688964844 35.41067504882812 223.4783782958984 29.867431640625 216.3338317871094 25.04061889648438 C 209.1212768554688 20.16792297363281 201.4109191894531 15.98281860351562 193.4169311523438 12.6016845703125 C 185.2755737304688 9.158172607421875 176.7557830810547 6.51348876953125 168.0942230224609 4.7410888671875 C 159.2057189941406 2.922210693359375 150.0567779541016 1.999969482421875 140.9014739990234 1.999969482421875 M 140.9014739990234 -3.0517578125e-05 C 216.5190277099609 -3.0517578125e-05 277.8191223144531 61.3001708984375 277.8191223144531 136.917724609375 C 277.8191223144531 212.5353240966797 216.5190277099609 273.8354187011719 140.9014739990234 273.8354187011719 C 65.28387451171875 273.8354187011719 109.9338226318359 194.2231140136719 3.983718872070312 136.917724609375 C -101.9663696289062 79.61231994628906 65.28387451171875 -3.0517578125e-05 140.9014739990234 -3.0517578125e-05 Z" stroke="none" fill="#333"/></g><circle id="Oval-4" data-name="Oval" cx="6.652" cy="6.652" r="6.652" transform="translate(65.498 477.548)" fill="url(#linear-gradient-2)"/><circle id="Oval-5" data-name="Oval" cx="4.71" cy="4.71" r="4.71" transform="translate(372.355 36.255)" fill="url(#linear-gradient)"/><g id="Group_8174" data-name="Group 8174" transform="translate(381.612 108.238)"><g id="Group_8174-2" data-name="Group 8174" transform="translate(213.729 34.243)"><path id="Path_6704" data-name="Path 6704" d="M216.654,57.786a2.926,2.926,0,1,1-2.925,2.926A2.925,2.925,0,0,1,216.654,57.786Z" transform="translate(-213.729 -29.839)" fill="none" stroke="#1e1e1e" stroke-miterlimit="10" stroke-width="1"/><path id="Path_6705" data-name="Path 6705" d="M216.654,46.015a2.926,2.926,0,1,1-2.925,2.925A2.925,2.925,0,0,1,216.654,46.015Z" transform="translate(-213.729 -32.041)" fill="none" stroke="#1e1e1e" stroke-miterlimit="10" stroke-width="1"/><path id="Path_6706" data-name="Path 6706" d="M216.654,34.243a2.926,2.926,0,1,1-2.925,2.926A2.926,2.926,0,0,1,216.654,34.243Z" transform="translate(-213.729 -34.243)" fill="none" stroke="#1e1e1e" stroke-miterlimit="10" stroke-width="1"/></g><g id="Group_8175" data-name="Group 8175" transform="translate(227.702 34.243)"><circle id="Ellipse_15" data-name="Ellipse 15" cx="2.926" cy="2.926" r="2.926" transform="translate(0 27.947)" fill="none" stroke="#1e1e1e" stroke-miterlimit="10" stroke-width="1"/><path id="Path_6707" data-name="Path 6707" d="M228.425,46.015A2.926,2.926,0,1,1,225.5,48.94,2.925,2.925,0,0,1,228.425,46.015Z" transform="translate(-225.5 -32.041)" fill="none" stroke="#1e1e1e" stroke-miterlimit="10" stroke-width="1"/><path id="Path_6708" data-name="Path 6708" d="M228.425,34.243a2.926,2.926,0,1,1-2.925,2.926A2.926,2.926,0,0,1,228.425,34.243Z" transform="translate(-225.5 -34.243)" fill="none" stroke="#1e1e1e" stroke-miterlimit="10" stroke-width="1"/></g><g id="Group_8176" data-name="Group 8176" transform="translate(241.675 34.243)"><circle id="Ellipse_16" data-name="Ellipse 16" cx="2.926" cy="2.926" r="2.926" transform="translate(0 27.947)" fill="none" stroke="#1e1e1e" stroke-miterlimit="10" stroke-width="1"/><path id="Path_6709" data-name="Path 6709" d="M240.2,46.015a2.926,2.926,0,1,1-2.926,2.925A2.925,2.925,0,0,1,240.2,46.015Z" transform="translate(-237.271 -32.041)" fill="none" stroke="#1e1e1e" stroke-miterlimit="10" stroke-width="1"/><path id="Path_6710" data-name="Path 6710" d="M240.2,34.243a2.926,2.926,0,1,1-2.926,2.926A2.926,2.926,0,0,1,240.2,34.243Z" transform="translate(-237.271 -34.243)" fill="none" stroke="#1e1e1e" stroke-miterlimit="10" stroke-width="1"/></g></g><g id="Group_8177" data-name="Group 8177" transform="translate(40.628 123.855)"><g id="Group_8177-2" data-name="Group 8177" transform="translate(-16.508 272.633)"><rect id="Rectangle_1117" data-name="Rectangle 1117" width="14.441" height="4.081" transform="translate(2.886 0) rotate(45.001)" fill="#3cd89d"/><rect id="Rectangle_1118" data-name="Rectangle 1118" width="14.441" height="4.081" transform="translate(0 10.211) rotate(-45)" fill="#3cd89d"/></g><g id="Group_8180" data-name="Group 8180" transform="translate(215.368 493.509)"><rect id="Rectangle_1117-2" data-name="Rectangle 1117" width="10.303" height="2.912" transform="translate(2.059 0) rotate(45.001)" fill="#82c444"/><rect id="Rectangle_1118-2" data-name="Rectangle 1118" width="10.303" height="2.912" transform="translate(0 7.286) rotate(-45)" fill="#82c444"/></g><path id="Path_6711" data-name="Path 6711" d="M48.4,440.4A2.394,2.394,0,1,1,46,438.007,2.394,2.394,0,0,1,48.4,440.4Z" transform="translate(-43.682 -50.92)" fill="#1e1e1e"/><path id="Path_6712" data-name="Path 6712" d="M48.4,440.4A2.394,2.394,0,1,1,46,438.007,2.394,2.394,0,0,1,48.4,440.4Z" transform="translate(227.318 44.08)" fill="#1e1e1e"/></g><g id="Group_8178" data-name="Group 8178" transform="translate(605.822 120.825)"><rect id="Rectangle_1119" data-name="Rectangle 1119" width="8.013" height="2.265" transform="translate(1.601 0) rotate(45)" fill="#3cd89d"/><rect id="Rectangle_1120" data-name="Rectangle 1120" width="8.013" height="2.265" transform="translate(0 5.666) rotate(-45)" fill="#3cd89d"/></g></g></svg>