<svg xmlns="http://www.w3.org/2000/svg" xmlns:xlink="http://www.w3.org/1999/xlink" width="591.539" height="317.491" viewBox="0 0 591.539 317.491"><defs><linearGradient id="linear-gradient" x1="0.5" x2="0.5" y2="1" gradientUnits="objectBoundingBox"><stop offset="0" stop-color="#82c444"/><stop offset="1" stop-color="#3cd89d" stop-opacity="0"/></linearGradient></defs><g id="Group_85631" data-name="Group 85631" transform="translate(-78.302 -89.52)"><g id="graph" transform="translate(78.802 90.02)"><rect id="Rectangle" width="100.105" height="101.694" rx="15" fill="#fff" stroke="#c5c5c5" stroke-width="1"/><g id="Oval" transform="translate(17.479 18.273)" fill="none" stroke="#3cd89d" stroke-miterlimit="10" stroke-width="8" opacity="0.1"><circle cx="32.574" cy="32.574" r="32.574" stroke="none"/><circle cx="32.574" cy="32.574" r="28.574" fill="none"/></g><g id="Oval-2" data-name="Oval" transform="translate(17.479 18.273)" fill="none" stroke="#3cd89d" stroke-miterlimit="10" stroke-width="8" stroke-dasharray="150 9999"><circle cx="32.574" cy="32.574" r="32.574" stroke="none"/><circle cx="32.574" cy="32.574" r="28.574" fill="none"/></g><g id="Oval-3" data-name="Oval" transform="translate(34.163 34.957)" fill="none" stroke="#82c444" stroke-miterlimit="10" stroke-width="8" opacity="0.2"><circle cx="16.287" cy="16.287" r="16.287" stroke="none"/><circle cx="16.287" cy="16.287" r="12.287" fill="none"/></g><g id="Oval-4" data-name="Oval" transform="translate(34.163 34.957)" fill="none" stroke="#82c444" stroke-miterlimit="10" stroke-width="8" stroke-dasharray="80 4999.5"><circle cx="16.287" cy="16.287" r="16.287" stroke="none"/><circle cx="16.287" cy="16.287" r="12.287" fill="none"/></g></g><g id="graph-2" data-name="graph" transform="translate(577.143 312.849)"><rect id="Rectangle-2" data-name="Rectangle" width="92.198" height="93.662" rx="15" fill="#fff" stroke="#c5c5c5" stroke-width="1"/><path id="Path_2" data-name="Path 2" d="M0,21.053l6.957-1.575,2.609-5.754,3.013,3.223,6.562-4.876,4.688-7.72,3.229.246L30.145,0l9.822,9.074,2.926,9.546,7.3-6.025,2.322,5.47,2.248-3.443,2.433-1.633L60,25.4v13.64H0Z" transform="translate(16.101 19.812)" opacity="0.5" fill="url(#linear-gradient)"/><path id="Path_2-2" data-name="Path 2" d="M0,21.053l6.957-1.575,2.609-5.754,3.013,3.223,6.562-4.876,4.688-7.72,3.229.246L30.145,0l9.822,9.074,2.926,9.546,7.3-6.025,2.322,5.47,2.248-3.443,2.433-1.633L60,25.4" transform="translate(16.101 19.264)" fill="none" stroke="#82c444" stroke-linecap="round" stroke-miterlimit="10" stroke-width="2"/><rect id="Rectangle-3" data-name="Rectangle" width="23.748" height="5.428" rx="2.714" transform="translate(15.044 68.381)" fill="#3cd89d"/><rect id="Rectangle-4" data-name="Rectangle" width="40.032" height="2.714" rx="1.357" transform="translate(15.572 78.056)" fill="#82c444"/></g></g></svg>