<svg xmlns="http://www.w3.org/2000/svg" xmlns:xlink="http://www.w3.org/1999/xlink" width="109" height="109" viewBox="0 0 109 109"><defs><linearGradient id="linear-gradient" x1="0.203" y1="0.111" x2="1" y2="1" gradientUnits="objectBoundingBox"><stop offset="0" stop-color="#3cd89d"/><stop offset="1" stop-color="#82c444"/></linearGradient></defs><g id="Lanuch_Icon" data-name="Lanuch Icon" transform="translate(-325 -787)"><circle id="Ellipse_1" data-name="Ellipse 1" cx="54.5" cy="54.5" r="54.5" transform="translate(325 787)" fill="url(#linear-gradient)"/><g id="_723145" data-name="723145" transform="translate(346.207 840.645) rotate(-45)"><g id="Group_8216" data-name="Group 8216" transform="translate(5.162 1.121)"><g id="Group_8215" data-name="Group 8215" transform="translate(0 0)"><path id="Path_6752" data-name="Path 6752" d="M97.762,1.687a1.918,1.918,0,0,0-1.619-.549l-3.157.418A27.651,27.651,0,0,0,77.148,9.373l-1.814,1.814a14.737,14.737,0,0,0-12.045,4.194l-5.105,5.106a1.931,1.931,0,0,0,.933,3.247l4.01.921a3.911,3.911,0,0,0,.252,1.824l-1.841.991a1.931,1.931,0,0,0-.45,3.066l2.21,2.21a.672.672,0,1,0,.95-.95l-2.21-2.21a.587.587,0,0,1,.136-.932l1.91-1.028c.052.058,7.681,7.687,7.739,7.738l-1.029,1.912a.586.586,0,0,1-.93.136L66.249,33.8a.672.672,0,0,0-.95.95l3.615,3.615a1.91,1.91,0,0,0,1.358.566,1.977,1.977,0,0,0,.287-.021,1.912,1.912,0,0,0,1.419-.994l.993-1.845a3.9,3.9,0,0,0,1.432.273q.2,0,.39-.019l.921,4.01a1.907,1.907,0,0,0,1.349,1.424,1.97,1.97,0,0,0,.545.077,1.905,1.905,0,0,0,1.355-.568l5.105-5.106a14.73,14.73,0,0,0,4.194-12.044l1.588-1.588a.672.672,0,0,0-.95-.95L76.222,34.254a2.573,2.573,0,0,1-3.176.353,2.543,2.543,0,0,1-.442-.353S64.94,26.56,64.84,26.4a2.571,2.571,0,0,1,.355-3.174l4.486-4.486a.672.672,0,0,0-.95-.95l-4.486,4.486a3.85,3.85,0,0,0-.761,1.081l-4.066-.934a.587.587,0,0,1-.283-.987l5.105-5.106a13.391,13.391,0,0,1,9.839-3.888l-3.731,3.731a.672.672,0,0,0,.95.95l6.8-6.8A26.3,26.3,0,0,1,93.162,2.888l3.157-.418a.587.587,0,0,1,.659.659L96.56,6.287A26.129,26.129,0,0,1,90.8,19.51a.672.672,0,1,0,1.036.856,27.472,27.472,0,0,0,6.059-13.9l.418-3.157A1.916,1.916,0,0,0,97.762,1.687ZM77.172,35.2l9.834-9.834a13.387,13.387,0,0,1-3.889,9.839l-5.105,5.106a.588.588,0,0,1-.988-.284l-.934-4.068A3.852,3.852,0,0,0,77.172,35.2Z" transform="translate(-57.616 -1.121)" fill="#fff" stroke="#fff" stroke-width="0.3"/></g></g><g id="Group_8218" data-name="Group 8218" transform="translate(30.303 7.954)"><g id="Group_8217" data-name="Group 8217"><path id="Path_6753" data-name="Path 6753" d="M345.667,78.659a4.368,4.368,0,1,0,0,6.181h0A4.375,4.375,0,0,0,345.667,78.659Zm-.95,5.23a3.027,3.027,0,1,1,0-4.28A3.03,3.03,0,0,1,344.717,83.89Z" transform="translate(-338.208 -77.379)" fill="#fff"/></g></g><g id="Group_8220" data-name="Group 8220" transform="translate(2.203 34.726)"><g id="Group_8219" data-name="Group 8219"><path id="Path_6754" data-name="Path 6754" d="M34.465,376.383a.672.672,0,0,0-.95,0l-8.73,8.73a.672.672,0,0,0,.95.95l8.73-8.73A.672.672,0,0,0,34.465,376.383Z" transform="translate(-24.588 -376.186)" fill="#fff"/></g></g><g id="Group_8222" data-name="Group 8222" transform="translate(0 32.596)"><g id="Group_8221" data-name="Group 8221" transform="translate(0)"><path id="Path_6755" data-name="Path 6755" d="M9.8,352.606a.672.672,0,0,0-.95,0L.2,361.263a.672.672,0,0,0,.95.95L9.8,353.556A.672.672,0,0,0,9.8,352.606Z" transform="translate(0 -352.409)" fill="#fff"/></g></g><g id="Group_8224" data-name="Group 8224" transform="translate(4.6 36.922)"><g id="Group_8223" data-name="Group 8223"><path id="Path_6756" data-name="Path 6756" d="M61.011,400.888a.672.672,0,0,0-.95,0l-8.529,8.529a.672.672,0,0,0,.95.95l8.529-8.529A.672.672,0,0,0,61.011,400.888Z" transform="translate(-51.335 -400.691)" fill="#fff"/></g></g><g id="Group_8226" data-name="Group 8226" transform="translate(15.415 25.737)"><g id="Group_8225" data-name="Group 8225"><path id="Path_6757" data-name="Path 6757" d="M177.686,280.554l-4.5-4.5a.672.672,0,0,0-.95.95l4.5,4.5a.672.672,0,1,0,.95-.95Z" transform="translate(-172.039 -275.857)" fill="#fff"/></g></g><g id="Group_8228" data-name="Group 8228" transform="translate(16.787 24.364)"><g id="Group_8227" data-name="Group 8227"><path id="Path_6758" data-name="Path 6758" d="M189.759,261.991l-1.255-1.255a.672.672,0,0,0-.95.95l1.255,1.255a.672.672,0,0,0,.95-.95Z" transform="translate(-187.356 -260.539)" fill="#fff"/></g></g></g></g></svg>