<svg xmlns="http://www.w3.org/2000/svg" xmlns:xlink="http://www.w3.org/1999/xlink" width="109" height="109" viewBox="0 0 109 109"><defs><linearGradient id="linear-gradient" x1="0.203" y1="0.111" x2="1" y2="1" gradientUnits="objectBoundingBox"><stop offset="0" stop-color="#3cd89d"/><stop offset="1" stop-color="#82c444"/></linearGradient></defs><g id="Discover" transform="translate(-325 -788)"><circle id="Ellipse_1" data-name="Ellipse 1" cx="54.5" cy="54.5" r="54.5" transform="translate(325 788)" fill="url(#linear-gradient)"/><g id="_2196154" data-name="2196154" transform="translate(354 816.766)"><path id="Path_6735" data-name="Path 6735" d="M50.964,45.242a10.21,10.21,0,0,0-4-4.638,18.347,18.347,0,0,0-4.716-2.448,3.632,3.632,0,0,0-4.2-5.206,14.654,14.654,0,0,0-2.474-11.025V14.5a.75.75,0,1,0-1.5,0v5.627a14.793,14.793,0,0,0-1.983-1.691A14.691,14.691,0,0,0,8.981,32.12,14.784,14.784,0,0,0,9.407,34.3H4.049A2.55,2.55,0,0,1,1.5,31.757V4.282A2.55,2.55,0,0,1,4.049,1.735H31.523A2.55,2.55,0,0,1,34.07,4.282V11.5a.75.75,0,1,0,1.5,0V4.282A4.053,4.053,0,0,0,31.523.234H4.049A4.053,4.053,0,0,0,0,4.282V31.756A4.053,4.053,0,0,0,4.049,35.8H9.906A14.628,14.628,0,0,0,13.819,41.4a.751.751,0,0,0,1-1.124A13.191,13.191,0,1,1,36.22,34.153c-.049.06-.1.122-.142.186l-4.693,6.6c-.046.065-.088.13-.13.2a13.2,13.2,0,0,1-14.129.787.75.75,0,1,0-.735,1.309,14.7,14.7,0,0,0,14.328.019,3.632,3.632,0,0,0,3.618,3.431,3.674,3.674,0,0,0,.612-.052,3.607,3.607,0,0,0,2.063-1.116,18.336,18.336,0,0,0,3.859,3.652c2.369,1.685,4.23,2.257,5.666,2.257a4.561,4.561,0,0,0,3.807-1.963,4.492,4.492,0,0,0,.618-4.214Zm-16.262-.1a2.133,2.133,0,0,1-2.093-3.34l4.693-6.6a2.119,2.119,0,0,1,1.384-.867,2.162,2.162,0,0,1,.359-.03,2.134,2.134,0,0,1,1.734,3.37l-4.693,6.6a2.119,2.119,0,0,1-1.384.867Zm14.421,3.44a2.994,2.994,0,0,1-2.568,1.329,9.324,9.324,0,0,1-4.811-1.976,16.387,16.387,0,0,1-3.8-3.69l3.412-4.8a16.393,16.393,0,0,1,4.73,2.375c1.944,1.383,4.923,4.1,3.032,6.759Z" fill="#fff" stroke="#fff" stroke-width="0.3"/><path id="Path_6736" data-name="Path 6736" d="M140,216.9a10.765,10.765,0,0,0,1.79-.151,10.581,10.581,0,1,0-1.79.151Zm-7.414-15.919a9.126,9.126,0,1,1,2.147,12.726A9.121,9.121,0,0,1,132.589,200.979Z" transform="translate(-116.454 -175.858)" fill="#fff" stroke="#fff" stroke-width="0.3"/><path id="Path_6737" data-name="Path 6737" d="M214.456,237.058a2.35,2.35,0,0,0,2.348-2.348v-4.891a2.348,2.348,0,0,0-4.7,0v4.891A2.35,2.35,0,0,0,214.456,237.058Zm-.847-7.239a.847.847,0,1,1,1.693,0v4.891a.847.847,0,1,1-1.693,0Z" transform="translate(-190.884 -204.499)" fill="#fff"/><path id="Path_6738" data-name="Path 6738" d="M214.456,333.924a2.348,2.348,0,1,0-2.348-2.348A2.35,2.35,0,0,0,214.456,333.924Zm0-3.194a.847.847,0,1,1-.847.847A.848.848,0,0,1,214.456,330.73Z" transform="translate(-190.884 -296.075)" fill="#fff"/><path id="Path_6739" data-name="Path 6739" d="M43.695,32.992a.75.75,0,0,0-1.061,0l-5.391,5.391A.75.75,0,1,0,38.3,39.444l5.391-5.391A.75.75,0,0,0,43.695,32.992Z" transform="translate(-33.319 -29.282)" fill="#fff" stroke="#fff" stroke-width="0.3"/><path id="Path_6740" data-name="Path 6740" d="M56.979,42.584a.748.748,0,0,0,.531-.22l8.31-8.31a.75.75,0,0,0-1.061-1.061l-8.31,8.31a.75.75,0,0,0,.531,1.281Z" transform="translate(-50.602 -29.283)" fill="#fff" stroke="#fff" stroke-width="0.3"/><path id="Path_6741" data-name="Path 6741" d="M264.106,80.878l-5.391,5.391a.75.75,0,1,0,1.061,1.061l5.391-5.391a.75.75,0,1,0-1.061-1.061Z" transform="translate(-232.63 -72.377)" fill="#fff" stroke="#fff" stroke-width="0.3"/></g></g></svg>