<svg xmlns="http://www.w3.org/2000/svg" xmlns:xlink="http://www.w3.org/1999/xlink" width="109" height="109" viewBox="0 0 109 109"><defs><linearGradient id="linear-gradient" x1="0.203" y1="0.111" x2="1" y2="1" gradientUnits="objectBoundingBox"><stop offset="0" stop-color="#3cd89d"/><stop offset="1" stop-color="#82c444"/></linearGradient></defs><g id="Build_icon" data-name="Build icon" transform="translate(-325 -788)"><circle id="Ellipse_1" data-name="Ellipse 1" cx="54.5" cy="54.5" r="54.5" transform="translate(325 788)" fill="url(#linear-gradient)"/><g id="_681662" data-name="681662" transform="translate(356.587 818.84)"><g id="Group_8212" data-name="Group 8212" transform="translate(32.268 33.036)"><g id="Group_8211" data-name="Group 8211"><path id="Path_6750" data-name="Path 6750" d="M368.8,360.8a.673.673,0,0,0-.733.146l-7.351,7.351a.673.673,0,0,0,.476,1.148h7.351a.673.673,0,0,0,.673-.673v-7.351A.673.673,0,0,0,368.8,360.8Zm-5.984,7.3,5.054-5.054V368.1Z" transform="translate(-360.517 -360.749)" fill="#fff"/></g></g><g id="Group_8214" data-name="Group 8214" transform="translate(0 0.82)"><g id="Group_8213" data-name="Group 8213"><path id="Path_6751" data-name="Path 6751" d="M45.412,22.306a.673.673,0,0,0-.733.146l-2.015,2.015v-13.7a.673.673,0,0,0-.673-.673H36.823L38.7,8.22h0l1.808-1.808a2.051,2.051,0,0,0,0-2.9l-2.09-2.09a2.051,2.051,0,0,0-2.9,0L33.708,3.229,31.523,5.415,26.842,10.1H5.963V3.442a.673.673,0,0,0-.673-.673A5.3,5.3,0,0,0,0,8.059V36.628a.674.674,0,0,0,.016.145A5.095,5.095,0,0,0,5.1,41.481H25.649l-3.871,3.871a.673.673,0,0,0,.476,1.148h22.9a.673.673,0,0,0,.673-.673v-22.9A.673.673,0,0,0,45.412,22.306ZM36.468,2.372a.706.706,0,0,1,1,0l2.09,2.09a.706.706,0,0,1,0,1L38.224,6.793,35.135,3.7ZM34.184,4.656l3.088,3.088L36.038,8.979,32.95,5.89Zm10.3,25.829H43.241a.673.673,0,1,0,0,1.345h1.241v2.027H43.241a.673.673,0,1,0,0,1.345h1.241v2.027H43.241a.673.673,0,1,0,0,1.345h1.241V40.6H43.241a.673.673,0,1,0,0,1.345h1.241v3.208h-20.6l6.794-6.794a.673.673,0,0,0-.951-.951l-2.726,2.726H5.1a3.729,3.729,0,0,1-3.747-3.629q.006-.192.03-.38v0q.011-.089.027-.178l0-.02q.014-.079.032-.157l.01-.043q.015-.066.033-.131l.02-.071c.01-.034.02-.068.031-.1s.022-.067.034-.1.016-.047.025-.07c.016-.044.034-.088.052-.131l.015-.038c.023-.054.047-.107.072-.159l0-.007a3.96,3.96,0,0,1,2.752-2.152l.01,0c.056-.011.112-.021.168-.03l.028,0c.051-.008.1-.014.154-.02l.043-.005c.05-.005.1-.008.15-.011l.048,0q.1,0,.2-.005a.673.673,0,0,0,.673-.673V27.134a.673.673,0,1,0-1.345,0V31.38A5.254,5.254,0,0,0,1.6,32.842c-.087.085-.17.174-.251.264V8.059A3.952,3.952,0,0,1,4.618,4.172V24.443h0a.673.673,0,1,0,1.345,0h0v-13H25.5L21.778,15.16a.673.673,0,0,0,.951.951L27.6,11.244h0l4.4-4.4L35.087,9.93l-.362.362h0L21.161,23.856l-3.088-3.088,2.673-2.673a.673.673,0,0,0-.951-.951l-3.149,3.149a.675.675,0,0,0-.047.053l-.014.019c-.009.013-.019.025-.027.039l-.014.024c-.007.013-.015.025-.021.038l-.012.026c-.006.013-.012.027-.017.04l-.006.014-1.31,3.712-.893,2.531a.68.68,0,0,0-.027.1H12.02a.673.673,0,0,0,0,1.345H30.647a.673.673,0,1,0,0-1.345H17.283l4.1-1.448.01,0,.047-.02.018-.009.048-.026.015-.009c.016-.01.032-.022.047-.034l.012-.009a.676.676,0,0,0,.054-.049L35.478,11.441h5.841v14.37L31.7,35.433a.673.673,0,0,0,0,.951.688.688,0,0,0,.051.046.672.672,0,0,0,.9-.046h0L44.482,24.551ZM19.931,24.528,18,25.208,16.72,23.924,17.4,22Z" transform="translate(0 -0.82)" fill="#fff" stroke="#fff" stroke-width="0.3"/></g></g></g></g></svg>