<svg xmlns="http://www.w3.org/2000/svg" xmlns:xlink="http://www.w3.org/1999/xlink" width="109" height="109" viewBox="0 0 109 109"><defs><linearGradient id="linear-gradient" x1="0.203" y1="0.111" x2="1" y2="1" gradientUnits="objectBoundingBox"><stop offset="0" stop-color="#3cd89d"/><stop offset="1" stop-color="#82c444"/></linearGradient></defs><g id="Design_Icon" data-name="Design Icon" transform="translate(-325 -788)"><circle id="Ellipse_1" data-name="Ellipse 1" cx="54.5" cy="54.5" r="54.5" transform="translate(325 788)" fill="url(#linear-gradient)"/><g id="_1998392" data-name="1998392" transform="translate(307.254 816.52)"><path id="Path_6742" data-name="Path 6742" d="M125.791,54.8a.761.761,0,0,0-.245,1.048A14.618,14.618,0,0,1,123.735,73.6a11.53,11.53,0,0,0-3.126,8l.01,1.907a2.018,2.018,0,0,1-2.018,2.021h-.534V72.184a1.574,1.574,0,0,0-.827-1.384V68.329a7.866,7.866,0,0,1,1.937-4.106,1.161,1.161,0,0,0,.16-1.322c-.694-1.294-1.457-2.571-2.266-3.8-.884-1.338-1.846-2.648-2.86-3.892a1.436,1.436,0,0,0-2.192-.009,44.871,44.871,0,0,0-2.935,3.975c-.784,1.2-1.519,2.443-2.184,3.708a1.161,1.161,0,0,0,.216,1.367A6.169,6.169,0,0,1,109,68.339c0,.008,0,.015,0,.023V70.8a1.577,1.577,0,0,0-.827,1.386V83a.761.761,0,1,0,1.522,0V75.655h6.846v9.871h-8.877a2.022,2.022,0,0,1-2.018-2.018l-.01-1.837a11.813,11.813,0,0,0-3.172-8.115,14.614,14.614,0,0,1,10.445-24.616h.2a14.665,14.665,0,0,1,10.621,4.568.761.761,0,1,0,1.105-1.047,16.19,16.19,0,0,0-11.726-5.043l-.223,0A16.136,16.136,0,0,0,101.359,74.6a10.3,10.3,0,0,1,2.759,7.078l.01,1.837a3.547,3.547,0,0,0,2.826,3.462l-.012,2.722a.7.7,0,0,0,0,.182l-.006,1.274h0a3.4,3.4,0,0,0,3.4,3.41H115.9a3.4,3.4,0,0,0,3.395-3.38l.018-4.207a3.542,3.542,0,0,0,2.828-3.477l-.01-1.907a10.012,10.012,0,0,1,2.709-6.945,16.14,16.14,0,0,0,2-19.6.761.761,0,0,0-1.048-.245Zm-15.265,14.25h5.193v1.553h-5.193Zm-2.151-5.7c.609-1.14,1.276-2.264,1.984-3.344.627-.955,1.3-1.893,2-2.8v6.547a.761.761,0,1,0,1.522,0V57.251c.671.875,1.314,1.777,1.919,2.693.737,1.116,1.434,2.277,2.074,3.454a9.4,9.4,0,0,0-2.039,4.135h-5.394a7.678,7.678,0,0,0-2.07-4.173ZM109.7,74.133V72.184a.058.058,0,0,1,.065-.054h6.726a.054.054,0,0,1,.055.054v1.949Zm8.074,17.044a1.877,1.877,0,0,1-1.873,1.865h-5.569a1.873,1.873,0,0,1-1.873-1.881l0-.608H115.6a.761.761,0,1,0,0-1.522h-7.132l.009-1.981h9.315Z" transform="translate(-40.876 -42.605)" fill="#fff" stroke="#fff" stroke-width="0.3"/><path id="Path_6743" data-name="Path 6743" d="M249.193,2.93a.761.761,0,0,0,.761-.761V.761a.761.761,0,1,0-1.522,0V2.169A.761.761,0,0,0,249.193,2.93Z" transform="translate(-176.954)" fill="#fff"/><path id="Path_6744" data-name="Path 6744" d="M434.195,203.331h-1.364a.761.761,0,1,0,0,1.522h1.364a.761.761,0,1,0,0-1.522Z" transform="translate(-341.955 -182.696)" fill="#fff"/><path id="Path_6745" data-name="Path 6745" d="M53.617,203.331H52.253a.761.761,0,1,0,0,1.522h1.364a.761.761,0,0,0,0-1.522Z" transform="translate(0 -182.696)" fill="#fff"/><path id="Path_6746" data-name="Path 6746" d="M379.065,62.071a.759.759,0,0,0,.547-.231l.964-1a.761.761,0,0,0-1.093-1.059l-.964,1a.761.761,0,0,0,.546,1.291Z" transform="translate(-293.645 -53.509)" fill="#fff"/><path id="Path_6747" data-name="Path 6747" d="M110.374,337.531l-.964,1a.761.761,0,0,0,1.093,1.059l.964-1a.761.761,0,0,0-1.093-1.059Z" transform="translate(-51.847 -303.069)" fill="#fff"/><path id="Path_6748" data-name="Path 6748" d="M379.61,337.531a.761.761,0,0,0-1.093,1.059l.964,1a.761.761,0,0,0,1.093-1.059Z" transform="translate(-293.645 -303.068)" fill="#fff"/><path id="Path_6749" data-name="Path 6749" d="M110.374,61.839a.761.761,0,0,0,1.093-1.059l-.964-1a.761.761,0,1,0-1.093,1.059Z" transform="translate(-51.848 -53.509)" fill="#fff"/></g></g></svg>