<svg xmlns="http://www.w3.org/2000/svg" xmlns:xlink="http://www.w3.org/1999/xlink" width="14.863" height="21.615" viewBox="0 0 14.863 21.615"><defs><linearGradient id="linear-gradient" x1="-0.072" y1="-0.032" x2="1" y2="1" gradientUnits="objectBoundingBox"><stop offset="0" stop-color="#3cd89d"/><stop offset="1" stop-color="#82c444"/></linearGradient></defs><path id="Location" d="M93.8,3.7A7.335,7.335,0,0,0,87.565,0c-.111,0-.222,0-.333,0A7.335,7.335,0,0,0,81,3.7a7.525,7.525,0,0,0-.1,7.435l5.36,9.81.007.013a1.3,1.3,0,0,0,2.26,0l.007-.013,5.36-9.81A7.525,7.525,0,0,0,93.8,3.7ZM87.4,9.794a3.04,3.04,0,1,1,3.04-3.04A3.043,3.043,0,0,1,87.4,9.794Z" transform="translate(-79.968 0)" fill="url(#linear-gradient)"/></svg>