<svg xmlns="http://www.w3.org/2000/svg" width="3000" height="1496" viewBox="0 0 3000 1496" fill="none"><path d="M1610.96 664.9C1585.29 664.9 1562.19 659.533 1541.66 648.8C1521.36 637.833 1505.38 622.667 1493.71 603.3C1482.04 583.933 1476.21 562 1476.21 537.5C1476.21 513 1482.04 491.067 1493.71 471.7C1505.38 452.333 1521.36 437.283 1541.66 426.55C1562.19 415.583 1585.29 410.1 1610.96 410.1C1633.36 410.1 1653.54 414.067 1671.51 422C1689.48 429.933 1704.41 441.367 1716.31 456.3L1672.21 496.2C1656.34 477.067 1637.09 467.5 1614.46 467.5C1601.16 467.5 1589.26 470.417 1578.76 476.25C1568.49 482.083 1560.44 490.367 1554.61 501.1C1549.01 511.6 1546.21 523.733 1546.21 537.5C1546.21 551.267 1549.01 563.517 1554.61 574.25C1560.44 584.75 1568.49 592.917 1578.76 598.75C1589.26 604.583 1601.16 607.5 1614.46 607.5C1637.09 607.5 1656.34 597.933 1672.21 578.8L1716.31 618.7C1704.41 633.633 1689.48 645.067 1671.51 653C1653.54 660.933 1633.36 664.9 1610.96 664.9ZM1865.63 664.9C1839.73 664.9 1816.4 659.417 1795.63 648.45C1775.1 637.483 1758.88 622.317 1746.98 602.95C1735.31 583.583 1729.48 561.767 1729.48 537.5C1729.48 513.233 1735.31 491.417 1746.98 472.05C1758.88 452.683 1775.1 437.517 1795.63 426.55C1816.4 415.583 1839.73 410.1 1865.63 410.1C1891.53 410.1 1914.75 415.583 1935.28 426.55C1956.05 437.517 1972.26 452.683 1983.93 472.05C1995.83 491.417 2001.78 513.233 2001.78 537.5C2001.78 561.767 1995.83 583.583 1983.93 602.95C1972.26 622.317 1956.05 637.483 1935.28 648.45C1914.75 659.417 1891.53 664.9 1865.63 664.9ZM1865.63 607.5C1878 607.5 1889.2 604.583 1899.23 598.75C1909.26 592.917 1917.2 584.75 1923.03 574.25C1928.86 563.517 1931.78 551.267 1931.78 537.5C1931.78 523.733 1928.86 511.6 1923.03 501.1C1917.2 490.367 1909.26 482.083 1899.23 476.25C1889.2 470.417 1878 467.5 1865.63 467.5C1853.26 467.5 1842.06 470.417 1832.03 476.25C1822 482.083 1814.06 490.367 1808.23 501.1C1802.4 511.6 1799.48 523.733 1799.48 537.5C1799.48 551.267 1802.4 563.517 1808.23 574.25C1814.06 584.75 1822 592.917 1832.03 598.75C1842.06 604.583 1853.26 607.5 1865.63 607.5ZM2038.08 415H2153.93C2180.76 415 2204.56 420.017 2225.33 430.05C2246.09 440.083 2262.19 454.317 2273.63 472.75C2285.06 491.183 2290.78 512.767 2290.78 537.5C2290.78 562.233 2285.06 583.817 2273.63 602.25C2262.19 620.683 2246.09 634.917 2225.33 644.95C2204.56 654.983 2180.76 660 2153.93 660H2038.08V415ZM2151.13 604.7C2172.13 604.7 2188.93 598.75 2201.53 586.85C2214.36 574.95 2220.78 558.5 2220.78 537.5C2220.78 516.5 2214.36 500.05 2201.53 488.15C2188.93 476.25 2172.13 470.3 2151.13 470.3H2107.38V604.7H2151.13ZM2523.94 606.45V660H2327.24V415H2519.39V468.55H2395.84V509.85H2504.69V561.65H2395.84V606.45H2523.94Z" fill="black"></path><path d="M1540.96 896.95H1465.71V842H1685.16V896.95H1610.26V1087H1540.96V896.95ZM1944.08 842V1087H1874.78V991.45H1780.28V1087H1710.98V842H1780.28V934.05H1874.78V842H1944.08ZM2189.66 1033.45V1087H1992.96V842H2185.11V895.55H2061.56V936.85H2170.41V988.65H2061.56V1033.45H2189.66ZM2449.32 1087L2448.62 957.15L2385.62 1062.85H2354.82L2292.17 960.65V1087H2228.12V842H2285.17L2371.27 983.4L2455.27 842H2512.32L2513.02 1087H2449.32ZM2758.75 1033.45V1087H2562.05V842H2754.2V895.55H2630.65V936.85H2739.5V988.65H2630.65V1033.45H2758.75ZM2883.31 1091.9C2863.47 1091.9 2844.22 1089.45 2825.56 1084.55C2806.89 1079.65 2791.72 1073.12 2780.06 1064.95L2802.81 1013.85C2813.77 1021.08 2826.49 1026.92 2840.96 1031.35C2855.42 1035.78 2869.66 1038 2883.66 1038C2910.26 1038 2923.56 1031.35 2923.56 1018.05C2923.56 1011.05 2919.71 1005.92 2912.01 1002.65C2904.54 999.15 2892.41 995.533 2875.61 991.8C2857.17 987.833 2841.77 983.633 2829.41 979.2C2817.04 974.533 2806.42 967.183 2797.56 957.15C2788.69 947.117 2784.26 933.583 2784.26 916.55C2784.26 901.617 2788.34 888.2 2796.51 876.3C2804.67 864.167 2816.81 854.6 2832.91 847.6C2849.24 840.6 2869.19 837.1 2892.76 837.1C2908.86 837.1 2924.72 838.967 2940.36 842.7C2955.99 846.2 2969.76 851.45 2981.66 858.45L2960.31 909.9C2936.97 897.3 2914.34 891 2892.41 891C2878.64 891 2868.61 893.1 2862.31 897.3C2856.01 901.267 2852.86 906.517 2852.86 913.05C2852.86 919.583 2856.59 924.483 2864.06 927.75C2871.52 931.017 2883.54 934.4 2900.11 937.9C2918.77 941.867 2934.17 946.183 2946.31 950.85C2958.67 955.283 2969.29 962.517 2978.16 972.55C2987.26 982.35 2991.81 995.767 2991.81 1012.8C2991.81 1027.5 2987.72 1040.8 2979.56 1052.7C2971.39 1064.6 2959.14 1074.17 2942.81 1081.4C2926.47 1088.4 2906.64 1091.9 2883.31 1091.9Z" fill="black"></path><path d="M0 0C0 0 200.867 426.554 424.633 619.825C424.633 619.825 579.501 796.486 828.442 943.49C828.442 943.49 1094.12 1159.83 2060.43 1378.38C2060.43 1378.38 1280.12 1174.55 911.936 1496C911.936 1496 539.528 1077.92 420.28 867.769C420.481 867.769 234.278 651.365 0 0Z" fill="url(#paint0_linear_103_34)"></path><path d="M0 1496C0 1496 200.867 1069.51 424.633 876.175C424.633 876.175 579.501 699.514 828.442 552.51C828.442 552.51 1094.12 336.173 2060.43 117.684C2060.43 117.684 1280.12 321.446 911.936 0C911.936 0 539.528 418.148 420.28 628.231C420.481 628.231 234.278 844.635 0 1496Z" fill="url(#paint1_linear_103_34)"></path><defs><linearGradient id="paint0_linear_103_34" x1="0" y1="748" x2="2060.63" y2="748" gradientUnits="userSpaceOnUse"><stop stop-color="#32AE8A"></stop><stop offset="0.25" stop-color="#3AAF86"></stop><stop offset="0.4" stop-color="#41B082"></stop><stop offset="0.58" stop-color="#7DBF43"></stop></linearGradient><linearGradient id="paint1_linear_103_34" x1="0" y1="748" x2="2060.63" y2="748" gradientUnits="userSpaceOnUse"><stop stop-color="#32AE8A"></stop><stop offset="0.25" stop-color="#3AAF86"></stop><stop offset="0.4" stop-color="#41B082"></stop><stop offset="0.58" stop-color="#7DBF43"></stop></linearGradient></defs></svg>