<svg xmlns="http://www.w3.org/2000/svg" xmlns:xlink="http://www.w3.org/1999/xlink" id="Mail" width="19.942" height="14.957" viewBox="0 0 19.942 14.957"><defs><linearGradient id="linear-gradient" x1="-0.072" y1="-0.032" x2="1" y2="1" gradientUnits="objectBoundingBox"><stop offset="0" stop-color="#3cd89d"/><stop offset="1" stop-color="#82c444"/></linearGradient></defs><path id="Path_111" data-name="Path 111" d="M7.061,65.214c2.737,2.318,7.54,6.4,8.951,7.667a.834.834,0,0,0,1.206,0c1.413-1.273,6.215-5.351,8.952-7.669a.415.415,0,0,0,.058-.573,1.65,1.65,0,0,0-1.3-.64H8.306a1.65,1.65,0,0,0-1.3.64A.415.415,0,0,0,7.061,65.214Z" transform="translate(-6.644 -64)" fill="url(#linear-gradient)"/><path id="Path_112" data-name="Path 112" d="M19.7,126.45a.414.414,0,0,0-.443.06c-3.035,2.573-6.909,5.871-8.128,6.97a1.682,1.682,0,0,1-2.319,0c-1.3-1.171-5.649-4.869-8.127-6.969a.415.415,0,0,0-.684.317v10.448a1.664,1.664,0,0,0,1.662,1.662H18.281a1.663,1.663,0,0,0,1.662-1.662V126.827A.415.415,0,0,0,19.7,126.45Z" transform="translate(0 -123.981)" fill="url(#linear-gradient)"/></svg>