<svg xmlns="http://www.w3.org/2000/svg" xmlns:xlink="http://www.w3.org/1999/xlink" width="18.702" height="18.702" viewBox="0 0 18.702 18.702"><defs><linearGradient id="linear-gradient" x1="-0.072" y1="-0.032" x2="1" y2="1" gradientUnits="objectBoundingBox"><stop offset="0" stop-color="#3cd89d"/><stop offset="1" stop-color="#82c444"/></linearGradient></defs><path id="phone" d="M17.225,12.314a10.692,10.692,0,0,1-3.355-.534,1.437,1.437,0,0,0-1.46.309l-2.123,1.6A11.859,11.859,0,0,1,5.01,8.416L6.57,6.343a1.49,1.49,0,0,0,.365-1.506A10.688,10.688,0,0,1,6.4,1.476,1.478,1.478,0,0,0,4.922,0H1.476A1.478,1.478,0,0,0,0,1.476,17.246,17.246,0,0,0,17.225,18.7,1.478,1.478,0,0,0,18.7,17.225V13.79A1.478,1.478,0,0,0,17.225,12.314Z" fill="url(#linear-gradient)"/></svg>