<svg xmlns="http://www.w3.org/2000/svg" xmlns:xlink="http://www.w3.org/1999/xlink" width="73.476" height="73.476" viewBox="0 0 73.476 73.476"><defs><linearGradient id="linear-gradient" x1="-0.072" y1="-0.032" x2="1" y2="1" gradientUnits="objectBoundingBox"><stop offset="0" stop-color="#3cd89d"/><stop offset="1" stop-color="#82c444"/></linearGradient></defs><g id="We_Build_a_Partnership" data-name="We Build a Partnership" transform="translate(-1480 -382)"><g id="_1" data-name="1" transform="translate(1479.559 382)"><rect id="Rectangle_1121" data-name="Rectangle 1121" width="73.476" height="73.476" rx="15" transform="translate(73.917 73.476) rotate(-180)" fill="url(#linear-gradient)"/><g id="noun-handshake-4291237" transform="translate(11.717 -87.732)"><path id="Path_7011" data-name="Path 7011" d="M51.354,126.274l-2.4-14.209a1.613,1.613,0,0,0-1.979-1.285L39.452,112.7a1.613,1.613,0,0,0-1.134,1.952l.317,1.236-1.747.753-8.784-3.6a4.114,4.114,0,0,0-2.688-.156l-2.527-.489a5.221,5.221,0,0,0-4.01.882l-3.086,2.231-3.01-.86h0a1.614,1.614,0,0,0-1.156-1.946l-7.5-1.919a1.613,1.613,0,0,0-1.979,1.285l-2.4,14.209a1.613,1.613,0,0,0,1.183,1.817L7.245,129.7A1.613,1.613,0,0,0,9.2,128.548l.177-.618.382.113.823,1.753a2.77,2.77,0,0,0,.995,1.554,2.5,2.5,0,0,0,1.21.462,2.526,2.526,0,0,0,.511,3.548,2.495,2.495,0,0,0,3.226-.172,2.554,2.554,0,0,0,.968,1.559,2.489,2.489,0,0,0,2.833.075,2.537,2.537,0,0,0,4.419,1.323l.242-.269h0a2.644,2.644,0,0,0,.258-.355,2.538,2.538,0,0,0,3.9-2.258l.43.28a2.538,2.538,0,0,0,3.328-.489,2.5,2.5,0,0,0,.581-1.747c1.333.651,2.521.887,3.564-.414h0a2.473,2.473,0,0,0,.43-2.285l3.672-2.113.7-.156.054.215h0a1.613,1.613,0,0,0,1.935,1.156l6.317-1.613a1.613,1.613,0,0,0,1.21-1.822Zm-43.82,2.392-6.317-1.613a.537.537,0,0,1-.4-.6L3.2,112.242a.538.538,0,0,1,.656-.441l7.526,1.925a.537.537,0,0,1,.382.645L8.174,128.29a.537.537,0,0,1-.64.376Zm4.435-.349,1.161-1.231a1.448,1.448,0,0,1,2.14,1.951l-1.123,1.231a1.464,1.464,0,0,1-2.177-1.957Zm1.973,6.177a1.468,1.468,0,0,1-.2-2.15l2.328-2.564a1.468,1.468,0,0,1,2.15,1.973l-2.339,2.57a1.457,1.457,0,0,1-1.935.172Zm4.193,1.387a1.478,1.478,0,0,1-.21-2.183l1.118-1.231h0a1.468,1.468,0,0,1,2.151,1.968l-1.145,1.258a1.441,1.441,0,0,1-1.914.188Zm5.8,1.522a1.473,1.473,0,0,1-2.554-.839,1.458,1.458,0,0,1,.366-1.108l.253-.274a1.446,1.446,0,0,1,2.048-.1l.032.032a1.446,1.446,0,0,1,.1,2.043ZM36.2,132.23a1.468,1.468,0,0,1-1.935.3l-7.9-5.14a.534.534,0,1,0-.586.893l5.967,3.892a1.459,1.459,0,1,1-1.591,2.446L25.206,131.4a.538.538,0,1,0-.586.9l2.8,1.828a1.474,1.474,0,1,1-1.613,2.468l-.188-.124a2.528,2.528,0,0,0-.839-2.2,2.457,2.457,0,0,0-2.151-.6,2.548,2.548,0,0,0-.844-2.1,2.51,2.51,0,0,0-2.15-.6,2.532,2.532,0,0,0-2.962-2.688,2.462,2.462,0,0,0-.8-2.075,2.532,2.532,0,0,0-3.548.156l-1.167,1.231h0a2.688,2.688,0,0,0-.279.382l-.253-.575a.537.537,0,0,0-.339-.29l-.645-.188,2.871-11.225,3.226.925a.691.691,0,0,0,.134.027.568.568,0,0,0,.317-.1l3.312-2.387a4.151,4.151,0,0,1,3.177-.7l1.075.21-2.548,1.365a.538.538,0,0,0-.183.156l-2.634,3.656h0a.538.538,0,0,0,.065.7,4.838,4.838,0,0,0,5.763.672l1.973-1.145,10.752,6.9a1.472,1.472,0,0,1-1.613,2.462l-6.435-4.2a.536.536,0,1,0-.586.9l7.553,4.951a1.467,1.467,0,0,1,.344,2.15Zm4.613-4.742a.462.462,0,0,0-.15.059l-2.9,1.651h0a2.494,2.494,0,0,0-.226-4.08L26.5,118.011a.538.538,0,0,0-.537,0l-2.28,1.317a3.762,3.762,0,0,1-4.123-.226l2.269-3.15,3.269-1.763h0a3.043,3.043,0,0,1,2.608-.156l8.988,3.682a.564.564,0,0,0,.419,0l1.8-.774,2.656,10.36Zm9.064-.414-6.317,1.613a.537.537,0,0,1-.64-.376l-3.564-13.929a.537.537,0,0,1,.382-.64l7.5-1.941a.538.538,0,0,1,.656.425l2.382,14.225a.538.538,0,0,1-.4.6Z" transform="translate(0)" fill="#fff"/><path id="Path_7012" data-name="Path 7012" d="M595.911,270.8a1.812,1.812,0,1,0-.195,1.371,1.813,1.813,0,0,0,.195-1.371Zm-1.543,1.161a.731.731,0,1,1,.456-.334.731.731,0,0,1-.456.334Z" transform="translate(-548.927 -147.01)" fill="#fff"/><path id="Path_7013" data-name="Path 7013" d="M60.749,269.557a1.812,1.812,0,1,0,1.112.831,1.806,1.806,0,0,0-1.112-.831Zm.264,1.935h0a.726.726,0,0,1-.892.538.733.733,0,1,1,.365-1.419.726.726,0,0,1,.527.882Z" transform="translate(-54.435 -147.062)" fill="#fff"/></g></g></g></svg>