<svg xmlns="http://www.w3.org/2000/svg" xmlns:xlink="http://www.w3.org/1999/xlink" width="73.476" height="73.476" viewBox="0 0 73.476 73.476"><defs><linearGradient id="linear-gradient" x1="-0.072" y1="-0.032" x2="1" y2="1" gradientUnits="objectBoundingBox"><stop offset="0" stop-color="#3cd89d"/><stop offset="1" stop-color="#82c444"/></linearGradient></defs><g id="We_Anticipate_the_Future" data-name="We Anticipate the Future" transform="translate(-1480 -382)"><g id="_1" data-name="1" transform="translate(1479.559 382)"><rect id="Rectangle_1121" data-name="Rectangle 1121" width="73.476" height="73.476" rx="15" transform="translate(73.917 73.476) rotate(-180)" fill="url(#linear-gradient)"/></g><g id="noun-anticipation-4074664" transform="translate(1373.5 354.25)"><path id="Path_6973" data-name="Path 6973" d="M284.325,85.837a.8.8,0,0,0-.609.278,2.412,2.412,0,0,1-.334.314,3.349,3.349,0,0,1-1.9.473h-.008l-5.6.28a4.686,4.686,0,0,0-2.8.806,4.036,4.036,0,0,0-.553.52l.028-.031-7.34,7.539a2.384,2.384,0,1,0,3.419,3.324l2.772-2.849h0a.8.8,0,1,0-1.14-1.109L267.5,98.231a.794.794,0,1,1-1.139-1.107l7.34-7.537.026-.031a2.458,2.458,0,0,1,.337-.315,3.344,3.344,0,0,1,1.9-.475h.008l5.6-.28a4.693,4.693,0,0,0,2.8-.8,3.96,3.96,0,0,0,.556-.522h0a.8.8,0,0,0-.585-1.328Z" transform="translate(-129.139 -38.259)" fill="#fff"/><path id="Path_6974" data-name="Path 6974" d="M367.047,136.04a.793.793,0,0,0-.543.247s-.873.9-1.765,1.81c-.446.456-.9.917-1.245,1.268-.174.176-.323.324-.43.43l-.127.124c-.029.028-.085.068.008,0h0l-.011.008a3.222,3.222,0,0,1-1.884.472l-7.98.236a.753.753,0,0,1-.553-.225.794.794,0,0,1,.544-1.363h.016a.763.763,0,0,0,.151.01l4.9-.171a.8.8,0,1,0-.056-1.589l-4.9.171c-.047,0-.109-.01-.141-.01a2.383,2.383,0,0,0-1.625,4.093,2.359,2.359,0,0,0,1.708.675l7.98-.236a4.634,4.634,0,0,0,2.806-.8.91.91,0,0,0,.135-.118c.04-.038.089-.086.146-.143.115-.114.266-.264.443-.443.352-.356.8-.817,1.251-1.275.895-.915,1.769-1.814,1.769-1.814h0a.8.8,0,0,0-.6-1.355Z" transform="translate(-207.459 -83.905)" fill="#fff"/><path id="Path_6975" data-name="Path 6975" d="M472.017,43.75a.794.794,0,0,0-.544.248L469.817,45.7a1.6,1.6,0,0,0,.034,2.245l5.7,5.542a1.6,1.6,0,0,0,2.247-.028l1.657-1.705h0a.8.8,0,1,0-1.14-1.109l-1.655,1.7-5.7-5.542,1.655-1.7h0a.8.8,0,0,0-.6-1.357Z" transform="translate(-315.358 0)" fill="#fff"/><path id="Path_6976" data-name="Path 6976" d="M132.848,122.51a10.263,10.263,0,0,1,3.425.59h0a.8.8,0,1,1-.531,1.5,8.745,8.745,0,1,0,1.457,15.821h0a.8.8,0,0,1,.795,1.377,10.335,10.335,0,1,1-5.146-19.288Z" transform="translate(0 -71.604)" fill="#fff"/><path id="Path_6977" data-name="Path 6977" d="M196.419,183.759a.8.8,0,0,0-.783.806V188.2l-2.94,2.939a.8.8,0,1,0,1.124,1.124l3.405-3.405v-4.294a.8.8,0,0,0-.807-.806Z" transform="translate(-63.597 -127.288)" fill="#fff"/><path id="Path_6978" data-name="Path 6978" d="M298.295,446.26a.8.8,0,0,0-.8.8v3.975a.8.8,0,0,0,.8.8h14.31a.8.8,0,0,0,.795-.8v-3.975a.8.8,0,0,0-.795-.8Zm.8,1.59h12.72v2.385H299.09Z" transform="translate(-159.1 -365.938)" fill="#fff" fill-rule="evenodd"/><path id="Path_6979" data-name="Path 6979" d="M317.388,341.26a.8.8,0,0,0-.784.664l-1.59,9.528a.8.8,0,1,0,1.568.262l1.48-8.865h6.6l1.48,8.865h0a.8.8,0,1,0,1.568-.262l-1.59-9.528a.8.8,0,0,0-.784-.664Z" transform="translate(-175.011 -270.478)" fill="#fff" fill-rule="evenodd"/><path id="Path_6980" data-name="Path 6980" d="M333.294,297.51a.8.8,0,0,0-.795.8v3.963a.8.8,0,1,0,1.59,0V299.1h6.36v3.168a.8.8,0,1,0,1.59,0v-3.963a.8.8,0,0,0-.795-.8Z" transform="translate(-190.919 -230.704)" fill="#fff" fill-rule="evenodd"/><path id="Path_6981" data-name="Path 6981" d="M326.927,227.51a.794.794,0,0,0-.635.317L323.907,231a.794.794,0,0,0-.137.671l.795,3.174h0a.8.8,0,1,0,1.543-.387l-.7-2.806,1.919-2.554H331.3l1.919,2.554-.7,2.806h0a.8.8,0,1,0,1.543.387l.8-3.174h0a.794.794,0,0,0-.137-.671l-2.385-3.175a.8.8,0,0,0-.635-.317Z" transform="translate(-182.962 -167.064)" fill="#fff" fill-rule="evenodd"/></g></g></svg>