<svg xmlns="http://www.w3.org/2000/svg" xmlns:xlink="http://www.w3.org/1999/xlink" width="73.476" height="73.476" viewBox="0 0 73.476 73.476"><defs><linearGradient id="linear-gradient" x1="-0.072" y1="-0.032" x2="1" y2="1" gradientUnits="objectBoundingBox"><stop offset="0" stop-color="#3cd89d"/><stop offset="1" stop-color="#82c444"/></linearGradient></defs><g id="We_Value_Human_Intelligence" data-name="We Value Human Intelligence" transform="translate(-1480 -382)"><g id="_1" data-name="1" transform="translate(1479.559 382)"><rect id="Rectangle_1121" data-name="Rectangle 1121" width="73.476" height="73.476" rx="15" transform="translate(73.917 73.476) rotate(-180)" fill="url(#linear-gradient)"/><g id="We_Value_Human_Intelligence-2" data-name="We Value Human Intelligence" transform="translate(-1663.808 -256.735)"><path id="Path_6982" data-name="Path 6982" d="M132.043,49.009c-.344,2.425-1.343,10.12-.63,11.585.524,1.081,2.381,1.663,3.133,1.862a8.819,8.819,0,0,0,4.975-.029v4.1a.485.485,0,0,0,.485.485h17.278a.485.485,0,0,0,.485-.485V59.693c5.863-4.805,10.454-18.044,7.434-27.562-1.343-4.175-4.7-9.247-13.238-9.694-5.644-.3-10.183,1.106-13.52,4.165-4.927,4.524-5.494,11.119-5.552,12.2-5.261,7.894-5.261,8.287-5.261,8.452,0,.364,0,.781,4.413,1.76Zm1.75-9.786a.422.422,0,0,0,.083-.252c0-.073.286-7.1,5.256-11.638,3.123-2.871,7.434-4.185,12.806-3.879,6.3.33,10.59,3.448,12.36,9.019,2.861,9-1.62,22.185-7.274,26.67h0a.483.483,0,0,0-.184.383v6.512H140.489V61.627a.485.485,0,0,0-.766-.4c-1.125.79-3.288.713-4.932.286a4.28,4.28,0,0,1-2.507-1.343c-.485-1.009.218-7.569.781-11.468a.484.484,0,0,0-.378-.543,32.423,32.423,0,0,1-3.971-1.072c.645-1.169,3.336-5.3,5.077-7.865Z" transform="translate(1553.62 248.339)" fill="#fff" stroke="#fff" stroke-width="0.5"/><path id="Path_6983" data-name="Path 6983" d="M329.2,58.392l1,.354a6.129,6.129,0,0,0,.4.97l-.485.97h0a.484.484,0,0,0,.1.553l1.5,1.5a.486.486,0,0,0,.553.1l.97-.461a6.125,6.125,0,0,0,.97.388l.359,1.013a.484.484,0,0,0,.456.32h2.124a.484.484,0,0,0,.456-.32l.359-1.013a6.124,6.124,0,0,0,.97-.388l.97.461a.486.486,0,0,0,.553-.1l1.5-1.5a.485.485,0,0,0,.1-.553l-.461-.97a6.13,6.13,0,0,0,.4-.97l1-.354a.485.485,0,0,0,.32-.456V55.812a.485.485,0,0,0-.32-.456l-.97-.354a6.527,6.527,0,0,0-.4-.97l.451-.97h0a.485.485,0,0,0-.1-.553l-1.557-1.479a.485.485,0,0,0-.553-.1l-.9.446a6.27,6.27,0,0,0-.97-.412l-.349-.97a.485.485,0,0,0-.456-.325h-2.163a.484.484,0,0,0-.456.325l-.349.97a6.26,6.26,0,0,0-.97.412l-.936-.446h0a.486.486,0,0,0-.553.1l-1.528,1.5a.485.485,0,0,0-.1.553l.451.97a6.058,6.058,0,0,0-.4.97l-.97.354h0a.486.486,0,0,0-.325.456v2.124a.485.485,0,0,0,.315.436Zm.645-2.235.9-.32a.486.486,0,0,0,.306-.335,5.441,5.441,0,0,1,.485-1.222.485.485,0,0,0,0-.446l-.407-.858,1.018-1.018.853.407h0a.485.485,0,0,0,.446,0,5.328,5.328,0,0,1,1.232-.514.484.484,0,0,0,.335-.305l.315-.887h1.455l.315.887a.485.485,0,0,0,.329.305,5.164,5.164,0,0,1,1.232.514.485.485,0,0,0,.451,0l.853-.407,1.018,1.018-.412.858h0a.485.485,0,0,0,0,.446,5.457,5.457,0,0,1,.485,1.222.485.485,0,0,0,.305.335l.9.32v1.455l-.907.325a.484.484,0,0,0-.305.325,5.123,5.123,0,0,1-.485,1.2.486.486,0,0,0,0,.451l.417.878-1.018,1.018-.863-.437a.485.485,0,0,0-.446,0,5.2,5.2,0,0,1-1.193.485.485.485,0,0,0-.329.306l-.33.921h-1.455l-.33-.921a.486.486,0,0,0-.33-.306,5.2,5.2,0,0,1-1.193-.485.485.485,0,0,0-.446,0l-.878.417-1.018-1.018.432-.853a.485.485,0,0,0,0-.451,5.326,5.326,0,0,1-.485-1.2.485.485,0,0,0-.306-.325l-.912-.325Z" transform="translate(1369.789 223.424)" fill="#fff" stroke="#fff" stroke-width="0.5"/><path id="Path_6984" data-name="Path 6984" d="M379.066,102.936a3.084,3.084,0,1,0-2.181-.9A3.084,3.084,0,0,0,379.066,102.936Zm0-5.2a.878.878,0,1,1,0-.014Z" transform="translate(1326.773 180.407)" fill="#fff" stroke="#fff" stroke-width="0.5"/><path id="Path_6985" data-name="Path 6985" d="M390.76,219.923l-.761.364a5.214,5.214,0,0,0-.781-.325l-.281-.79h0a.485.485,0,0,0-.456-.325h-1.794a.485.485,0,0,0-.456.325l-.262.79a5.015,5.015,0,0,0-.781.325l-.761-.364a.484.484,0,0,0-.553.1l-1.3,1.27a.485.485,0,0,0-.1.548l.364.766a5.077,5.077,0,0,0-.315.771l-.79.281a.486.486,0,0,0-.32.456v1.794a.485.485,0,0,0,.32.456l.814.291a4.865,4.865,0,0,0,.315.752l-.373.781a.486.486,0,0,0,.1.553L383.855,230h0a.485.485,0,0,0,.553.1l.785-.373a5.388,5.388,0,0,0,.742.305l.3.824a.485.485,0,0,0,.456.32h1.794a.486.486,0,0,0,.456-.32l.3-.824a5.133,5.133,0,0,0,.737-.305l.79.373a.486.486,0,0,0,.543-.092l1.266-1.266h0a.485.485,0,0,0,.1-.553l-.373-.781h0a4.831,4.831,0,0,0,.315-.752l.81-.291a.485.485,0,0,0,.325-.456v-1.77a.486.486,0,0,0-.325-.456l-.8-.286h0a5.062,5.062,0,0,0-.315-.771l.364-.766a.485.485,0,0,0-.1-.548L391.3,220.02a.485.485,0,0,0-.543-.1Zm.892,1.794-.325.679a.485.485,0,0,0,0,.451,4.1,4.1,0,0,1,.461,1.028.485.485,0,0,0,.305.329l.713.257V225.6l-.718.257a.484.484,0,0,0-.305.325,4.4,4.4,0,0,1-.417,1,.486.486,0,0,0,0,.451l.33.693-.829.761-.7-.33h0a.483.483,0,0,0-.451,0,4.1,4.1,0,0,1-.97.407.484.484,0,0,0-.354.315l-.262.732h-1.106l-.257-.732a.485.485,0,0,0-.329-.306,4.206,4.206,0,0,1-.97-.407.485.485,0,0,0-.446,0l-.7.33-.785-.785.33-.693a.486.486,0,0,0,0-.451,4.382,4.382,0,0,1-.417-1,.485.485,0,0,0-.306-.325l-.761-.243v-1.135l.713-.257a.484.484,0,0,0,.305-.329,4.1,4.1,0,0,1,.417-1.014.485.485,0,0,0,0-.451l-.305-.693.785-.785.674.32a.485.485,0,0,0,.451,0,4.123,4.123,0,0,1,1.028-.427.484.484,0,0,0,.329-.305l.247-.7h1.11l.252.7a.484.484,0,0,0,.33.305,4.118,4.118,0,0,1,1.023.427.485.485,0,0,0,.451,0l.674-.32Z" transform="translate(1321.81 68.9)" fill="#fff" stroke="#fff" stroke-width="0.5"/><path id="Path_6986" data-name="Path 6986" d="M423.973,258.61a2.686,2.686,0,1,0,1.895.787,2.681,2.681,0,0,0-1.895-.787Zm0,4.393a1.716,1.716,0,1,1,1.209-.5,1.712,1.712,0,0,1-1.209.5Z" transform="translate(1285.386 32.58)" fill="#fff" stroke="#fff" stroke-width="0.5"/><path id="Path_6987" data-name="Path 6987" d="M228.094,189.518a5.371,5.371,0,0,0,.024.834l-.616.587h0a.485.485,0,0,0-.111.548l.732,1.639h0a.485.485,0,0,0,.485.286l.858-.068a4.65,4.65,0,0,0,.592.563l-.024.863h0a.484.484,0,0,0,.315.485l1.673.645h0a.541.541,0,0,0,.175.029.484.484,0,0,0,.368-.17l.567-.66h0a5.546,5.546,0,0,0,.8,0l.6.635h0a.485.485,0,0,0,.553.107l1.639-.727h0a.485.485,0,0,0,.286-.485l-.092-.912a5.253,5.253,0,0,0,.553-.582h.873a.485.485,0,0,0,.485-.311l.64-1.678h0a.485.485,0,0,0-.126-.519l-.664-.538a5.745,5.745,0,0,0,0-.815l.621-.592a.486.486,0,0,0,.112-.548l-.732-1.639h0a.485.485,0,0,0-.485-.286l-.849.063a4.781,4.781,0,0,0-.6-.572v-.849a.485.485,0,0,0-.311-.485l-1.673-.645a.485.485,0,0,0-.543.136l-.548.64a5.49,5.49,0,0,0-.844,0l-.577-.606a.485.485,0,0,0-.548-.107l-1.639.732h0a.485.485,0,0,0-.286.485l.063.839a4.931,4.931,0,0,0-.577.611h-.844a.485.485,0,0,0-.485.31l-.64,1.673a.485.485,0,0,0,.136.543Zm.645-2.1h.747a.446.446,0,0,0,.4-.2,4.272,4.272,0,0,1,.761-.805.486.486,0,0,0,.18-.412l-.058-.742,1.013-.451.514.538a.484.484,0,0,0,.427.145,4.219,4.219,0,0,1,1.106-.029.485.485,0,0,0,.422-.165l.485-.567,1.038.4v.752h0a.485.485,0,0,0,.2.4,4.348,4.348,0,0,1,.8.761.486.486,0,0,0,.412.175l.732-.039.451,1.018-.553.524a.484.484,0,0,0-.145.422,4.276,4.276,0,0,1,.024,1.086.485.485,0,0,0,.17.417l.582.485-.4,1.038h-.776a.485.485,0,0,0-.4.2,4.293,4.293,0,0,1-.737.776.486.486,0,0,0-.175.412l.058.776-1.033.441-.519-.563a.485.485,0,0,0-.422-.145,4.4,4.4,0,0,1-1.072.029.484.484,0,0,0-.417.165l-.485.587-1.057-.393v-.766a.485.485,0,0,0-.2-.4,4.271,4.271,0,0,1-.766-.771.484.484,0,0,0-.412-.175l-.761.058-.456-1.013.548-.519h0a.486.486,0,0,0,.146-.427,4.179,4.179,0,0,1-.029-1.1.484.484,0,0,0-.169-.417l-.567-.485Z" transform="translate(1462.615 101.012)" fill="#fff" stroke="#fff" stroke-width="0.5"/><path id="Path_6988" data-name="Path 6988" d="M268.142,227.873a2.635,2.635,0,0,0,.97.18,2.7,2.7,0,1,0-.97-.18Zm.262-4.068a1.712,1.712,0,1,1-.9.95A1.718,1.718,0,0,1,268.4,223.8Z" transform="translate(1426.854 65.417)" fill="#fff" stroke="#fff" stroke-width="0.5"/></g></g></g></svg>