<svg xmlns="http://www.w3.org/2000/svg" xmlns:xlink="http://www.w3.org/1999/xlink" width="73.476" height="73.476" viewBox="0 0 73.476 73.476"><defs><linearGradient id="linear-gradient" x1="-0.072" y1="-0.032" x2="1" y2="1" gradientUnits="objectBoundingBox"><stop offset="0" stop-color="#3cd89d"/><stop offset="1" stop-color="#82c444"/></linearGradient></defs><g id="We_Promise_to_Deliver" data-name="We Promise to Deliver" transform="translate(-1480 -382)"><g id="_1" data-name="1" transform="translate(1479.559 382)"><rect id="Rectangle_1121" data-name="Rectangle 1121" width="73.476" height="73.476" rx="15" transform="translate(73.917 73.476) rotate(-180)" fill="url(#linear-gradient)"/><g id="noun-delivered-3780447" transform="translate(-88.563 -26.751)"><path id="Path_7010" data-name="Path 7010" d="M142.812,72.3a.746.746,0,0,1,.071,1.053l-5.224,5.971a.747.747,0,0,1-.537.255H137.1a.746.746,0,0,1-.528-.219l-2.239-2.239a.747.747,0,0,1,1.056-1.056l1.675,1.675,4.7-5.371h0a.746.746,0,0,1,1.053-.07Zm3.987,3.547a8.206,8.206,0,0,1-14.538,5.224H105.75a.746.746,0,0,1-.746-.746V50.468a.746.746,0,0,1,.149-.448l4.478-5.971a.746.746,0,0,1,.6-.3h23.883a.746.746,0,0,1,.6.3l4.478,5.971a.746.746,0,0,1,.149.448v17.2a8.218,8.218,0,0,1,7.463,8.172Zm-20.689-30.6,1.12,4.478H137.1l-3.359-4.478Zm-7.463,4.478h7.044l-1.12-4.478h-4.8Zm-.21,7.9.219-.219a.746.746,0,0,1,1.056,0l.965.965.965-.965a.746.746,0,0,1,1.056,0l.965.965.965-.965a.746.746,0,0,1,1.056,0l.219.219V51.215h-7.463Zm-11.2-7.9h9.867l1.12-4.478H110.6Zm24.043,29.854a8.191,8.191,0,0,1,6.557-11.9V51.214H127.395v8.21a.746.746,0,0,1-1.274.528l-.965-.965-.965.965a.746.746,0,0,1-1.056,0l-.965-.965-.965.965a.746.746,0,0,1-1.056,0l-.965-.965-.965.965a.746.746,0,0,1-1.274-.528v-8.21H106.5V79.575Zm14.021-3.732a6.724,6.724,0,1,0-1.969,4.748A6.716,6.716,0,0,0,145.307,75.844Zm-36.043-3.95.219-.219v2.676a.746.746,0,0,0,1.493,0V71.675l.219.219a.747.747,0,0,0,1.056-1.056l-1.493-1.493a.746.746,0,0,0-1.056,0l-1.493,1.493a.747.747,0,0,0,1.056,1.056Zm7.463-2.548h0a.746.746,0,0,0-1.056,0l-1.493,1.493a.747.747,0,0,0,1.056,1.056l.219-.219v2.676a.746.746,0,0,0,1.493,0V71.675l.219.219a.747.747,0,0,0,1.056-1.056Zm.965,7.245h-8.956a.746.746,0,0,0,0,1.493h8.956a.746.746,0,0,0,0-1.493Z" fill="#fff"/></g></g></g></svg>