<svg xmlns="http://www.w3.org/2000/svg" xmlns:xlink="http://www.w3.org/1999/xlink" width="73.476" height="73.476" viewBox="0 0 73.476 73.476"><defs><linearGradient id="linear-gradient" x1="-0.072" y1="-0.032" x2="1" y2="1" gradientUnits="objectBoundingBox"><stop offset="0" stop-color="#3cd89d"/><stop offset="1" stop-color="#82c444"/></linearGradient></defs><g id="We_Create_Synergy" data-name="We Create Synergy" transform="translate(-1480 -382)"><g id="_1" data-name="1" transform="translate(1479.559 382)"><rect id="Rectangle_1121" data-name="Rectangle 1121" width="73.476" height="73.476" rx="15" transform="translate(73.917 73.476) rotate(-180)" fill="url(#linear-gradient)"/><g id="noun-organization-4682388" transform="translate(-105.059 -27.75)"><path id="Path_7014" data-name="Path 7014" d="M310.068,182.635a3.822,3.822,0,1,1,2.7-1.119A3.819,3.819,0,0,1,310.068,182.635Zm0-6.108a2.292,2.292,0,1,0,1.619.671,2.291,2.291,0,0,0-1.619-.671Z" transform="translate(-167.716 -119.797)" fill="#fff"/><path id="Path_7015" data-name="Path 7015" d="M289.925,270.9H282.29A2.293,2.293,0,0,1,280,268.609a6.108,6.108,0,0,1,12.216,0,2.293,2.293,0,0,1-2.291,2.291Zm-3.818-6.872a4.586,4.586,0,0,0-4.581,4.581.764.764,0,0,0,.764.763h7.635a.764.764,0,0,0,.764-.763,4.586,4.586,0,0,0-4.581-4.581Z" transform="translate(-143.757 -199.663)" fill="#fff"/><path id="Path_7016" data-name="Path 7016" d="M230.2,162.905a11.465,11.465,0,1,1,8.095-3.358A11.453,11.453,0,0,1,230.2,162.905Zm0-21.378a9.937,9.937,0,1,0,7.015,2.91A9.926,9.926,0,0,0,230.2,141.527Z" transform="translate(-87.851 -87.851)" fill="#fff"/><path id="Path_7017" data-name="Path 7017" d="M127.845,54.439a5.351,5.351,0,1,1,3.777-1.567A5.343,5.343,0,0,1,127.845,54.439Zm0-9.162a3.822,3.822,0,1,0,2.7,1.119A3.819,3.819,0,0,0,127.845,45.277Z" fill="#fff"/><path id="Path_7018" data-name="Path 7018" d="M234.113,101.7l-1.76-3.917H227.5V96.253h5.838l2.165,4.818Z" transform="translate(-95.84 -47.922)" fill="#fff"/><path id="Path_7019" data-name="Path 7019" d="M460.345,54.439a5.351,5.351,0,1,1,3.777-1.567A5.343,5.343,0,0,1,460.345,54.439Zm0-9.162a3.822,3.822,0,1,0,2.7,1.119A3.819,3.819,0,0,0,460.345,45.277Z" transform="translate(-303.487)" fill="#fff"/><path id="Path_7020" data-name="Path 7020" d="M382.172,101.7l-1.393-.626,2.165-4.818h5.838V97.78h-4.851Z" transform="translate(-235.742 -47.922)" fill="#fff"/><path id="Path_7021" data-name="Path 7021" d="M127.845,404.439a5.351,5.351,0,1,1,3.777-1.567A5.343,5.343,0,0,1,127.845,404.439Zm0-9.162a3.822,3.822,0,1,0,2.7,1.119A3.819,3.819,0,0,0,127.845,395.277Z" transform="translate(0 -319.46)" fill="#fff"/><path id="Path_7022" data-name="Path 7022" d="M233.336,392.734H227.5v-1.527h4.851l2.37-5.262,1.393.628Z" transform="translate(-95.836 -312.336)" fill="#fff"/><path id="Path_7023" data-name="Path 7023" d="M460.345,404.439a5.351,5.351,0,1,1,3.777-1.567A5.343,5.343,0,0,1,460.345,404.439Zm0-9.162a3.822,3.822,0,1,0,2.7,1.119A3.819,3.819,0,0,0,460.345,395.277Z" transform="translate(-303.487 -319.46)" fill="#fff"/><path id="Path_7024" data-name="Path 7024" d="M382.4,392.735h-5.838l-2.776-6.161,1.393-.628,2.37,5.262H382.4Z" transform="translate(-229.356 -312.336)" fill="#fff"/></g></g></g></svg>