<svg xmlns="http://www.w3.org/2000/svg" xmlns:xlink="http://www.w3.org/1999/xlink" width="73.476" height="73.476" viewBox="0 0 73.476 73.476"><defs><linearGradient id="linear-gradient" x1="-0.072" y1="-0.032" x2="1" y2="1" gradientUnits="objectBoundingBox"><stop offset="0" stop-color="#3cd89d"/><stop offset="1" stop-color="#82c444"/></linearGradient></defs><g id="We_Envision_the_Competence" data-name="We Envision the Competence" transform="translate(-1480 -382)"><g id="_1" data-name="1" transform="translate(1479.559 382)"><rect id="Rectangle_1121" data-name="Rectangle 1121" width="73.476" height="73.476" rx="15" transform="translate(73.917 73.476) rotate(-180)" fill="url(#linear-gradient)"/><g id="noun-competence-2162346" transform="translate(-116.082 13)"><path id="Path_6989" data-name="Path 6989" d="M475.59,381.119a.742.742,0,0,0-1.02-.252l-1.854,1.113a.742.742,0,0,0,0,1.268l1.854,1.112a.742.742,0,0,0,1.068-.92h3.408a.742.742,0,0,0,0-1.483h-3.512A.742.742,0,0,0,475.59,381.119Z" transform="translate(-308.284 -348.485)" fill="#fff"/><path id="Path_6990" data-name="Path 6990" d="M149.492,383.378H152.9a.742.742,0,0,0,1.068.919l1.854-1.113a.741.741,0,0,0,0-1.268l-1.854-1.113A.742.742,0,0,0,153,381.9h-3.512a.742.742,0,0,0,0,1.483Z" transform="translate(-12.105 -348.43)" fill="#fff"/><path id="Path_6991" data-name="Path 6991" d="M226.622,75.99a.742.742,0,0,0,.5-.208l.26-.241a.742.742,0,0,0-1-1.094l-.282.267h0a.742.742,0,0,0,.516,1.276Z" transform="translate(-82.693 -67.968)" fill="#fff"/><path id="Path_6992" data-name="Path 6992" d="M175.741,191.731a.742.742,0,0,0,.742-.742v-.352a.742.742,0,1,0-1.483-.048v.389a.742.742,0,0,0,.742.753Z" transform="translate(-36.13 -173.771)" fill="#fff"/><path id="Path_6993" data-name="Path 6993" d="M181.876,148.562a.742.742,0,0,0,.916-.508q.048-.17.1-.337h0a.742.742,0,1,0-1.413-.449q-.059.185-.111.371a.742.742,0,0,0,.508.923Z" transform="translate(-41.931 -134.288)" fill="#fff"/><path id="Path_6994" data-name="Path 6994" d="M428.438,56.453l.3.185a.742.742,0,0,0,.808-1.242l-.33-.208h0a.742.742,0,0,0-.775,1.265Z" transform="translate(-267.771 -50.415)" fill="#fff"/><path id="Path_6995" data-name="Path 6995" d="M261.863,50.909a.74.74,0,0,0,.371-.093l.308-.167a.742.742,0,0,0-.682-1.317l-.345.185a.742.742,0,0,0,.371,1.391Z" transform="translate(-114.961 -45.084)" fill="#fff"/><path id="Path_6996" data-name="Path 6996" d="M503.006,159.783q.041.17.078.345h0a.743.743,0,0,0,1.454-.3q-.041-.189-.085-.371a.742.742,0,0,0-1.443.341Z" transform="translate(-336.323 -145.438)" fill="#fff"/><path id="Path_6997" data-name="Path 6997" d="M487.705,119.1a.742.742,0,0,0,1.32-.675c-.059-.115-.119-.23-.182-.345h0a.743.743,0,1,0-1.306.708Z" transform="translate(-322.094 -107.718)" fill="#fff"/><path id="Path_6998" data-name="Path 6998" d="M180.624,234.61q-.045-.17-.081-.341h0a.742.742,0,0,0-1.446.326q.045.189.089.371a.743.743,0,0,0,1.439-.371Z" transform="translate(-39.867 -213.903)" fill="#fff"/><path id="Path_6999" data-name="Path 6999" d="M252.954,338.9l.278.171.586-1.379-.074-.044h0a.742.742,0,1,0-.79,1.254Z" transform="translate(-107.131 -308.906)" fill="#fff"/><path id="Path_7000" data-name="Path 7000" d="M501.4,241.485a.742.742,0,0,0,.712-.53q.056-.185.108-.371a.742.742,0,1,0-1.431-.371q-.045.17-.1.337h0a.742.742,0,0,0,.712.953Z" transform="translate(-334.185 -219.29)" fill="#fff"/><path id="Path_7001" data-name="Path 7001" d="M462.453,84.2a.745.745,0,0,0,1.112-.99l-.282-.289a.742.742,0,0,0-1.075,1.02Z" transform="translate(-298.827 -75.696)" fill="#fff"/><path id="Path_7002" data-name="Path 7002" d="M483.152,282.412a.742.742,0,0,0,1.02-.241l.2-.334a.742.742,0,0,0-1.283-.742l-.182.3a.742.742,0,0,0,.245,1.013Z" transform="translate(-317.841 -256.954)" fill="#fff"/><path id="Path_7003" data-name="Path 7003" d="M507.5,197.612v.352a.742.742,0,0,0,.716.76h.026a.742.742,0,0,0,.742-.723v-.389a.742.742,0,1,0-1.483,0Z" transform="translate(-340.444 -180.183)" fill="#fff"/><path id="Path_7004" data-name="Path 7004" d="M194.389,275.637a.744.744,0,0,0,1.291-.742l-.167-.308h0a.742.742,0,0,0-1.313.693q.093.186.189.356Z" transform="translate(-53.624 -250.95)" fill="#fff"/><path id="Path_7005" data-name="Path 7005" d="M199.095,109.223a.742.742,0,0,0,1.02-.252l.185-.3a.742.742,0,1,0-1.25-.8l-.208.334a.742.742,0,0,0,.252,1.016Z" transform="translate(-57.855 -98.416)" fill="#fff"/><path id="Path_7006" data-name="Path 7006" d="M220.327,311.641a.742.742,0,0,0,.53-1.261l-.245-.256a.743.743,0,0,0-1.087,1.013l.267.282h0A.741.741,0,0,0,220.327,311.641Z" transform="translate(-76.7 -283.62)" fill="#fff"/><path id="Path_7007" data-name="Path 7007" d="M455.772,316.647a.741.741,0,0,0,.508-.2l.282-.271h0a.742.742,0,1,0-1.046-1.053l-.252.245h0a.742.742,0,0,0,.508,1.279Z" transform="translate(-292.427 -288.215)" fill="#fff"/><path id="Path_7008" data-name="Path 7008" d="M171.544,117.037a31.35,31.35,0,0,0-11.789-4.769l.994-.063a1.761,1.761,0,0,0,1.246-.653,2.32,2.32,0,0,0,.408-1.769c-.119-.89-1.046-1.291-1.75-1.483l.044-7.988v-.052a1.776,1.776,0,0,0-.115-.467c-.074-.156-2.863-4.391-2.863-4.391V86.376a4.927,4.927,0,0,0-.831-2.47,5.158,5.158,0,0,1-1.3.742,3.378,3.378,0,0,1,.653,1.795v9.419s2.908,4.365,2.948,4.45v.052l-.052,9.216.66.074a2.63,2.63,0,0,1,1.113.371.865.865,0,0,1-.1.6.262.262,0,0,1-.2.1l-3.3.219-1.079-9.834a1.594,1.594,0,0,0-.453-.961l-5.429-4.706a1.057,1.057,0,0,1-.215-.486l-.352-4.12,1.213-1.854a.742.742,0,0,0-1.238-.816l-4.476,6.812a.741.741,0,0,1-.8.4l-.675-.341a.174.174,0,0,1-.093-.123.639.639,0,0,1,.1-.482s6.26-9.49,6.382-9.642h0a3.472,3.472,0,0,1,.7-.612,5.145,5.145,0,0,1-1.142-1,4.887,4.887,0,0,0-.686.645,4.6,4.6,0,0,0-.649.979l-5.841,8.837a2.116,2.116,0,0,0-.285,1.687,1.652,1.652,0,0,0,.86,1.05l.679.337a1.776,1.776,0,0,0,.793.182,2.31,2.31,0,0,0,1.91-1.113l1.936-2.941.189,2.225h0a2.507,2.507,0,0,0,.593,1.376l.742,4.506s-4.168,9.812-4.205,9.906a1.682,1.682,0,0,0-.078,1.561,1.039,1.039,0,0,0,.215.234,31.216,31.216,0,0,0-10.065,4.395.742.742,0,1,0,.827,1.231,30.573,30.573,0,0,1,16.369-5.021,5.192,5.192,0,1,0,1.3,0,30.571,30.571,0,0,1,16.369,5.021.742.742,0,1,0,.827-1.231Zm-19.881-5.6a1.916,1.916,0,0,1-1.3.282l-3.208-.263,4.361-10.335L151,97.972l2.648,2.3L153.3,102.7l-3.66,7.758,1.276.141c.211.022.9.123.9.449a.471.471,0,0,1-.152.389Zm5.748,6.957a3.708,3.708,0,1,1-1.086-2.622A3.71,3.71,0,0,1,157.412,118.394Zm-3.708-6.675h-.523a2.1,2.1,0,0,0,.119-.675,1.835,1.835,0,0,0-1.461-1.773l2.9-6.149.123-.853,1.027,9.271h0a1.223,1.223,0,0,0,.059.245c-.76-.041-1.5-.067-2.244-.067Z" transform="translate(0 -76.118)" fill="#fff"/><path id="Path_7009" data-name="Path 7009" d="M309.958,7.417a3.708,3.708,0,1,0-2.622-1.086A3.71,3.71,0,0,0,309.958,7.417Zm0-5.933a2.225,2.225,0,1,1-1.573.652A2.225,2.225,0,0,1,309.958,1.483Z" transform="translate(-156.255)" fill="#fff"/></g></g></g></svg>