<svg xmlns="http://www.w3.org/2000/svg" width="74" height="74" viewBox="0 0 74 74" fill="none"><g clip-path="url(#clip0)"><path d="M58.476 0H15C6.71573 0 0 6.71573 0 15V58.476C0 66.7603 6.71573 73.476 15 73.476H58.476C66.7603 73.476 73.476 66.7603 73.476 58.476V15C73.476 6.71573 66.7603 0 58.476 0Z" fill="url(#paint0_linear)"/><path d="M9.02783 38.5291C9.02783 37.904 9.13182 37.3208 9.33979 36.7794C9.54775 36.2381 9.83887 35.7665 10.2132 35.3646C10.5876 34.9628 11.0354 34.6474 11.5568 34.4187C12.0781 34.1898 12.6492 34.0753 13.2704 34.0753C13.7418 34.0753 14.1702 34.1452 14.5557 34.2846C14.9411 34.4242 15.3141 34.6531 15.6745 34.9711V34.2428H17.7874V42.8155H15.6745V42.0871C15.3141 42.4053 14.9411 42.6341 14.5557 42.7736C14.1702 42.9131 13.7418 42.9829 13.2704 42.9829C12.6492 42.9829 12.078 42.8685 11.5568 42.6396C11.0354 42.4109 10.5876 42.0955 10.2132 41.6937C9.83887 41.2918 9.54775 40.8202 9.33979 40.2788C9.13182 39.7375 9.02783 39.1543 9.02783 38.5291ZM13.5449 40.982C13.7113 40.982 13.886 40.964 14.069 40.9277C14.252 40.8913 14.4364 40.8299 14.6223 40.7434C14.808 40.657 14.9896 40.5412 15.1671 40.396C15.3446 40.2509 15.5136 40.0723 15.6745 39.8602V37.198C15.5136 36.986 15.3446 36.8088 15.1671 36.6664C14.9895 36.5242 14.808 36.4083 14.6221 36.319C14.4363 36.2297 14.252 36.1669 14.0689 36.1307C13.886 36.0943 13.7112 36.0763 13.5449 36.0762C13.2177 36.0762 12.9112 36.1376 12.6257 36.2604C12.34 36.3832 12.0918 36.5549 11.8812 36.7753C11.6704 36.9957 11.5054 37.2553 11.3862 37.5539C11.2669 37.8525 11.2073 38.1775 11.2073 38.5291C11.2073 38.8808 11.2669 39.2059 11.3862 39.5044C11.5054 39.803 11.6704 40.0626 11.8812 40.283C12.0919 40.5036 12.3401 40.6751 12.6256 40.7979C12.9113 40.9206 13.2177 40.982 13.5449 40.982ZM23.0694 36.1916C22.0682 36.199 21.1984 36.9011 21.1984 37.9432V42.8155H19.0854V38.0018C19.0972 35.9944 20.8246 34.1024 23.0391 34.0753H23.0982C25.3127 34.1024 27.04 35.9944 27.0518 38.0018V42.8155H24.9388V37.9432C24.9388 36.9011 24.0691 36.199 23.0679 36.1916H23.0694ZM28.052 38.5291C28.052 37.904 28.156 37.3208 28.364 36.7794C28.572 36.2381 28.8632 35.7665 29.2374 35.3646C29.6118 34.9628 30.0596 34.6474 30.581 34.4187C31.1023 34.1898 31.6734 34.0753 32.2947 34.0753C32.766 34.0753 33.1958 34.1452 33.584 34.2846C33.9723 34.4242 34.3438 34.6503 34.6988 34.9628V31.6727H36.8117V42.8155H34.6988V42.0955C34.3438 42.4136 33.9723 42.641 33.584 42.7778C33.1958 42.9145 32.766 42.9829 32.2947 42.9829C31.6734 42.9829 31.1023 42.8685 30.581 42.6396C30.0596 42.4109 29.6118 42.0955 29.2374 41.6937C28.8632 41.2919 28.572 40.8202 28.3641 40.2788C28.156 39.7375 28.052 39.1543 28.052 38.5291ZM32.5691 40.982C32.7355 40.982 32.9102 40.964 33.0932 40.9277C33.2762 40.8913 33.4606 40.8299 33.6465 40.7434C33.8322 40.657 34.0138 40.5412 34.1913 40.396C34.3688 40.2509 34.5378 40.0723 34.6988 39.8602V37.198C34.5378 36.986 34.3688 36.8088 34.1913 36.6664C34.0138 36.5242 33.8322 36.4083 33.6465 36.319C33.4606 36.2297 33.2762 36.1669 33.0932 36.1307C32.9102 36.0943 32.7355 36.0763 32.5691 36.0762C32.2419 36.0762 31.9355 36.1376 31.6499 36.2604C31.3643 36.3832 31.116 36.5549 30.9055 36.7753C30.6946 36.9957 30.5296 37.2553 30.4104 37.5539C30.2911 37.8525 30.2315 38.1775 30.2316 38.5291C30.2316 38.8808 30.2911 39.2059 30.4104 39.5044C30.5296 39.803 30.6946 40.0626 30.9054 40.283C31.1161 40.5036 31.3643 40.6751 31.6499 40.7979C31.9355 40.9206 32.2419 40.982 32.5691 40.982ZM46.7066 40.982C47.0227 40.982 47.3208 40.922 47.6009 40.802C47.8766 40.6851 48.1257 40.5127 48.333 40.2956C48.5409 40.0779 48.7045 39.8198 48.8238 39.5212C48.943 39.2226 49.0026 38.892 49.0026 38.5291C49.0026 38.1719 48.9416 37.844 48.8196 37.5455C48.6975 37.2469 48.5312 36.9887 48.3205 36.7711C48.1116 36.5547 47.863 36.3813 47.5884 36.2604C47.3112 36.1376 47.0171 36.0763 46.7066 36.0762C46.3906 36.0762 46.0925 36.1376 45.8123 36.2604C45.537 36.3799 45.2881 36.5535 45.0803 36.7711C44.8724 36.9887 44.7074 37.2469 44.5853 37.5455C44.4633 37.844 44.4023 38.1719 44.4023 38.5292C44.4023 38.8919 44.4619 39.2226 44.5811 39.5212C44.7004 39.8198 44.864 40.0779 45.0721 40.2956C45.2793 40.5127 45.5284 40.6851 45.804 40.802C46.0841 40.922 46.385 40.982 46.7066 40.982ZM46.7066 42.9829C46.0911 42.9829 45.5115 42.8713 44.968 42.6481C44.4244 42.4248 43.949 42.1137 43.5414 41.7146C43.1337 41.3155 42.812 40.8439 42.5763 40.2998C42.3406 39.7556 42.2229 39.1654 42.2229 38.5291C42.2229 37.9097 42.3406 37.3291 42.5763 36.7878C42.8121 36.2464 43.1323 35.7749 43.5372 35.3731C43.942 34.9711 44.4175 34.6545 44.9638 34.4228C45.5101 34.1912 46.0911 34.0753 46.7066 34.0753C47.3221 34.0753 47.9018 34.1912 48.4452 34.4228C48.9888 34.6545 49.4629 34.9711 49.8677 35.3731C50.2727 35.7749 50.5928 36.2466 50.8286 36.7878C51.0643 37.3292 51.182 37.9097 51.182 38.5291C51.182 39.1654 51.0643 39.7556 50.8286 40.2998C50.5929 40.8439 50.2712 41.3155 49.8636 41.7146C49.4559 42.1137 48.9818 42.4248 48.441 42.6481C47.9004 42.8713 47.3222 42.9829 46.7066 42.9829ZM53.1853 33.5716C53.0141 33.5716 52.8523 33.538 52.6998 33.4706C52.5501 33.4052 52.4141 33.3121 52.2986 33.196C52.1833 33.0798 52.0908 32.9429 52.0258 32.7922C51.9588 32.6382 51.9246 32.4717 51.9255 32.3036C51.9255 32.1314 51.9589 31.9672 52.0258 31.8111C52.0901 31.6589 52.1827 31.5204 52.2986 31.4033C52.4141 31.2872 52.5502 31.1941 52.6999 31.1287C52.8529 31.0613 53.0183 31.0269 53.1854 31.0277C53.3565 31.0277 53.5197 31.0613 53.6748 31.1287C53.8261 31.1934 53.9636 31.2866 54.08 31.4033C54.196 31.5205 54.2886 31.6589 54.3529 31.8111C54.4198 31.9672 54.4532 32.1314 54.4532 32.3037C54.4532 32.4759 54.4198 32.6388 54.3529 32.7923C54.2879 32.9429 54.1953 33.0799 54.08 33.196C53.9636 33.3127 53.8261 33.4059 53.6748 33.4706C53.5203 33.5378 53.3536 33.5722 53.1853 33.5716ZM52.1287 34.2428H54.2417V42.8155H52.1287V34.2428ZM55.2132 38.5291C55.2132 37.904 55.3172 37.3208 55.5252 36.7794C55.7331 36.2381 56.0243 35.7665 56.3986 35.3646C56.773 34.9628 57.2208 34.6474 57.7421 34.4187C58.2634 34.1898 58.8346 34.0753 59.4557 34.0753C59.9271 34.0753 60.357 34.1452 60.7451 34.2846C61.1333 34.4242 61.5049 34.6503 61.8598 34.9628V31.6727H63.9728V42.8155H61.8598V42.0955C61.5049 42.4136 61.1333 42.641 60.7451 42.7778C60.3569 42.9145 59.9271 42.9829 59.4557 42.9829C58.8346 42.9829 58.2634 42.8685 57.7421 42.6396C57.2208 42.4109 56.773 42.0955 56.3986 41.6937C56.0243 41.2919 55.7331 40.8202 55.5252 40.2788C55.3172 39.7375 55.2132 39.1543 55.2132 38.5291ZM59.7303 40.982C59.8966 40.982 60.0714 40.964 60.2543 40.9277C60.4374 40.8913 60.6217 40.8299 60.8075 40.7434C60.9934 40.657 61.1749 40.5412 61.3524 40.396C61.5298 40.2509 61.699 40.0723 61.8598 39.8602V37.198C61.699 36.986 61.5298 36.8088 61.3524 36.6664C61.1749 36.5242 60.9934 36.4083 60.8075 36.319C60.6217 36.2297 60.4374 36.1669 60.2543 36.1307C60.0714 36.0943 59.8966 36.0763 59.7303 36.0762C59.4031 36.0762 59.0966 36.1376 58.8111 36.2604C58.5254 36.3832 58.2772 36.5549 58.0666 36.7753C57.8558 36.9957 57.6908 37.2553 57.5716 37.5539C57.4523 37.8525 57.3927 38.1775 57.3927 38.5291C57.3927 38.8808 57.4523 39.2059 57.5716 39.5044C57.6908 39.803 57.8558 40.0626 58.0666 40.283C58.2773 40.5036 58.5255 40.6751 58.811 40.7979C59.0967 40.9206 59.4031 40.982 59.7303 40.982ZM42.0215 36.1659C40.6055 36.1659 39.981 36.9011 39.981 37.9432V42.8155H37.868V38.0018C37.8798 35.9944 39.032 34.0211 42.0215 34.0211" fill="white"/></g><defs><linearGradient id="paint0_linear" x1="-5.29027" y1="-2.35123" x2="73.476" y2="73.476" gradientUnits="userSpaceOnUse"><stop stop-color="#3CD89D"/><stop offset="1" stop-color="#82C444"/></linearGradient><clipPath id="clip0"><rect width="73.476" height="73.476" fill="white"/></clipPath></defs></svg>