<svg xmlns="http://www.w3.org/2000/svg" xmlns:xlink="http://www.w3.org/1999/xlink" id="hero_our_services" data-name="hero our services" width="507.945" height="360.383" viewBox="0 0 541.945 360.383"><defs><linearGradient id="linear-gradient" x1="-0.072" y1="-0.032" x2="1" y2="1" gradientUnits="objectBoundingBox"><stop offset="0" stop-color="#3cd89d"/><stop offset="1" stop-color="#82c444"/></linearGradient></defs><rect id="Rectangle_1190" data-name="Rectangle 1190" width="483.658" height="0.242" transform="translate(24.287 316.699)" fill="#ebebeb"/><rect id="Rectangle_1191" data-name="Rectangle 1191" width="32.038" height="0.242" transform="translate(427.445 332.263)" fill="#ebebeb"/><rect id="Rectangle_1192" data-name="Rectangle 1192" width="8.406" height="0.242" transform="translate(336.276 334.895)" fill="#ebebeb"/><rect id="Rectangle_1193" data-name="Rectangle 1193" width="18.563" height="0.242" transform="translate(407.915 323.287)" fill="#ebebeb"/><rect id="Rectangle_1194" data-name="Rectangle 1194" width="41.778" height="0.242" transform="translate(75.033 324.912)" fill="#ebebeb"/><rect id="Rectangle_1195" data-name="Rectangle 1195" width="6.123" height="0.242" transform="translate(125.43 324.912)" fill="#ebebeb"/><rect id="Rectangle_1196" data-name="Rectangle 1196" width="90.618" height="0.242" transform="translate(151.46 328.994)" fill="#ebebeb"/><path id="Path_6977" data-name="Path 6977" d="M442.6,99.713V96.976l-1.4-.135a7.217,7.217,0,0,0-1.054-2.525l.909-1.093-1.935-1.935-1.093.909a7.4,7.4,0,0,0-2.525-1.054l-.135-1.4h-2.728l-.135,1.4a7.4,7.4,0,0,0-2.525,1.054l-1.093-.909-1.935,1.935.9,1.093A7.38,7.38,0,0,0,426.8,96.84l-1.412.135v2.738l1.412.126a7.38,7.38,0,0,0,1.045,2.525l-.9,1.093,1.935,1.935,1.093-.9a7.2,7.2,0,0,0,2.525,1.045l.135,1.412h2.728l.135-1.412a7.2,7.2,0,0,0,2.525-1.045l1.093.9,1.935-1.935-.909-1.093a7.217,7.217,0,0,0,1.054-2.525Zm-8.6,2.331a3.7,3.7,0,1,1,3.7-3.7,3.7,3.7,0,0,1-3.7,3.7Z" transform="translate(10.384 -56.135)" fill="#e0e0e0"/><text id="_1011100010101000101010101010101010000000111111001011110101" data-name="1011100010101000101010101010101010000000111111001011110101" transform="translate(86.302 21.06)" fill="#e0e0e0" font-size="10" font-family="SegoeUI, Segoe UI"><tspan x="0" y="0">1</tspan><tspan y="0">011</tspan><tspan y="0">100</tspan><tspan y="0">0</tspan><tspan y="0">1</tspan><tspan y="0">0</tspan><tspan y="0">1</tspan><tspan y="0">0</tspan><tspan y="0">100</tspan><tspan y="0">0</tspan><tspan y="0">1</tspan><tspan y="0">0</tspan><tspan y="0">1</tspan><tspan y="0">0</tspan><tspan y="0">1</tspan><tspan y="0">0</tspan><tspan y="0">1</tspan><tspan y="0">0</tspan><tspan y="0">1</tspan><tspan y="0">0</tspan><tspan y="0">1</tspan><tspan y="0">0</tspan><tspan y="0">1</tspan><tspan y="0">0</tspan><tspan y="0">1</tspan><tspan y="0">0</tspan><tspan y="0">1000000</tspan><tspan y="0">011111</tspan><tspan y="0">10</tspan><tspan y="0">0</tspan><tspan y="0">1</tspan><tspan y="0">0111</tspan><tspan y="0">1</tspan><tspan y="0">0</tspan><tspan y="0">1</tspan><tspan y="0">0</tspan><tspan y="0">1</tspan></text><text id="_1011100010101000101010101000111110101010000111010100000" data-name="1011100010101000101010101000111110101010000111010100000" transform="translate(162.188 254.077)" fill="#e0e0e0" font-size="10" font-family="SegoeUI, Segoe UI"><tspan x="0" y="0">1</tspan><tspan y="0">011</tspan><tspan y="0">100</tspan><tspan y="0">0</tspan><tspan y="0">1</tspan><tspan y="0">0</tspan><tspan y="0">1</tspan><tspan y="0">0</tspan><tspan y="0">100</tspan><tspan y="0">0</tspan><tspan y="0">1</tspan><tspan y="0">0</tspan><tspan y="0">1</tspan><tspan y="0">0</tspan><tspan y="0">1</tspan><tspan y="0">0</tspan><tspan y="0">1</tspan><tspan y="0">0</tspan><tspan y="0">100</tspan><tspan y="0">01111</tspan><tspan y="0">1</tspan><tspan y="0">0</tspan><tspan y="0">1</tspan><tspan y="0">0</tspan><tspan y="0">1</tspan><tspan y="0">0</tspan><tspan y="0">1000</tspan><tspan y="0">011</tspan><tspan y="0">1</tspan><tspan y="0">0</tspan><tspan y="0">1</tspan><tspan y="0">0</tspan><tspan y="0">10000</tspan><tspan y="0">0</tspan></text><text id="_01010100010101010000000111111001011110101" data-name="01010100010101010000000111111001011110101" transform="translate(106.944 56.88)" fill="#e0e0e0" font-size="10" font-family="SegoeUI, Segoe UI"><tspan x="0" y="0">0</tspan><tspan y="0">1</tspan><tspan y="0">0</tspan><tspan y="0">1</tspan><tspan y="0">0</tspan><tspan y="0">100</tspan><tspan y="0">0</tspan><tspan y="0">1</tspan><tspan y="0">0</tspan><tspan y="0">1</tspan><tspan y="0">0</tspan><tspan y="0">1</tspan><tspan y="0">0</tspan><tspan y="0">1000000</tspan><tspan y="0">011111</tspan><tspan y="0">10</tspan><tspan y="0">0</tspan><tspan y="0">1</tspan><tspan y="0">0111</tspan><tspan y="0">1</tspan><tspan y="0">0</tspan><tspan y="0">1</tspan><tspan y="0">0</tspan><tspan y="0">1</tspan></text><text id="_01010100010101010000000111111001011110101-2" data-name="01010100010101010000000111111001011110101" transform="translate(182.192 294.898)" fill="#e0e0e0" font-size="10" font-family="SegoeUI, Segoe UI"><tspan x="0" y="0">0</tspan><tspan y="0">1</tspan><tspan y="0">0</tspan><tspan y="0">1</tspan><tspan y="0">0</tspan><tspan y="0">100</tspan><tspan y="0">0</tspan><tspan y="0">1</tspan><tspan y="0">0</tspan><tspan y="0">1</tspan><tspan y="0">0</tspan><tspan y="0">1</tspan><tspan y="0">0</tspan><tspan y="0">1000000</tspan><tspan y="0">011111</tspan><tspan y="0">10</tspan><tspan y="0">0</tspan><tspan y="0">1</tspan><tspan y="0">0111</tspan><tspan y="0">1</tspan><tspan y="0">0</tspan><tspan y="0">1</tspan><tspan y="0">0</tspan><tspan y="0">1</tspan></text><text id="_01010100010101010000000111111001011110101-3" data-name="01010100010101010000000111111001011110101" transform="translate(244.168 273.297)" fill="#e0e0e0" font-size="10" font-family="SegoeUI, Segoe UI"><tspan x="0" y="0">0</tspan><tspan y="0">1</tspan><tspan y="0">0</tspan><tspan y="0">1</tspan><tspan y="0">0</tspan><tspan y="0">100</tspan><tspan y="0">0</tspan><tspan y="0">1</tspan><tspan y="0">0</tspan><tspan y="0">1</tspan><tspan y="0">0</tspan><tspan y="0">1</tspan><tspan y="0">0</tspan><tspan y="0">1000000</tspan><tspan y="0">011111</tspan><tspan y="0">10</tspan><tspan y="0">0</tspan><tspan y="0">1</tspan><tspan y="0">0111</tspan><tspan y="0">1</tspan><tspan y="0">0</tspan><tspan y="0">1</tspan><tspan y="0">0</tspan><tspan y="0">1</tspan></text><text id="_010101000101010101010101010000000111111001011110101" data-name="010101000101010101010101010000000111111001011110101" transform="translate(106.944 74.843)" fill="#e0e0e0" font-size="10" font-family="SegoeUI, Segoe UI"><tspan x="0" y="0">0</tspan><tspan y="0">1</tspan><tspan y="0">0</tspan><tspan y="0">1</tspan><tspan y="0">0</tspan><tspan y="0">100</tspan><tspan y="0">0</tspan><tspan y="0">1</tspan><tspan y="0">0</tspan><tspan y="0">1</tspan><tspan y="0">0</tspan><tspan y="0">1</tspan><tspan y="0">0</tspan><tspan y="0">1</tspan><tspan y="0">0</tspan><tspan y="0">1</tspan><tspan y="0">0</tspan><tspan y="0">1</tspan><tspan y="0">0</tspan><tspan y="0">1</tspan><tspan y="0">0</tspan><tspan y="0">1</tspan><tspan y="0">0</tspan><tspan y="0">1000000</tspan><tspan y="0">011111</tspan><tspan y="0">10</tspan><tspan y="0">0</tspan><tspan y="0">1</tspan><tspan y="0">0111</tspan><tspan y="0">1</tspan><tspan y="0">0</tspan><tspan y="0">1</tspan><tspan y="0">0</tspan><tspan y="0">1</tspan></text><ellipse id="freepik--path--inject-85" cx="187.553" cy="10.95" rx="187.553" ry="10.95" transform="translate(78.563 338.483)" fill="#f5f5f5"/><path id="Path_6980" data-name="Path 6980" d="M433.966,92.329V287a9.054,9.054,0,0,1-8.706,8.841H145.116c-4.653,0-8.116-4.179-8.116-8.841V92.329A8.087,8.087,0,0,1,145.116,84H425.26A8.619,8.619,0,0,1,433.966,92.329Z" transform="translate(19.81 -55.948)" fill="#333"/><path id="Path_6981" data-name="Path 6981" d="M433.966,117.69V288.1a9.054,9.054,0,0,1-8.706,8.841H145.116c-4.653,0-8.116-4.179-8.116-8.841V221.773c24.647-47.4,83.4-55.079,152.188-27.365C386.568,233.642,428.094,180.391,433.966,117.69Z" transform="translate(19.809 -57.049)" fill="#fff" opacity="0.1"/><path id="Path_6982" data-name="Path 6982" d="M359.955,279.673H217.837A4.837,4.837,0,0,1,213,274.837h0A4.837,4.837,0,0,1,217.837,270H359.955a4.837,4.837,0,0,1,4.837,4.837h0A4.837,4.837,0,0,1,359.955,279.673Z" transform="translate(17.326 -62.027)" fill="#fff"/><path id="Path_6984" data-name="Path 6984" d="M217.651,278.739a3.876,3.876,0,0,1,0-7.739h79.263a3.876,3.876,0,0,1,0,7.739Z" transform="translate(17.293 -62.06)" fill="url(#linear-gradient)"/><g id="freepik--group--inject-85" transform="translate(0 130.926)"><path id="Path_6985" data-name="Path 6985" d="M161.793,287.26c10.981,8.825,7.152,50.945,9.213,57.425s10.9,11.782,10.9,11.782L169.581,370.9s-10.309-1.791-18.144-18.58S161.793,287.26,161.793,287.26Z" transform="translate(-74.041 -233.287)" fill="#263238"/><path id="Path_6986" data-name="Path 6986" d="M161.793,287.26c10.981,8.825,7.152,50.945,9.213,57.425s10.9,11.782,10.9,11.782L169.581,370.9s-10.309-1.791-18.144-18.58S161.793,287.26,161.793,287.26Z" transform="translate(-74.041 -233.287)" opacity="0.2"/><path id="Path_6987" data-name="Path 6987" d="M159.13,367.005s78.939-22.02,88.812,5.679-61.714,49.767-101.336,51.169-55.811-26.5-44.123-52.924Z" transform="translate(-83.078 -220.556)" fill="#333"/><path id="Path_6988" data-name="Path 6988" d="M159.13,367.005s78.939-22.02,88.812,5.679-61.714,49.767-101.336,51.169-55.811-26.5-44.123-52.924Z" transform="translate(-83.078 -220.556)" opacity="0.2"/><path id="Path_6989" data-name="Path 6989" d="M215.728,404.544a.271.271,0,0,1-.295,0,.2.2,0,0,1-.071-.247c.13-.436,1.449-4.253,2.769-4.654a.872.872,0,0,1,.8.236,1.355,1.355,0,0,1,.46,1.284,3.535,3.535,0,0,1-1.237,1.791,15.251,15.251,0,0,1-2.427,1.591Zm.342-.742a5.608,5.608,0,0,0,2.816-2.722.86.86,0,0,0-.33-.872.259.259,0,0,0-.306-.083.719.719,0,0,0-.306.177,10.8,10.8,0,0,0-1.826,3.5Z" transform="translate(-62.304 -213.265)" fill="#333"/><path id="Path_6990" data-name="Path 6990" d="M215.9,404.633a.236.236,0,0,1-.247-.071c-.13-.106-1.956-2.427-1.649-3.982a1.473,1.473,0,0,1,.624-.954.848.848,0,0,1,1.06-.094c.954.672.836,3.758.365,4.937v.118Zm-1.049-4.536a.966.966,0,0,0-.306.554c-.2.99.719,2.474,1.178,3.181.295-1.32.2-3.535-.365-3.876a.409.409,0,0,0-.459.071l-.094.071Z" transform="translate(-62.549 -213.307)" fill="#333"/><path id="Path_6991" data-name="Path 6991" d="M147.486,415.721a.283.283,0,0,1,.212-.2.212.212,0,0,1,.224.13c.236.4,2.038,4.006,1.39,5.231a.8.8,0,0,1-.719.4,1.32,1.32,0,0,1-1.237-.554,3.535,3.535,0,0,1-.412-2.144,14.964,14.964,0,0,1,.542-2.863Zm.283.754a5.691,5.691,0,0,0,0,3.923.872.872,0,0,0,.86.377.3.3,0,0,0,.283-.165,1.179,1.179,0,0,0,.083-.342,11.158,11.158,0,0,0-1.225-3.794Z" transform="translate(-74.497 -210.432)" fill="#333"/><path id="Path_6992" data-name="Path 6992" d="M166.756,393.07l-13.962,10.239-6.7,4.913,4.371,7.646,6.81-3.723,16.624-9.1Z" transform="translate(-74.645 -214.432)" fill="#ebb376"/><path id="Path_6993" data-name="Path 6993" d="M154.3,413.715l-4.218-9.3a1,1,0,0,0-1.355-.483l-4.548,2.227s-6.327,2.557-7.069,4.607c-2.356,6.009,6.468,26.8,9.213,26.816,1,0,1.6-1.555,1.744-2.545.436-3.158.518-11.075.919-13.7.471-3.063,3.535-5.42,5.007-6.362A1.013,1.013,0,0,0,154.3,413.715Z" transform="translate(-76.315 -212.515)" fill="#263238"/><path id="Path_6994" data-name="Path 6994" d="M147.411,415.64a.247.247,0,0,1,.224-.13c.165,0,3.1.295,4.006,1.6a1.508,1.508,0,0,1,.236,1.119.848.848,0,0,1-.672.825c-1.178.212-3.275-2.026-3.782-3.181v-.106a.248.248,0,0,1-.012-.13Zm3.971,2.427a.942.942,0,0,0-.177-.613c-.565-.825-2.274-1.178-3.122-1.355.73,1.178,2.356,2.592,3.016,2.462.071,0,.212,0,.271-.377v-.118Z" transform="translate(-74.41 -210.434)" fill="#333"/><path id="Path_6995" data-name="Path 6995" d="M165.742,393.07,151.78,403.309l4.477,8.836,16.624-9.1Z" transform="translate(-73.631 -214.432)" opacity="0.2"/><path id="Path_6996" data-name="Path 6996" d="M159.383,412.108l4.595-1.025-7.623-14.562-4.265,4.347Z" transform="translate(-73.576 -213.818)" fill="#333"/><path id="Path_6997" data-name="Path 6997" d="M159.383,412.108l4.595-1.025-7.623-14.562-4.265,4.347Z" transform="translate(-73.576 -213.818)" fill="#fff" opacity="0.6"/><path id="Path_6998" data-name="Path 6998" d="M188.15,409.857l17.084,2.816,8.212,1.355,2.392-8.483-7.423-2.25-18.121-5.514Z" transform="translate(-67.15 -213.593)" fill="#ebb376"/><path id="Path_6999" data-name="Path 6999" d="M210.8,404.906l-3.7,9.508a1.025,1.025,0,0,0,.6,1.32l4.772,1.685s6.256,2.733,8.247,1.862c5.891-2.545,14.633-23.375,12.713-25.343-.707-.719-2.227-.059-3.04.542-2.557,1.885-8.247,7.376-10.427,8.919-2.521,1.814-6.374,1.249-8.047.884a.99.99,0,0,0-1.119.624Z" transform="translate(-63.785 -214.334)" fill="#263238"/><path id="Path_7000" data-name="Path 7000" d="M188.15,409.857l17.084,2.816,3.181-9.378-18.121-5.514Z" transform="translate(-67.15 -213.593)" opacity="0.2"/><path id="Path_7001" data-name="Path 7001" d="M220.521,407.171s-71.021-41.9-95.056-40.777-26.121,24.99-16.212,38.244,28.277,16.495,28.277,16.495-12.465-17.673-10.663-22.574,8.672,11.711,8.672,11.711,44.005,5.761,82.344,9.013Z" transform="translate(-82.202 -219.19)" fill="#333"/><path id="Path_7002" data-name="Path 7002" d="M205.173,400.441l-3.947-2.651-5.066,15.564h6.079Z" transform="translate(-65.723 -213.591)" fill="#333"/><path id="Path_7003" data-name="Path 7003" d="M205.173,400.441l-3.947-2.651-5.066,15.564h6.079Z" transform="translate(-65.723 -213.591)" fill="#fff" opacity="0.6"/><path id="Path_7004" data-name="Path 7004" d="M169,388.23c-12.854-24.742-8.766-62.385,2.356-99.84-7.776-6.492-38.8-10.875-62.444-3.994,0,0-15.01,55.622-13.243,116.382Z" transform="translate(-83.655 -234.417)" fill="#263238"/><path id="Path_7005" data-name="Path 7005" d="M137.31,296.941c-10.333,0-17.06-10.839-17.06-10.839,13.549-4.713,13.6-19.051,13.6-19.051l5.219,5.1,7.434,7.281c-6.186,4.383-3.264,8.177-1.3,9.861a9.044,9.044,0,0,0,1.3.966S147.643,296.941,137.31,296.941Z" transform="translate(-79.249 -236.888)" fill="#ebb376"/><path id="Path_7006" data-name="Path 7006" d="M143.214,288.586c-12.677,1.426-11.782-17.555-11.782-17.555a32.267,32.267,0,0,1,5.679.412l7.434,7.281C138.324,283.107,141.246,286.9,143.214,288.586Z" transform="translate(-77.259 -236.18)" opacity="0.2"/><path id="Path_7007" data-name="Path 7007" d="M150.273,255.294c-4.8,1.979-3.876,7.222,4.088,16.777,4.9-4.23,7.564-13.844,4.984-16.931S154.467,253.538,150.273,255.294Z" transform="translate(-74.421 -239.329)" fill="#263238"/><path id="Path_7008" data-name="Path 7008" d="M160.164,277.442h0a33.5,33.5,0,0,1-1.532,3.747c-4.713,9.649-18.356,11.523-24.389,1.979l-.071-.094c-3.982-6.421-2.486-12.418-.825-22.81a14.374,14.374,0,0,1,22.386-9.638C163.675,256.152,163.2,268.57,160.164,277.442Z" transform="translate(-77.22 -240.27)" fill="#ebb376"/><path id="Path_7009" data-name="Path 7009" d="M145.549,263.947c-.189.837.106,1.614.648,1.732s1.178-.448,1.32-1.284-.106-1.6-.636-1.732S145.784,263.134,145.549,263.947Z" transform="translate(-74.751 -237.673)" fill="#263238"/><path id="Path_7010" data-name="Path 7010" d="M153.589,265.768c-.189.825.106,1.6.66,1.72s1.178-.436,1.331-1.284-.118-1.614-.66-1.732S153.777,264.932,153.589,265.768Z" transform="translate(-73.319 -237.35)" fill="#263238"/><path id="Path_7011" data-name="Path 7011" d="M151.153,265.31a30.492,30.492,0,0,0,2.356,8.035c-1.814,1.037-4.159-.153-4.159-.153Z" transform="translate(-74.064 -237.198)" fill="#d58745"/><path id="Path_7012" data-name="Path 7012" d="M143.977,261.045a.436.436,0,0,1-.295-.141.495.495,0,0,1,0-.707,4.96,4.96,0,0,1,4.442-1.178.483.483,0,0,1,.342.589h0a.53.53,0,0,1-.624.342h0a3.947,3.947,0,0,0-3.535.931A.518.518,0,0,1,143.977,261.045Z" transform="translate(-75.1 -238.341)" fill="#263238"/><path id="Path_7013" data-name="Path 7013" d="M158.3,264.315a.53.53,0,0,1-.377-.389,3.994,3.994,0,0,0-2.262-2.828.518.518,0,0,1-.306-.648.507.507,0,0,1,.636-.306,4.984,4.984,0,0,1,2.9,3.535.495.495,0,0,1-.365.6H158.3Z" transform="translate(-72.999 -238.124)" fill="#263238"/><path id="Path_7014" data-name="Path 7014" d="M139.894,251.954c4.418,2.722,2.674,7.752-6.7,15.906-4.183-4.948-5.278-14.881-2.227-17.5S136.03,249.586,139.894,251.954Z" transform="translate(-77.65 -240.09)" fill="#263238"/><path id="Path_7015" data-name="Path 7015" d="M127.381,265.247a9.968,9.968,0,0,0,3.334,6.881c2.639,2.356,5.455.306,5.985-2.969.483-2.957-.33-7.717-3.535-8.754S127.2,262.007,127.381,265.247Z" transform="translate(-77.98 -238.113)" fill="#ebb376"/><path id="Path_7016" data-name="Path 7016" d="M142.53,272.09s1.084,3.747,6.1,4.619" transform="translate(-75.279 -235.99)" fill="none" stroke="#263238" stroke-linecap="round" stroke-linejoin="round" stroke-width="0.557"/><path id="Path_7017" data-name="Path 7017" d="M151.259,265.9a3.535,3.535,0,1,1-3.535-3.535A3.535,3.535,0,0,1,151.259,265.9Z" transform="translate(-74.983 -237.722)" fill="none" stroke="#263238" stroke-linecap="round" stroke-linejoin="round" stroke-width="0.557"/><path id="Path_7018" data-name="Path 7018" d="M159.429,267.585a3.535,3.535,0,1,1-3.535-3.535A3.535,3.535,0,0,1,159.429,267.585Z" transform="translate(-73.528 -237.423)" fill="none" stroke="#263238" stroke-linecap="round" stroke-linejoin="round" stroke-width="0.557"/><path id="Path_7019" data-name="Path 7019" d="M150.19,266.224a1.885,1.885,0,0,1,2.486.66" transform="translate(-73.914 -237.075)" fill="none" stroke="#263238" stroke-linecap="round" stroke-linejoin="round" stroke-width="0.557"/><path id="Path_7020" data-name="Path 7020" d="M146.027,265.463s-10.238-4.312-12.147-4.713" transform="translate(-76.821 -238.011)" fill="none" stroke="#263238" stroke-linecap="round" stroke-linejoin="round" stroke-width="0.557"/><path id="Path_7021" data-name="Path 7021" d="M130.616,251.865s-1.06-8.318,7.434-9.7,19.605.754,23.045-.719a5.408,5.408,0,0,1-2.439,3.605s6.48,2.356,11.582.33c0,0-2.215,6.138-5.078,8.495H167.6s-4.831,4.618-10.71,4.713-11.417-8-17.237-5.278S130.616,251.865,130.616,251.865Z" transform="translate(-77.41 -241.45)" fill="#263238"/><path id="Path_7022" data-name="Path 7022" d="M160.018,274.985h0a33.5,33.5,0,0,1-1.532,3.747c-4.713,9.649-18.356,11.523-24.389,1.979l-.071-.094c-3.11-5.526-.624-11.558-.624-11.558l1.814-5.891,1.32-1.308s.306,5.973,1.237,7.658,6.233,2.18,7.317,2.474,3.652,3.358,4.925,4.183,5.891.141,6.492.825S160.018,274.985,160.018,274.985Z" transform="translate(-77.073 -237.813)" opacity="0.4"/><path id="Path_7023" data-name="Path 7023" d="M110.89,353.5l24.436,27.1s27-.6,59.805,15.434c0,0,35.193-14.539,38.433-26.615s-73.884-3.535-73.884-3.535Z" transform="translate(-80.917 -221.484)" opacity="0.2"/><path id="Path_7024" data-name="Path 7024" d="M117.463,346.75l39.175,12.819s14-3.1,16.495-3.1,12.171,7.859,6.7,10.6-20.395,3.1-22.02,2.215-45.066-11.051-45.066-11.051Z" transform="translate(-80.586 -222.686)" fill="#ebb376"/><path id="Path_7025" data-name="Path 7025" d="M110.71,283.876c8.86-1.72-6.515,52.288-2.745,60.241s18.486,12.96,18.486,12.96l-6.775,14.951s-20.029-3.782-30.928-17.673S96.242,286.68,110.71,283.876Z" transform="translate(-85.45 -233.897)" fill="#263238"/><path id="Path_7026" data-name="Path 7026" d="M110.71,283.876c8.86-1.72-6.515,52.288-2.745,60.241s18.486,12.96,18.486,12.96l-6.775,14.951s-20.029-3.782-30.928-17.673S96.242,286.68,110.71,283.876Z" transform="translate(-85.45 -233.897)" opacity="0.2"/><path id="Path_7027" data-name="Path 7027" d="M121.5,345l-8.247,16.153,7.069,1.52L126.8,347.8Z" transform="translate(-80.497 -222.998)" fill="#263238"/><path id="Path_7028" data-name="Path 7028" d="M121.5,345l-8.247,16.153,7.069,1.52L126.8,347.8Z" transform="translate(-80.497 -222.998)" fill="#fff" opacity="0.2"/><path id="Path_7029" data-name="Path 7029" d="M134,364v2.568a3.334,3.334,0,0,0,3.181,3.323H231.9a3.535,3.535,0,0,0,3.429-3.322V364Z" transform="translate(-76.799 -219.613)" fill="#263238"/><path id="Path_7030" data-name="Path 7030" d="M134,364v2.568a3.334,3.334,0,0,0,3.181,3.323H231.9a3.535,3.535,0,0,0,3.429-3.322V364Z" transform="translate(-76.799 -219.613)" fill="#fff" opacity="0.2"/><path id="Path_7031" data-name="Path 7031" d="M164,364v2.568a3.346,3.346,0,0,0,3.193,3.323H226.55a3.534,3.534,0,0,0,3.429-3.322V364Z" transform="translate(-71.453 -219.613)" fill="#fff" opacity="0.2"/><path id="Path_7032" data-name="Path 7032" d="M167.1,374.841h62.574a5.1,5.1,0,0,0,4.548-3.358l14.35-45.019A2.486,2.486,0,0,0,246.219,323H183.6a5.231,5.231,0,0,0-4.548,3.464l-14.35,44.96a2.451,2.451,0,0,0,2.4,3.417Z" transform="translate(-71.364 -226.919)" fill="#263238"/><path id="Path_7033" data-name="Path 7033" d="M167.1,374.841h62.574a5.1,5.1,0,0,0,4.548-3.358l14.35-45.019A2.486,2.486,0,0,0,246.219,323H183.6a5.231,5.231,0,0,0-4.548,3.464l-14.35,44.96a2.451,2.451,0,0,0,2.4,3.417Z" transform="translate(-71.364 -226.919)" fill="#fff" opacity="0.2"/><path id="Path_7034" data-name="Path 7034" d="M169.1,374.841h60.217a5.1,5.1,0,0,0,4.548-3.358l14.35-45.019A2.486,2.486,0,0,0,245.863,323H185.6a5.231,5.231,0,0,0-4.548,3.464l-14.35,44.96a2.451,2.451,0,0,0,2.4,3.417Z" transform="translate(-71.008 -226.919)" fill="#fff" opacity="0.2"/><path id="Path_7035" data-name="Path 7035" d="M206.63,340.81l-8.66,6.138,3.747,6.127,8.66-6.127Z" transform="translate(-65.4 -223.745)" fill="url(#linear-gradient)"/></g><g id="serviceicon"><rect id="Rectangle_1197" data-name="Rectangle 1197" width="81.961" height="81.961" rx="8.74" transform="translate(184.978 37.435)" opacity="0.2"/><rect id="Rectangle_1198" data-name="Rectangle 1198" width="68.679" height="68.679" rx="7.33" transform="translate(207.961 28.439)" fill="#333"/><g id="Group_8336" data-name="Group 8336" transform="translate(207.961 28.439)" class=""><rect id="Rectangle_1200" data-name="Rectangle 1200" width="68.679" height="68.679" rx="7.33" transform="translate(2.902)" fill="#fff" opacity="0.2"/><rect id="Rectangle_1199" data-name="Rectangle 1199" width="68.679" height="68.679" rx="7.33" fill="#fff"/><g id="Group_8332" data-name="Group 8332" transform="translate(13.513 11.221)"><path id="Path_7036" data-name="Path 7036" d="M229.968,111.187v-4.15l-2.138-.2a11.028,11.028,0,0,0-1.6-3.869l1.374-1.664-2.9-2.9-1.654,1.374a11.153,11.153,0,0,0-3.869-1.6L218.969,96h-4.15l-.184,2.176a11.153,11.153,0,0,0-3.869,1.6L209.112,98.4l-2.9,2.9,1.374,1.664a11.027,11.027,0,0,0-1.6,3.869l-2.138.2v4.15l2.138.2a11.153,11.153,0,0,0,1.6,3.869l-1.374,1.664,2.9,2.9,1.654-1.374a11.153,11.153,0,0,0,3.869,1.6l.2,2.138h4.15l.2-2.138a11.153,11.153,0,0,0,3.869-1.6l1.654,1.374,2.9-2.9-1.374-1.693a11.154,11.154,0,0,0,1.6-3.869Zm-13.068,3.55a5.63,5.63,0,1,1,5.62-5.62,5.63,5.63,0,0,1-5.62,5.62Z" transform="translate(-203.85 -96)" fill="url(#linear-gradient)"/><path id="Path_7037" data-name="Path 7037" d="M247.558,123.429v-3.26l-1.673-.155a8.629,8.629,0,0,0-1.248-3.008l1.074-1.3-2.264-2.3-1.3,1.074a8.629,8.629,0,0,0-3.008-1.248l-.155-1.683h-3.279l-.155,1.683a8.628,8.628,0,0,0-3.008,1.248l-1.3-1.074-2.312,2.3,1.074,1.3a8.628,8.628,0,0,0-1.248,3.008l-1.673.155v3.26l1.673.155a8.628,8.628,0,0,0,1.248,3.008l-1.074,1.3,2.3,2.3,1.3-1.074a8.629,8.629,0,0,0,3.008,1.248l.155,1.673h3.26l.155-1.673a8.629,8.629,0,0,0,3.008-1.248l1.3,1.074,2.3-2.3-1.074-1.3a8.629,8.629,0,0,0,1.248-3.008ZM237.315,126.2a4.411,4.411,0,1,1,4.411-4.411,4.411,4.411,0,0,1-4.411,4.411Z" transform="translate(-204.61 -96.508)" fill="url(#linear-gradient)"/><path id="Path_7038" data-name="Path 7038" d="M230.268,133.043v-2.737l-1.412-.126a7.2,7.2,0,0,0-1.045-2.525l.9-1.093-1.935-1.935-1.093.9a7.352,7.352,0,0,0-2.525-1.045l-.135-1.412h-2.738l-.135,1.412a7.352,7.352,0,0,0-2.525,1.045l-1.093-.9-1.935,1.935.9,1.093a7.2,7.2,0,0,0-1.045,2.525l-1.412.126v2.737l1.412.135A7.352,7.352,0,0,0,215.5,135.7l-.9,1.093,1.935,1.935,1.093-.9a7.564,7.564,0,0,0,2.525,1.054l.135,1.4h2.738l.135-1.4a7.564,7.564,0,0,0,2.525-1.054l1.093.9,1.935-1.935-.9-1.093a7.351,7.351,0,0,0,1.045-2.525Zm-8.561,2.331a3.7,3.7,0,1,1,3.7-3.7A3.7,3.7,0,0,1,221.707,135.374Z" transform="translate(-204.15 -96.885)" fill="url(#linear-gradient)"/></g></g><rect id="Rectangle_1202" data-name="Rectangle 1202" width="63.485" height="63.485" rx="6.77" transform="translate(327.715 112.934)" fill="#333"/><g id="Group_8340" data-name="Group 8340" transform="translate(327.715 112.934)"><rect id="Rectangle_1204" data-name="Rectangle 1204" width="63.485" height="63.485" rx="6.77" transform="translate(2.679)" fill="#fff" opacity="0.2"/><rect id="Rectangle_1203" data-name="Rectangle 1203" width="63.485" height="63.485" rx="6.77" fill="#fff"/><g id="Group_8334" data-name="Group 8334" transform="translate(8.919 19.075)"><path id="Path_7039" data-name="Path 7039" d="M348.845,215.033a2.293,2.293,0,1,1-2.283-2.293,2.293,2.293,0,0,1,2.283,2.293Z" transform="translate(-323.598 -192.165)" fill="url(#linear-gradient)"/><path id="Path_7040" data-name="Path 7040" d="M345.661,191.47A22.751,22.751,0,0,0,322.9,214.231h18.176a4.285,4.285,0,0,1,4.585-4.488,4.943,4.943,0,0,1,1.364.261l8.522-9.9-6.017,11.7a4.314,4.314,0,0,1,.706,2.418h18.224a22.761,22.761,0,0,0-22.8-22.761Z" transform="translate(-322.9 -191.47)" fill="url(#linear-gradient)"/></g></g><rect id="Rectangle_1206" data-name="Rectangle 1206" width="55.708" height="55.708" rx="5.94" transform="translate(353.3 50.571)" fill="#333"/><g id="Group_8338" data-name="Group 8338" transform="translate(353.3 50.571)"><rect id="Rectangle_1208" data-name="Rectangle 1208" width="55.708" height="55.708" rx="5.94" transform="translate(2.36)" fill="#fff" opacity="0.2"/><rect id="Rectangle_1207" data-name="Rectangle 1207" width="55.708" height="55.708" rx="5.94" fill="#fff"/><g id="Group_8333" data-name="Group 8333" transform="translate(12.449 12.304)"><path id="Path_7041" data-name="Path 7041" d="M383.954,121.828A1.828,1.828,0,0,0,382.126,120h-27.3A1.828,1.828,0,0,0,353,121.828v6.017a1.828,1.828,0,0,0,1.828,1.828h27.3a1.828,1.828,0,0,0,1.828-1.828Zm-9.015,3.26h-1.567v-1.567h1.567Zm4.188.784a1.573,1.573,0,1,0-.01,0Z" transform="translate(-353 -120)" fill="url(#linear-gradient)"/><path id="Path_7042" data-name="Path 7042" d="M383.954,132.828A1.828,1.828,0,0,0,382.126,131h-27.3A1.828,1.828,0,0,0,353,132.828v6.017a1.828,1.828,0,0,0,1.828,1.828h27.3a1.828,1.828,0,0,0,1.828-1.828Zm-9.015,3.869h-1.567V135.13h1.567Zm4.188.784a.649.649,0,1,0-.01-.01Z" transform="translate(-353 -120.36)" fill="url(#linear-gradient)"/><path id="Path_7043" data-name="Path 7043" d="M383.954,143.828A1.828,1.828,0,0,0,382.126,142h-27.3A1.828,1.828,0,0,0,353,143.828v6.017a1.828,1.828,0,0,0,1.828,1.828h27.3a1.828,1.828,0,0,0,1.828-1.828Zm-9.015,4.469h-1.567V146.73h1.567Zm4.188.784a1.579,1.579,0,1,0-.01,0Z" transform="translate(-353 -120.719)" fill="url(#linear-gradient)"/></g></g><rect id="Rectangle_1210" data-name="Rectangle 1210" width="68.679" height="68.679" rx="7.33" transform="translate(246.276 102.12)" fill="#333"/><g id="Group_8339" data-name="Group 8339" transform="translate(246.276 102.12)"><rect id="Rectangle_1212" data-name="Rectangle 1212" width="68.679" height="68.679" rx="7.33" transform="translate(2.902)" fill="#fff" opacity="0.2"/><rect id="Rectangle_1211" data-name="Rectangle 1211" width="68.679" height="68.679" rx="7.33" fill="#fff"/><g id="Group_8331" data-name="Group 8331" transform="translate(13.726 13.881)"><path id="Path_7044" data-name="Path 7044" d="M245.3,214.85h0a5.369,5.369,0,0,1,0-7.593l12.575-12.517a3.008,3.008,0,0,1,4.276,0l3.308,3.3a3.018,3.018,0,0,1,0,4.285L252.929,214.85a5.349,5.349,0,0,1-7.632,0Z" transform="translate(-243.681 -175.539)" fill="url(#linear-gradient)"/><path id="Path_7045" data-name="Path 7045" d="M269.127,193.668,266.66,191.2l14.152-14.152,3.086-.619-.619,3.086Z" transform="translate(-244.431 -174.969)" fill="url(#linear-gradient)"/><path id="Path_7046" data-name="Path 7046" d="M267.613,197.435l-4.353-4.363a.967.967,0,0,1,0-1.4h0a.967.967,0,0,1,1.412,0l4.353,4.353a.967.967,0,0,1,0,1.412h0a.967.967,0,0,1-1.412,0Z" transform="translate(-244.31 -175.457)" fill="url(#linear-gradient)"/><path id="Path_7047" data-name="Path 7047" d="M261.121,188.54l-5.968-5.988c1.112-2.989-1.141-6.665-3.589-7.632l-.048,4.6a1.935,1.935,0,1,1-3.869,0V175a6.365,6.365,0,0,0-3.966,5.572,5.91,5.91,0,0,0,5.165,5.8,5.1,5.1,0,0,0,2.9-.406L257.764,192Z" transform="translate(-243.68 -174.92)" fill="url(#linear-gradient)"/><path id="Path_7048" data-name="Path 7048" d="M281.794,212.045v4.575a6.365,6.365,0,0,0,3.966-5.572,5.92,5.92,0,0,0-5.03-5.891,4.653,4.653,0,0,0-2.757.271l-6.249-6.268-3.424,3.424,6.21,6.22c-1.8,3.676.967,6.771,3.453,7.739V212a1.916,1.916,0,1,1,3.831.048Z" transform="translate(-244.485 -175.712)" fill="url(#linear-gradient)"/></g></g><g id="Group_8337" data-name="Group 8337" transform="translate(284.901 6.907)"><rect id="Rectangle_1216" data-name="Rectangle 1216" width="82.783" height="82.783" rx="8.83" transform="translate(86.275 82.783) rotate(180)" fill="#fff" opacity="0.2"/><rect id="Rectangle_1215" data-name="Rectangle 1215" width="82.783" height="82.783" rx="8.83" transform="translate(82.783 82.783) rotate(180)" fill="#fff"/><path id="Path_7049" data-name="Path 7049" d="M311.324,78.41,286,88.354s3.2,34.823,25.353,41.353c22.161-6.529,25.363-41.353,25.363-41.353Zm-.638,33.721a1.79,1.79,0,0,1-1.4.706h0a1.76,1.76,0,0,1-1.4-.735l-8.89-12.256a1.752,1.752,0,0,1,2.834-2.06l7.506,10.331L321.6,91.923a1.751,1.751,0,0,1,2.447-.339,1.935,1.935,0,0,1,.339,2.563Z" transform="translate(-269.962 -62.672)" fill="url(#linear-gradient)"/></g></g><rect id="Rectangle_1217" data-name="Rectangle 1217" width="82.464" height="55.65" transform="translate(360.729 222.415)" fill="#fff"/><rect id="Rectangle_1218" data-name="Rectangle 1218" width="82.464" height="55.65" transform="translate(360.729 222.415)" fill="url(#linear-gradient)"/><rect id="Rectangle_1219" data-name="Rectangle 1219" width="79.194" height="49.507" transform="translate(362.258 226.7)" fill="#fff"/><rect id="Rectangle_1220" data-name="Rectangle 1220" width="65.11" height="1.451" transform="translate(365.885 234.371)" fill="#333"/><rect id="Rectangle_1221" data-name="Rectangle 1221" width="55.427" height="1.451" transform="translate(365.885 238.482)" fill="#333"/><rect id="Rectangle_1222" data-name="Rectangle 1222" width="65.11" height="1.451" transform="translate(365.885 242.593)" fill="#333"/><rect id="Rectangle_1223" data-name="Rectangle 1223" width="55.427" height="1.451" transform="translate(365.885 246.704)" fill="#333"/><rect id="Rectangle_1224" data-name="Rectangle 1224" width="7.032" height="1.451" transform="translate(365.885 250.815)" fill="#333"/><rect id="Rectangle_1225" data-name="Rectangle 1225" width="36.071" height="1.451" transform="translate(365.885 254.927)" fill="#333"/><rect id="Rectangle_1226" data-name="Rectangle 1226" width="55.427" height="1.451" transform="translate(365.885 259.038)" fill="#333"/><rect id="Rectangle_1227" data-name="Rectangle 1227" width="7.032" height="1.451" transform="translate(365.885 263.149)" fill="#333"/><rect id="Rectangle_1228" data-name="Rectangle 1228" width="7.032" height="1.451" transform="translate(365.885 267.26)" fill="#333"/><rect id="Rectangle_1229" data-name="Rectangle 1229" width="82.464" height="55.65" transform="translate(122.934 106.637)" fill="#333"/><rect id="Rectangle_1230" data-name="Rectangle 1230" width="82.464" height="55.65" transform="translate(122.934 106.637)" fill="url(#linear-gradient)"/><rect id="Rectangle_1231" data-name="Rectangle 1231" width="79.194" height="49.507" transform="translate(124.472 110.922)" fill="#333"/><rect id="Rectangle_1232" data-name="Rectangle 1232" width="48.11" height="1.451" transform="translate(128.099 118.593)" fill="#e0e0e0"/><rect id="Rectangle_1233" data-name="Rectangle 1233" width="39.427" height="1.451" transform="translate(128.099 122.704)" fill="#e0e0e0"/><rect id="Rectangle_1234" data-name="Rectangle 1234" width="44.11" height="1.451" transform="translate(128.099 126.815)" fill="#e0e0e0"/><rect id="Rectangle_1235" data-name="Rectangle 1235" width="49.427" height="1.451" transform="translate(128.099 130.926)" fill="#e0e0e0"/><rect id="Rectangle_1236" data-name="Rectangle 1236" width="7.032" height="1.451" transform="translate(128.099 135.037)" fill="#e0e0e0"/><rect id="Rectangle_1237" data-name="Rectangle 1237" width="33.071" height="1.451" transform="translate(128.099 139.148)" fill="#e0e0e0"/><rect id="Rectangle_1238" data-name="Rectangle 1238" width="48.427" height="1.451" transform="translate(128.099 143.26)" fill="#e0e0e0"/><rect id="Rectangle_1239" data-name="Rectangle 1239" width="7.032" height="1.451" transform="translate(128.099 147.371)" fill="#e0e0e0"/><rect id="Rectangle_1240" data-name="Rectangle 1240" width="7.032" height="1.451" transform="translate(128.099 151.482)" fill="#e0e0e0"/></svg>