<svg xmlns="http://www.w3.org/2000/svg" width="74" height="74" viewBox="0 0 74 74" fill="none"><g clip-path="url(#clip0)"><path d="M58.476 0H15C6.71573 0 0 6.71573 0 15V58.476C0 66.7603 6.71573 73.476 15 73.476H58.476C66.7603 73.476 73.476 66.7603 73.476 58.476V15C73.476 6.71573 66.7603 0 58.476 0Z" fill="url(#paint0_linear)"/><path d="M41.3019 54.9361H41.754L49.1338 51.2701L49.2566 51.0977V21.8362L49.1338 21.6629L41.754 18H41.2964L41.3019 54.9361Z" fill="#DAE2EB"/><path d="M31.698 54.9361H31.2396L23.8662 51.2701L23.7165 51.0145L23.6406 21.9852L23.8662 21.6629L31.2396 18H31.7037L31.698 54.9361Z" fill="#DAE2EB"/><path d="M31.2529 18H41.747V54.9361H31.2529V18Z" fill="#BFBFBF"/><path d="M52.9965 35.6383L52.7471 35.5833L49.1864 35.2535L49.1336 35.2797L41.7472 34.9862H31.2526L23.8662 35.2797V29.6843L23.8584 29.6884L23.8662 29.672L31.2526 27.9718H41.7472L49.1336 29.672L51.8489 31.1058V30.184L52.9965 30.0593L52.8776 29.8291L49.2443 27.2482L49.1336 27.2839L41.7472 25.0103H31.2526L23.8662 27.2839V21.6628L20.0034 26.1583V30.0844L20.0333 30.0629L21.151 30.184V31.1248L20.0034 31.7348V35.6413L20.0333 35.6383L21.151 35.6546V37.2943L20.1867 37.3086L20.0034 37.2912V41.1993L21.151 41.8123V42.7639L20.0515 42.8845L20.0034 42.8487V46.7741L23.8662 51.2702V45.6497L31.2526 47.9233H41.7472L49.1553 45.643L49.2538 45.6859L52.8394 43.143L52.9965 42.8896L51.8489 42.7639V41.8314L51.6985 41.7717L49.2443 43.0859L49.1553 43.2703L41.7472 44.9606V44.9627H31.2526V44.9606L23.8662 43.2631V37.6473L31.2526 37.9397V37.9469H41.7472L49.1336 37.6473L49.3018 37.7241L52.753 37.4289L52.9965 37.3107L51.8489 37.2943V35.6546L52.9965 35.6383Z" fill="white"/><path d="M49.1338 45.6497V51.2702L52.9968 46.7741V42.8743L49.1561 45.643L49.1338 45.6497ZM49.1338 43.2754L49.1561 43.2703L52.9968 41.2182V37.2943L49.1338 37.6473V43.2754ZM49.1561 29.6771L49.1338 29.672V35.2797L52.9968 35.6383V31.7162L49.1561 29.6771ZM49.1561 27.3059L52.9968 30.0593V26.1593L49.1338 21.6628V27.2839L49.1561 27.2916V27.3059Z" fill="#BFBFBF"/></g><defs><linearGradient id="paint0_linear" x1="-5.29027" y1="-2.35123" x2="73.476" y2="73.476" gradientUnits="userSpaceOnUse"><stop stop-color="#3CD89D"/><stop offset="1" stop-color="#82C444"/></linearGradient><clipPath id="clip0"><rect width="73.476" height="73.476" fill="white"/></clipPath></defs></svg>