<svg xmlns="http://www.w3.org/2000/svg" width="75" height="74" viewBox="0 0 75 74" fill="none"><g clip-path="url(#clip0)"><path d="M59.1762 0H15.7002C7.41592 0 0.700195 6.71573 0.700195 15V58.476C0.700195 66.7603 7.41592 73.476 15.7002 73.476H59.1762C67.4605 73.476 74.1762 66.7603 74.1762 58.476V15C74.1762 6.71573 67.4605 0 59.1762 0Z" fill="url(#paint0_linear)"/><path d="M40.0625 16.8525L21.3125 36L27.1062 41.9225L32.1875 36.7475L51.6688 16.8334L40.0625 16.8525V16.8525ZM41.6 44.8359L51.7063 34.5242H40.5875C40.3813 34.5242 40.1 34.5242 39.95 34.6584L35.7687 38.9325L29.975 44.8167L35.7687 50.7584L39.8 54.8792C39.9313 55.0134 40.0625 55.205 40.2875 55.1667H51.6688L41.6 44.8359Z" fill="white"/></g><defs><linearGradient id="paint0_linear" x1="-4.59008" y1="-2.35123" x2="74.1762" y2="73.476" gradientUnits="userSpaceOnUse"><stop stop-color="#3CD89D"/><stop offset="1" stop-color="#82C444"/></linearGradient><clipPath id="clip0"><rect width="73.476" height="73.476" fill="white" transform="translate(0.700195)"/></clipPath></defs></svg>