<svg xmlns="http://www.w3.org/2000/svg" width="74" height="74" viewBox="0 0 74 74" fill="none"><g clip-path="url(#clip0)"><path d="M58.476 0H15C6.71573 0 0 6.71573 0 15V58.476C0 66.7603 6.71573 73.476 15 73.476H58.476C66.7603 73.476 73.476 66.7603 73.476 58.476V15C73.476 6.71573 66.7603 0 58.476 0Z" fill="url(#paint0_linear)"/><path d="M34.3227 30.0012C33.1801 30.0163 32.1963 30.2402 31.2298 30.7218C28.7614 31.9513 27.3361 34.5406 27.3361 37.803C27.3361 41.0729 28.7383 43.5853 31.2151 44.7606C31.8842 45.0781 32.5549 45.2509 33.5732 45.372C34.0885 45.3927 34.5705 45.4293 35.0723 45.372C36.0906 45.2509 36.7613 45.0781 37.4304 44.7606C39.9074 43.5853 41.3096 41.0731 41.3096 37.803C41.3096 34.5406 39.8841 31.9513 37.4159 30.7218C36.4492 30.2402 35.4656 30.0163 34.3227 30.0012ZM35.3054 32.3011C36.7874 32.696 37.8627 34.0331 38.2746 35.9837C38.5643 37.3535 38.4852 38.9363 38.0709 40.183C37.4256 42.1244 36.025 43.2209 34.3227 43.2033C32.6205 43.2209 31.2199 42.1244 30.5748 40.183C30.1609 38.9363 30.0816 37.3535 30.3709 35.9837C30.783 34.0331 31.8583 32.696 33.3403 32.3011C34.0123 32.1587 34.6818 32.1844 35.3054 32.3011ZM24.4816 30.0012C24.1886 30.0012 23.9021 30.0881 23.6585 30.2509C23.4148 30.4137 23.2249 30.6451 23.1128 30.9158C23.0006 31.1865 22.9713 31.4844 23.0285 31.7718C23.0856 32.0592 23.2267 32.3232 23.4339 32.5304C23.6412 32.7376 23.9051 32.8787 24.1926 32.9359C24.48 32.9931 24.7779 32.9637 25.0486 32.8516C25.3193 32.7395 25.5507 32.5496 25.7135 32.3059C25.8763 32.0623 25.9632 31.7758 25.9632 31.4828C25.9632 31.0898 25.8071 30.713 25.5292 30.4351C25.2514 30.1573 24.8745 30.0012 24.4816 30.0012ZM23.0973 34.5217V45.4028H25.8659V34.5217H23.0973ZM45.3353 45.3801C44.149 45.1768 43.0081 45.0195 42.0395 44.4695C42.0267 44.4581 42.6113 42.2735 42.6376 42.2343C44.1943 42.7629 46.3856 43.5042 47.863 42.825C48.6685 42.422 49.0652 41.6772 48.932 40.8175C48.7819 39.8512 48.1128 39.2943 46.2761 38.6077C44.2272 37.8419 43.0269 36.9005 42.5354 35.6765C42.2938 35.0745 42.214 34.3084 42.3224 33.6391C42.6246 31.7775 44.0747 30.4826 46.3003 30.0867C46.945 29.972 48.3239 29.971 49.0023 30.0844C49.98 30.2479 51.1013 30.6177 51.1013 30.7767C51.1013 30.8352 50.5284 32.8551 50.499 32.8998C49.5323 32.5169 48.4481 32.2434 47.5307 32.2376C46.2326 32.2212 44.8253 32.9917 45.0737 34.3528C45.2494 35.2057 45.7937 35.6221 47.797 36.4361C49.2726 37.0362 49.9806 37.4501 50.5874 38.066C51.4307 38.9081 51.6973 39.8962 51.7035 40.8755C51.7058 41.6911 51.6296 42.0717 51.3386 42.7014C50.6317 44.231 49.1938 45.1177 47.0251 45.3616C46.6194 45.407 45.6637 45.4173 45.3363 45.3801H45.3353Z" fill="white"/></g><defs><linearGradient id="paint0_linear" x1="-5.29027" y1="-2.35123" x2="73.476" y2="73.476" gradientUnits="userSpaceOnUse"><stop stop-color="#3CD89D"/><stop offset="1" stop-color="#82C444"/></linearGradient><clipPath id="clip0"><rect width="73.476" height="73.476" fill="white"/></clipPath></defs></svg>