<svg xmlns="http://www.w3.org/2000/svg" width="74" height="74" viewBox="0 0 74 74" fill="none"><g clip-path="url(#clip0)"><path d="M58.476 0H15C6.71573 0 0 6.71573 0 15V58.476C0 66.7603 6.71573 73.476 15 73.476H58.476C66.7603 73.476 73.476 66.7603 73.476 58.476V15C73.476 6.71573 66.7603 0 58.476 0Z" fill="url(#paint0_linear)"/><path d="M57.6978 35.7476C57.4223 35.4581 55.4453 33.0988 54.3795 31.8274C53.8127 31.1514 53.365 30.6174 53.1769 30.3959L53.1618 30.3779L53.145 30.3606C52.7066 29.8824 52.0834 29.3344 51.1478 29.3344C50.9957 29.3363 50.8439 29.3484 50.6935 29.3705C50.6624 29.3746 50.6305 29.3796 50.5969 29.3828C50.3911 29.405 49.752 29.5059 48.2336 29.7503C47.0578 29.9382 45.2849 30.2237 45.0161 30.2483L44.9565 30.2532L44.8986 30.2638C44.0587 30.4099 43.5027 30.7741 43.2558 31.3458C43.1256 31.6477 42.9854 32.2605 43.5027 32.975C43.6312 33.1571 44.0763 33.7592 44.8414 34.7936C45.3504 35.4827 45.9223 36.2554 46.4161 36.9264L37.0653 39.0601L27.8909 24.3806L27.8741 24.3527L27.8548 24.3256L27.8178 24.2723C27.4424 23.7342 26.9754 23.064 25.6267 23.064C25.5318 23.064 25.4327 23.064 25.3218 23.073C24.9355 23.0935 23.5228 23.2018 21.8877 23.3281C20.0828 23.4667 17.6129 23.6562 17.292 23.6644H17.2307L17.1644 23.671C16.3968 23.744 15.84 24.0483 15.5099 24.5733C14.9598 25.4503 15.3906 26.4346 15.5317 26.7578C15.8148 27.4116 18.3922 32.719 20.6657 37.4038C22.1774 40.5161 23.7378 43.7342 23.8655 44.0197C24.09 44.5529 24.4743 45.0074 24.968 45.3235C25.4617 45.6396 26.0418 45.8024 26.632 45.7907C26.9105 45.7895 27.1881 45.7593 27.46 45.7005H27.4777L27.4945 45.6964C28.6585 45.4191 32.3513 44.5037 34.9859 43.8433C35.1454 44.1156 35.3134 44.4036 35.4898 44.6997C37.3316 47.8579 38.6728 50.1425 39.1145 50.7257C39.3413 51.0366 40.0132 51.939 41.278 51.939C41.7365 51.939 42.1565 51.8241 42.5999 51.7019L42.7284 51.6666H42.7385C43.6228 51.4205 55.3941 47.3879 55.9971 47.1262L56.0156 47.118C56.4724 46.9203 57.1628 46.6217 57.3744 45.8547C57.513 45.3527 57.3895 44.8433 57.0066 44.3404L57.0007 44.333L56.9948 44.3256C56.9234 44.2354 56.6589 43.8983 56.3003 43.4315C55.5335 42.4414 54.2947 40.8418 53.2063 39.4497C54.6651 39.0806 56.4649 38.6204 56.8495 38.5022C57.8128 38.2209 58.1043 37.6253 58.1933 37.2939C58.2596 37.0355 58.3461 36.3752 57.6978 35.7476V35.7476ZM30.8228 40.521C29.327 40.8631 28.2848 41.1018 27.6406 41.2511C27.0804 40.1568 25.9828 37.9986 24.9111 35.892C22.4134 30.9767 21.1234 28.446 20.4448 27.1229L21.1293 27.0654C22.2496 26.9711 23.784 26.8423 24.6382 26.7726C26.0457 29.0908 30.8799 37.0511 32.7259 40.0863L30.8228 40.521ZM45.7854 45.9876C43.7522 46.6438 42.6503 47.0023 42.0548 47.1967C41.5257 46.3485 40.3617 44.4471 39.3279 42.7515L49.0449 40.3332C49.4648 40.8918 50.2685 41.9508 51.855 44.0188C50.3374 44.5143 47.8069 45.333 45.7854 45.9876ZM50.4776 36.0101L48.4822 33.4237C49.6302 33.2276 50.2912 33.1144 50.6784 33.0463L51.6862 34.267L52.6889 35.4827C52.0003 35.6459 51.1991 35.8371 50.4776 36.0101Z" fill="white"/></g><defs><linearGradient id="paint0_linear" x1="-5.29027" y1="-2.35123" x2="73.476" y2="73.476" gradientUnits="userSpaceOnUse"><stop stop-color="#3CD89D"/><stop offset="1" stop-color="#82C444"/></linearGradient><clipPath id="clip0"><rect width="73.476" height="73.476" fill="white"/></clipPath></defs></svg>