<svg xmlns="http://www.w3.org/2000/svg" width="74" height="74" viewBox="0 0 74 74" fill="none"><g clip-path="url(#clip0)"><path d="M58.476 0H15C6.71573 0 0 6.71573 0 15V58.476C0 66.7603 6.71573 73.476 15 73.476H58.476C66.7603 73.476 73.476 66.7603 73.476 58.476V15C73.476 6.71573 66.7603 0 58.476 0Z" fill="url(#paint0_linear)"/><path d="M9.74252 28.1588L9.74256 28.1588L9.74407 28.1546C9.9546 27.573 10.3018 27.0568 10.6856 26.5388L10.6857 26.5389L10.6894 26.5336C10.8544 26.2985 11.0681 26.0985 11.307 25.8791C11.3152 25.8715 11.3234 25.8639 11.3317 25.8563C11.4865 25.7142 11.6511 25.5629 11.8046 25.3939C11.81 25.4088 11.8161 25.4253 11.8229 25.4423C11.9083 27.1431 11.8952 28.8266 11.8821 30.5202C11.8739 31.5768 11.8657 32.6373 11.8813 33.7084C11.8813 33.8935 11.8805 34.0522 11.8516 34.2063C11.8014 34.3162 11.7731 34.4273 11.7525 34.5262C11.7405 34.584 11.7324 34.6291 11.7249 34.6707C11.7159 34.7211 11.7077 34.7663 11.6946 34.823C11.671 34.9251 11.6427 35.0035 11.5956 35.0662C10.4547 34.1743 9.74964 33.1368 9.44008 32.0091C9.11631 30.8297 9.2189 29.5286 9.74252 28.1588Z" stroke="white" stroke-width="0.5"/><path d="M12.1764 34.4556L12.1769 34.4479V34.4401C12.1769 31.6794 12.1769 28.9197 12.1972 26.1601L12.1972 26.1601V26.1583C12.1972 26.0482 12.1624 25.9455 12.1387 25.8785C12.1319 25.8593 12.1257 25.8423 12.1201 25.8268C13.0168 26.7282 13.7506 27.6728 14.1065 28.8558L14.1065 28.8558L14.1069 28.8572C14.4523 29.9818 14.5173 31.0316 14.2881 32.0034C14.0591 32.9738 13.5328 33.8833 12.6685 34.7231C12.5488 34.8365 12.415 34.9278 12.2647 35.0241C12.2014 35.0064 12.1712 34.9864 12.1579 34.9747C12.1452 34.9635 12.136 34.9502 12.1311 34.9162C12.1251 34.8742 12.1284 34.8174 12.1404 34.7328C12.1429 34.7153 12.146 34.6954 12.1493 34.674C12.1595 34.608 12.1719 34.5274 12.1764 34.4556Z" stroke="white" stroke-width="0.5"/><path d="M11.9273 34.4401C11.9476 34.7683 11.968 35.0965 12.2932 35.2895C12.0899 35.6563 12.1509 36.0617 12.1306 36.4478C12.1306 36.583 12.2526 36.8339 11.9883 36.8146C11.7647 36.8146 11.8257 36.583 11.8053 36.4285C11.7443 36.0811 11.663 35.7336 11.6021 35.3861C11.7037 35.0772 11.8053 34.749 11.9273 34.4401Z" fill="#D1D1D1"/><path d="M60.2877 34.6332C60.6739 34.2857 61.0195 34.2857 61.3651 34.5753C61.7107 34.8649 62.0156 34.807 62.3815 34.5753C63.2353 34.0734 64.089 33.6101 64.9632 33.1467C65.2681 32.9923 65.39 32.7992 65.39 32.4711C65.3697 31.4479 65.3697 30.4247 65.39 29.4209C65.39 29.1313 65.2884 28.9769 65.0241 28.8224C64.089 28.3205 63.154 27.8186 62.2392 27.2973C61.9749 27.1429 61.792 27.1429 61.5277 27.2973C60.6129 27.8186 59.6779 28.3398 58.7428 28.8224C58.4582 28.9769 58.3362 29.1506 58.3565 29.4595C58.3769 30.4826 58.3565 31.5058 58.3565 32.529C58.3565 32.973 59.4136 33.6873 59.8405 33.5328C60.1454 33.4363 60.1657 33.1853 60.1657 32.9151C60.1657 31.8919 60.1657 30.8687 60.1657 29.8456C60.1657 29.6332 60.0438 29.363 60.4706 29.3436C60.8772 29.3243 60.8162 29.5946 60.8162 29.8263C60.8162 30.8881 60.8366 31.9305 60.8162 32.9923C60.7959 33.9962 60.1251 34.3823 59.1493 33.9962C58.1939 33.6294 57.6044 33.1081 57.7467 31.9884C57.8687 31.1004 57.7873 30.1931 57.767 29.305C57.7467 28.8803 57.9296 28.6101 58.3159 28.3977C59.3526 27.8572 60.369 27.278 61.4057 26.6989C61.7513 26.5058 62.0766 26.5251 62.4221 26.6989C63.4589 27.278 64.5159 27.8572 65.5527 28.417C65.9186 28.6101 66.0609 28.8996 66.0609 29.305C66.0405 30.4054 66.0405 31.4865 66.0609 32.5869C66.0609 33.0502 65.8779 33.3591 65.451 33.5714C64.5159 34.0734 63.5808 34.556 62.6661 35.0965C62.1376 35.4054 61.67 35.4633 61.1618 35.0965C60.8569 34.9228 60.5723 34.807 60.2877 34.6332Z" fill="#FDFEFD"/><path d="M62.8899 32.8186C62.4223 32.8379 61.9954 32.78 61.5889 32.529C61.3653 32.3939 61.1823 32.2008 61.1417 31.9305C61.1213 31.7761 61.04 31.583 61.284 31.5444C61.4669 31.5058 61.6295 31.5058 61.7515 31.7182C62.0564 32.2394 63.1541 32.4518 63.6827 32.1236C63.8453 32.0271 63.9266 31.8919 63.9266 31.7182C63.9063 31.5251 63.764 31.4286 63.6014 31.4093C63.1541 31.3321 62.7069 31.2742 62.2597 31.1969C61.5279 31.0618 61.2433 30.7915 61.2433 30.2703C61.2433 29.7298 61.6092 29.363 62.3004 29.2664C62.7679 29.2085 63.2355 29.2085 63.703 29.3437C64.0486 29.4595 64.2925 29.6525 64.4145 29.9807C64.4755 30.1159 64.5771 30.3282 64.3738 30.4054C64.2112 30.4633 63.9876 30.502 63.825 30.2703C63.4794 29.7877 62.9509 29.6525 62.3613 29.807C62.1581 29.8649 61.9548 29.9421 61.9548 30.1931C61.9345 30.4633 62.1377 30.5213 62.3613 30.5599C62.8289 30.6371 63.2964 30.695 63.7437 30.7915C64.2315 30.8881 64.6381 31.1004 64.6381 31.6603C64.6381 32.1815 64.3332 32.529 63.8046 32.6834C63.4997 32.7993 63.1948 32.8379 62.8899 32.8186Z" fill="#FDFDFD"/><path d="M24.9572 34.3131C24.1332 34.3131 23.4732 34.0611 22.9772 33.5571C22.4892 33.0451 22.2212 32.3491 22.1732 31.4691L22.1612 31.0611L22.1732 30.6651C22.2292 29.8011 22.5012 29.1131 22.9892 28.6011C23.4852 28.0891 24.1372 27.8331 24.9452 27.8331C25.8332 27.8331 26.5212 28.1171 27.0092 28.6851C27.4972 29.2451 27.7412 30.0051 27.7412 30.9651V31.1691C27.7412 31.2491 27.7132 31.3171 27.6572 31.3731C27.6092 31.4211 27.5452 31.4451 27.4652 31.4451H23.3132V31.5531C23.3372 32.0731 23.4932 32.5171 23.7812 32.8851C24.0772 33.2451 24.4652 33.4251 24.9452 33.4251C25.3132 33.4251 25.6132 33.3531 25.8452 33.2091C26.0852 33.0571 26.2612 32.9011 26.3732 32.7411C26.4452 32.6451 26.4972 32.5891 26.5292 32.5731C26.5692 32.5491 26.6372 32.5371 26.7332 32.5371H27.3212C27.3932 32.5371 27.4532 32.5571 27.5012 32.5971C27.5492 32.6371 27.5732 32.6931 27.5732 32.7651C27.5732 32.9411 27.4612 33.1531 27.2372 33.4011C27.0212 33.6491 26.7132 33.8651 26.3132 34.0491C25.9212 34.2251 25.4692 34.3131 24.9572 34.3131ZM26.6012 30.6171V30.5811C26.6012 30.0291 26.4492 29.5811 26.1452 29.2371C25.8492 28.8851 25.4492 28.7091 24.9452 28.7091C24.4412 28.7091 24.0412 28.8851 23.7452 29.2371C23.4572 29.5811 23.3132 30.0291 23.3132 30.5811V30.6171H26.6012ZM28.7592 34.1931C28.6952 34.1931 28.6352 34.1691 28.5792 34.1211C28.5312 34.0731 28.5072 34.0131 28.5072 33.9411C28.5072 33.8691 28.5352 33.7971 28.5912 33.7251L30.6792 31.0011L28.7232 28.4211C28.6672 28.3571 28.6392 28.2851 28.6392 28.2051C28.6392 28.1331 28.6632 28.0731 28.7112 28.0251C28.7592 27.9771 28.8192 27.9531 28.8912 27.9531H29.5032C29.6232 27.9531 29.7272 28.0171 29.8152 28.1451L31.4112 30.2211L33.0072 28.1571C33.0552 28.0931 33.0992 28.0451 33.1392 28.0131C33.1872 27.9731 33.2472 27.9531 33.3192 27.9531H33.9072C33.9792 27.9531 34.0392 27.9771 34.0872 28.0251C34.1352 28.0731 34.1592 28.1331 34.1592 28.2051C34.1592 28.2851 34.1312 28.3571 34.0752 28.4211L32.0952 31.0251L34.1832 33.7251C34.2392 33.7971 34.2672 33.8691 34.2672 33.9411C34.2672 34.0131 34.2432 34.0731 34.1952 34.1211C34.1472 34.1691 34.0872 34.1931 34.0152 34.1931H33.3792C33.2592 34.1931 33.1552 34.1331 33.0672 34.0131L31.3872 31.8171L29.6832 34.0131C29.6352 34.0691 29.5872 34.1131 29.5392 34.1451C29.4992 34.1771 29.4432 34.1931 29.3712 34.1931H28.7592Z" fill="white"/><path d="M45.7427 31.5387C46.1814 31.5387 46.5371 31.183 46.5371 30.7442C46.5371 30.3055 46.1814 29.9498 45.7427 29.9498C45.3039 29.9498 44.9482 30.3055 44.9482 30.7442C44.9482 31.183 45.3039 31.5387 45.7427 31.5387Z" fill="white"/><path d="M45.7426 29.1292C46.809 29.1292 47.7998 29.2822 48.5467 29.5392C49.4467 29.849 50.0001 30.3187 50.0001 30.744C50.0001 31.1871 49.4136 31.6862 48.4472 32.0062C47.7166 32.2483 46.7549 32.3748 45.7426 32.3748C44.7046 32.3748 43.7219 32.2562 42.9829 32.0036C42.048 31.6841 41.4849 31.1787 41.4849 30.744C41.4849 30.3221 42.0133 29.8561 42.9007 29.5468C43.6505 29.2856 44.6657 29.1292 45.7426 29.1292V29.1292Z" stroke="white" stroke-width="0.5" stroke-miterlimit="10"/><path d="M44.3367 29.9414C44.8694 29.0176 45.4971 28.2357 46.0931 27.7172C46.8111 27.0924 47.4945 26.8477 47.8628 27.0601C48.2466 27.2814 48.386 28.0388 48.1805 29.0362C48.025 29.7902 47.6543 30.6862 47.1484 31.5633C46.6299 32.4625 46.0361 33.2546 45.4483 33.7686C44.7045 34.4189 43.9852 34.6541 43.6087 34.437C43.2433 34.2262 43.1036 33.5357 43.2787 32.6124C43.4268 31.8316 43.7985 30.8742 44.3367 29.9414V29.9414Z" stroke="white" stroke-width="0.5" stroke-miterlimit="10"/><path d="M44.3381 31.5652C43.8039 30.6421 43.44 29.7081 43.2883 28.9328C43.1056 27.9987 43.2347 27.2844 43.6028 27.0714C43.9864 26.8493 44.712 27.1069 45.4733 27.7829C46.0491 28.2941 46.64 29.0627 47.1472 29.9391C47.6673 30.8375 48.0572 31.7474 48.2087 32.5132C48.4006 33.4825 48.2452 34.2231 47.869 34.4407C47.5038 34.6521 46.8359 34.4284 46.1234 33.8154C45.5216 33.2974 44.8777 32.4972 44.3381 31.5652V31.5652Z" stroke="white" stroke-width="0.5" stroke-miterlimit="10"/><path d="M10.237 46.578L9.85897 50.808H8.69797L9.26497 44.814H10.885L12.415 49.116L13.9 44.814H15.52L16.069 50.808H14.899L14.485 46.596L12.901 50.871L11.83 50.97L10.237 46.578Z" fill="white"/><path d="M26.2032 44.814H29.8482V45.948H27.4902V47.145H29.4432V48.243H27.4902V49.674H29.8482V50.808H26.2032V44.814Z" fill="white"/><path d="M43.7966 44.814C43.9766 44.808 44.3126 44.805 44.8046 44.805C45.3026 44.805 45.6416 44.808 45.8216 44.814C46.5056 44.838 47.0156 45.006 47.3516 45.318C47.6876 45.624 47.8556 46.038 47.8556 46.56C47.8556 47.004 47.7416 47.382 47.5136 47.694C47.2916 48 46.9796 48.201 46.5776 48.297C46.7036 48.399 46.8326 48.54 46.9646 48.72C47.0966 48.894 47.2796 49.167 47.5136 49.539C47.7596 49.929 48.0086 50.352 48.2606 50.808H46.7486L45.7316 48.918C45.6236 48.72 45.5246 48.597 45.4346 48.549C45.3506 48.495 45.2216 48.468 45.0476 48.468V50.808H43.7966V44.814ZM45.6056 47.469C45.9116 47.469 46.1516 47.391 46.3256 47.235C46.5056 47.079 46.5956 46.869 46.5956 46.605C46.5956 46.365 46.5176 46.182 46.3616 46.056C46.2056 45.93 45.9776 45.867 45.6776 45.867H45.0476V47.469H45.6056Z" fill="white"/><path d="M60.505 44.814H62.035L64.519 49.017V44.814H65.716V50.808H64.204L61.702 46.578V50.808H60.505V44.814Z" fill="white"/></g><defs><linearGradient id="paint0_linear" x1="-5.29027" y1="-2.35123" x2="73.476" y2="73.476" gradientUnits="userSpaceOnUse"><stop stop-color="#3CD89D"/><stop offset="1" stop-color="#82C444"/></linearGradient><clipPath id="clip0"><rect width="73.476" height="73.476" fill="white"/></clipPath></defs></svg>