<svg xmlns="http://www.w3.org/2000/svg" width="74" height="74" viewBox="0 0 74 74" fill="none"><g clip-path="url(#clip0)"><path d="M58.476 0H15C6.71573 0 0 6.71573 0 15V58.476C0 66.7603 6.71573 73.476 15 73.476H58.476C66.7603 73.476 73.476 66.7603 73.476 58.476V15C73.476 6.71573 66.7603 0 58.476 0Z" fill="url(#paint0_linear)"/><g clip-path="url(#clip1)"><path d="M35.5389 24.4503C35.581 23.8457 35.631 23.3233 35.6878 22.8904C35.8583 23.1573 36.0902 23.5051 36.2946 23.7086L36.2946 23.7086L36.2976 23.7116C36.8169 24.2244 37.4028 25.01 37.9624 25.7603C38.1593 26.0244 38.353 26.2841 38.5393 26.526C39.9953 28.4384 40.9892 30.576 41.7067 32.9243C42.1269 34.3264 42.3536 35.7595 42.3706 37.2047L42.3707 37.2091C42.4411 41.5552 40.9627 45.2606 37.9596 48.3633C37.5711 48.754 37.1573 49.1186 36.7212 49.4548C36.6132 49.4345 36.4945 49.4085 36.3796 49.3788C36.2935 49.3566 36.2181 49.3346 36.1561 49.3143C36.0431 49.07 35.9653 48.8104 35.9254 48.5434L35.9217 48.5187L35.9168 48.4942C35.8126 47.9754 35.7564 47.5135 35.7849 47.0608L35.7869 47.0294V46.998V46.7375V46.5179L35.7734 46.4887C35.7716 46.4547 35.7696 46.416 35.7675 46.3726C35.7574 46.1734 35.7436 45.8814 35.7272 45.5099C35.6943 44.7671 35.6508 43.7094 35.6056 42.4459C35.5152 39.9182 35.4179 36.5712 35.3838 33.2751C35.3496 29.9719 35.3792 26.7464 35.5389 24.4503Z" stroke="white" stroke-width="2"/><path d="M35.8156 22.5787C36.1352 22.1283 36.0291 21.5041 35.5786 21.1845C35.1282 20.865 34.504 20.9711 34.1844 21.4215L35.8156 22.5787ZM34.347 22.7357L35.0015 23.4917L35.0053 23.4884L34.347 22.7357ZM30.347 27.8341L29.4667 27.3597L29.4645 27.3639L30.347 27.8341ZM28.0412 36.1692L29.0374 36.2565L29.0382 36.2473L29.0388 36.2381L28.0412 36.1692ZM28.7105 42.0491L27.7552 42.3448L27.7576 42.3523L28.7105 42.0491ZM33.3809 49.3989L32.68 50.1123L32.6872 50.1191L33.3809 49.3989ZM35.6082 50.4864L34.9952 51.2764L35.2658 51.4864H35.6082V50.4864ZM35.8324 50.2259L36.7774 50.553L36.7828 50.5373L36.7877 50.5214L35.8324 50.2259ZM36 49.5L36.9882 49.6532L37.0032 49.5562L36.9991 49.4581L36 49.5ZM36.8315 45.4581C36.8084 44.9063 36.3423 44.4778 35.7905 44.5009C35.2387 44.524 34.8102 44.9901 34.8333 45.5419L36.8315 45.4581ZM34.1844 21.4215C33.9933 21.6909 33.9132 21.7865 33.6887 21.9829L35.0053 23.4884C35.3764 23.1638 35.5584 22.9413 35.8156 22.5787L34.1844 21.4215ZM33.6924 21.9796C31.9308 23.5048 30.5568 25.3368 29.4667 27.3597L31.2273 28.3085C32.2231 26.4606 33.4538 24.8317 35.0015 23.4917L33.6924 21.9796ZM29.4645 27.3639C28.0018 30.1092 27.2547 33.0409 27.0436 36.1004L29.0388 36.2381C29.2333 33.4198 29.9167 30.7684 31.2296 28.3043L29.4645 27.3639ZM27.045 36.0819C26.9884 36.7285 27.0867 38.0278 27.2222 39.2153C27.3583 40.4087 27.5566 41.7031 27.7553 42.3448L29.6658 41.7533C29.5303 41.3158 29.3475 40.2003 29.2093 38.9886C29.0704 37.7709 29.0012 36.67 29.0374 36.2565L27.045 36.0819ZM27.7576 42.3523C28.7278 45.4014 30.4664 47.9375 32.6801 50.1122L34.0817 48.6855C32.0531 46.6927 30.5166 44.4271 29.6635 41.7459L27.7576 42.3523ZM32.6872 50.1191C33.1277 50.5434 33.7574 50.766 34.1307 50.9024C34.6197 51.0809 34.8609 51.1723 34.9952 51.2764L36.2213 49.6963C35.7791 49.3532 35.1671 49.1516 34.8167 49.0237C34.3508 48.8536 34.155 48.7561 34.0746 48.6786L32.6872 50.1191ZM35.6082 51.4864C35.805 51.4864 36.0233 51.4404 36.2285 51.3155C36.4294 51.1932 36.5544 51.0338 36.6296 50.9067C36.7002 50.7873 36.7379 50.6768 36.7548 50.6253C36.7637 50.5984 36.7719 50.5712 36.7748 50.5616C36.7794 50.5468 36.7791 50.5479 36.7774 50.553L34.8874 49.8988C34.876 49.9316 34.8669 49.9617 34.8624 49.9764C34.8594 49.986 34.8582 49.9901 34.8565 49.9954C34.8559 49.9975 34.8554 49.999 34.8551 50.0001C34.8547 50.0012 34.8546 50.0016 34.8546 50.0016C34.8546 50.0015 34.8548 50.0009 34.8552 49.9997C34.8556 49.9986 34.8562 49.9968 34.8571 49.9945C34.8587 49.99 34.8614 49.9829 34.8652 49.9737C34.8725 49.956 34.8861 49.9258 34.9079 49.8889C34.9528 49.813 35.0394 49.6979 35.1886 49.6071C35.3421 49.5137 35.4952 49.4864 35.6082 49.4864V51.4864ZM36.7877 50.5214C36.8756 50.2373 36.9426 49.9471 36.9882 49.6532L35.0118 49.3468C34.9812 49.5443 34.9361 49.7394 34.8771 49.9304L36.7877 50.5214ZM36.9991 49.4581L36.8315 45.4581L34.8333 45.5419L35.0009 49.5419L36.9991 49.4581Z" fill="white"/><path d="M36.5051 51.63C36.5425 51.203 36.7475 50.8486 36.9706 50.4952C36.7464 50.4024 36.5799 50.2177 36.4496 50.0116C36.3373 49.8166 36.2444 49.611 36.1721 49.3978C35.9116 48.6164 35.8561 47.7966 35.7814 46.9981V46.5145C35.6885 46.5893 35.6693 47.2212 35.6693 47.3151C35.6149 48.1591 35.5029 48.9983 35.3341 49.827C35.2786 50.1622 35.2412 50.4963 35.0352 50.7941C35.0352 50.8315 35.0352 50.8688 35.0533 50.9244C35.3885 51.9107 35.4803 52.9152 35.5369 53.939V54.3126C35.5369 54.7588 35.5187 54.6649 35.8892 54.8143C36.0386 54.8698 36.2052 54.889 36.3546 55.0001C36.4667 55.0001 36.4848 54.9072 36.4848 54.8325L36.4293 54.2187V52.5064C36.4112 52.2075 36.4667 51.9107 36.5041 51.631L36.5051 51.63Z" fill="white"/></g></g><defs><linearGradient id="paint0_linear" x1="-5.29027" y1="-2.35123" x2="73.476" y2="73.476" gradientUnits="userSpaceOnUse"><stop stop-color="#3CD89D"/><stop offset="1" stop-color="#82C444"/></linearGradient><clipPath id="clip0"><rect width="73.476" height="73.476" fill="white"/></clipPath><clipPath id="clip1"><rect width="36.74" height="36.74" fill="white" transform="translate(18 18)"/></clipPath></defs></svg>