<svg xmlns="http://www.w3.org/2000/svg" width="74" height="74" viewBox="0 0 74 74" fill="none"><g clip-path="url(#clip0)"><path d="M58.476 0H15C6.71573 0 0 6.71573 0 15V58.476C0 66.7603 6.71573 73.476 15 73.476H58.476C66.7603 73.476 73.476 66.7603 73.476 58.476V15C73.476 6.71573 66.7603 0 58.476 0Z" fill="url(#paint0_linear)"/><path fill-rule="evenodd" clip-rule="evenodd" d="M12.0342 45.7398H13.6615V39.3299L16.1709 44.9199C16.4688 45.5903 16.8666 45.8264 17.6615 45.8264C18.4566 45.8264 18.8542 45.5903 19.1521 44.9199L21.6615 39.3299V45.7398H23.2763V39.3422C23.2763 38.7213 23.0277 38.4226 22.5184 38.2611C21.2887 37.8761 20.4562 38.2115 20.0837 39.044L17.6242 44.5471L15.2393 39.044C14.879 38.2115 14.0343 37.8761 12.8046 38.2611C12.2828 38.4226 12.0345 38.721 12.0345 39.3422V45.7398H12.0342ZM24.6302 40.5221H26.245V44.0502C26.2328 44.2487 26.3071 44.6961 27.2016 44.7086C27.6488 44.7206 30.6921 44.7086 30.7169 44.7086V40.5096H32.3442C32.3565 40.5096 32.3442 46.236 32.3442 46.261C32.3565 47.677 30.5927 47.975 29.7853 48H24.6675V46.907C24.6675 46.907 29.7731 46.9195 29.7853 46.907C30.8288 46.8076 30.7047 46.2861 30.7047 46.1121V45.6895H27.2637C25.6612 45.665 24.6425 44.9689 24.6302 44.1615C24.6302 44.0872 24.6675 40.5597 24.6302 40.5221ZM59.5239 36.46C58.5305 36.4353 57.7724 36.5221 57.1139 36.8078C56.928 36.8824 56.642 36.8824 56.605 37.1185C56.7044 37.2173 56.7289 37.3791 56.8035 37.5161C56.965 37.7647 57.2261 38.0996 57.462 38.2736C57.7106 38.4727 57.9715 38.6712 58.2446 38.8452C58.7415 39.1431 59.2881 39.3046 59.7475 39.6033C60.0334 39.7768 60.3065 40.0009 60.5799 40.1994C60.7038 40.2988 60.8035 40.448 60.965 40.5098V40.4853C60.8781 40.3734 60.853 40.2119 60.7784 40.0872L60.4059 39.7147C60.0459 39.2428 59.586 38.8202 59.1013 38.4727C58.7162 38.1993 57.8467 37.8142 57.6852 37.3671C57.6727 37.3546 57.6602 37.3546 57.6602 37.3421C57.9336 37.3045 58.2568 37.2056 58.5052 37.143C58.9278 37.0316 59.3126 37.0561 59.7472 36.9445C59.9462 36.8821 60.1448 36.8326 60.3438 36.7705V36.6586C60.1203 36.435 59.9713 36.1246 59.723 35.9258C59.0896 35.3792 58.3935 34.845 57.6855 34.3978C57.2879 34.137 56.8035 33.9755 56.3814 33.7644C56.2444 33.7024 55.9958 33.6651 55.897 33.5409C55.6729 33.2675 55.5615 32.9072 55.3875 32.5842C55.0231 31.8757 54.6834 31.1548 54.369 30.4226C54.158 29.9382 54.0085 29.4538 53.7482 29.0064C52.4561 26.8946 51.0771 25.6153 48.9283 24.3605C48.4689 24.0996 47.9224 23.988 47.3382 23.8512C47.0278 23.8262 46.7174 23.8139 46.4067 23.7889C46.2201 23.7143 46.0216 23.4785 45.8351 23.3665C45.1271 22.9194 43.301 21.938 42.7789 23.2298C42.4434 24.0372 43.2759 24.8324 43.5738 25.2425C43.7854 25.5281 44.0457 25.8514 44.1952 26.1741C44.2941 26.3851 44.3066 26.5964 44.3937 26.82C44.6048 27.379 44.7788 27.9876 45.0397 28.4969C45.1761 28.7577 45.325 29.0311 45.499 29.2672C45.5984 29.4039 45.785 29.466 45.8095 29.6896C45.6355 29.9379 45.6235 30.3107 45.5241 30.6212C45.0892 32.0249 45.2507 33.7516 45.8966 34.7949C46.0957 35.1053 46.5551 35.7885 47.2013 35.5279C47.7603 35.2918 47.6359 34.5961 47.7974 33.9627C47.8349 33.826 47.8099 33.7266 47.8842 33.6272V33.652C48.0457 33.9997 48.2197 34.3352 48.3937 34.6704C48.7662 35.2793 49.4372 35.9252 50.0088 36.3473C50.2942 36.5709 50.5303 36.9562 50.9153 37.0801V37.055H50.8783C50.8037 36.9436 50.6917 36.8938 50.6049 36.8067C50.3813 36.5831 50.133 36.3097 49.9464 36.0614C49.4375 35.3656 48.9778 34.5955 48.5555 33.8004C48.3564 33.4153 48.1824 32.993 48.0215 32.6079C47.9588 32.459 47.9588 32.2354 47.8224 32.1483C47.6359 32.4339 47.3756 32.67 47.2258 33.0055C47.0022 33.5398 46.9652 34.1979 46.8908 34.8689C46.8407 34.8937 46.8532 34.8812 46.8282 34.9062C46.4312 34.8068 46.2942 34.3967 46.1452 34.049C45.7853 33.167 45.7104 31.751 46.0333 30.7322C46.1202 30.4714 46.5058 29.6514 46.3443 29.4031C46.2691 29.167 46.0333 29.018 45.8969 28.8318C45.7229 28.6082 45.5614 28.31 45.4375 28.0492C45.1396 27.3534 45.0026 26.5833 44.6794 25.8878C44.5179 25.5524 44.2698 25.2169 44.0585 24.9312C43.8224 24.5957 43.5616 24.3599 43.3756 23.9623C43.3135 23.8256 43.2266 23.6021 43.3135 23.4528C43.3505 23.3534 43.3881 23.3161 43.4869 23.2788C43.6484 23.1547 44.1084 23.3287 44.2818 23.3905C44.7292 23.5893 45.1143 23.7633 45.4993 24.0241C45.6859 24.1483 45.8724 24.3841 46.096 24.4465H46.3446C46.7422 24.5334 47.189 24.4713 47.5615 24.5832C48.22 24.7817 48.8161 25.0924 49.3506 25.4404C50.9902 26.4714 52.3196 27.9372 53.2387 29.6887C53.3876 29.9744 53.4497 30.2353 53.5742 30.5335C53.8353 31.1423 54.1703 31.7632 54.4311 32.347C54.6798 32.9434 54.9406 33.5398 55.3006 34.0239C55.4997 34.2848 56.2447 34.4215 56.5802 34.5579C56.8163 34.6573 57.2011 34.769 57.4252 34.9059C57.8598 35.1543 58.2696 35.465 58.6797 35.7506C58.878 35.8887 59.4988 36.1992 59.5239 36.46Z" fill="white"/><path fill-rule="evenodd" clip-rule="evenodd" d="M46.8528 25.6655C46.6812 25.6656 46.5103 25.6865 46.3438 25.7279V25.7527H46.3808C46.4802 25.9515 46.6542 26.0881 46.7784 26.2619C46.8653 26.4607 46.965 26.6594 47.0519 26.8582L47.0889 26.8209C47.263 26.7093 47.3376 26.5105 47.3376 26.2001C47.2755 26.1255 47.263 26.0386 47.2012 25.9515C47.114 25.827 46.965 25.7649 46.8528 25.6655Z" fill="white"/><path fill-rule="evenodd" clip-rule="evenodd" d="M33.5996 45.74H38.2578C38.8043 45.74 39.3383 45.628 39.7607 45.429C40.4562 45.1066 40.8042 44.6714 40.8042 44.1001V42.9076C40.8042 42.4482 40.4066 42.0011 39.6493 41.7152C39.2392 41.5537 38.7422 41.4791 38.2578 41.4791H36.2952C35.6368 41.4791 35.3263 41.28 35.2517 40.8457C35.2392 40.7961 35.2392 40.7463 35.2392 40.6967V39.9636C35.2392 39.9141 35.2392 39.8768 35.2517 39.8272C35.3263 39.4917 35.5001 39.3923 36.0717 39.3428C36.1212 39.3428 36.1833 39.3302 36.2331 39.3302H40.8666V38.2497H36.3078C35.6493 38.2497 35.3138 38.2993 35.0034 38.3861C34.0345 38.6966 33.6121 39.1688 33.6121 40.0012V40.9453C33.6121 41.6784 34.4443 42.2993 35.8233 42.4482C35.9848 42.4482 36.1338 42.4608 36.2952 42.4608H37.9724C38.0345 42.4608 38.0963 42.4608 38.1459 42.4733C38.6679 42.5229 38.8789 42.6097 39.0404 42.7957C39.1273 42.8951 39.1649 42.9822 39.1649 43.0942V44.0383C39.1649 44.1502 39.0903 44.2994 38.9288 44.4233C38.7918 44.5478 38.5557 44.6224 38.2453 44.6469C38.1832 44.6469 38.1339 44.6594 38.0713 44.6594H33.5996V45.74ZM50.916 43.8512C50.916 44.9693 51.7359 45.5902 53.4131 45.7146C53.5621 45.7272 53.7235 45.7397 53.8725 45.7397H58.0961V44.6586H53.8474C52.8908 44.6586 52.5308 44.4225 52.5308 43.8512V38.2491H50.9157V43.8512H50.916ZM41.8354 43.9133V40.0628C41.8354 39.0813 42.5184 38.4852 43.8849 38.2987C44.0218 38.2736 44.1833 38.2736 44.3197 38.2736H47.4001C47.5491 38.2736 47.6861 38.2736 47.8476 38.2987C49.2015 38.4852 49.897 39.0813 49.897 40.0628V43.9133C49.897 44.7087 49.5991 45.1308 48.9281 45.4042L50.5307 46.8453H48.6427L47.3506 45.6898L46.0459 45.7645H44.3195C44.0216 45.7645 43.7109 45.7274 43.3628 45.628C42.3324 45.3544 41.8354 44.8078 41.8354 43.9133ZM43.587 43.8144C43.587 43.8765 43.5995 43.9258 43.612 43.9884C43.7114 44.4353 44.1335 44.6839 44.7669 44.6839H46.2456L44.8916 43.4664H46.7796L47.9595 44.5224C48.1711 44.4105 48.32 44.2365 48.3696 44.0129C48.3821 43.9509 48.3821 43.9016 48.3821 43.8515V40.1499C48.3821 40.1123 48.3821 40.063 48.3696 40.0129C48.2702 39.5908 47.8481 39.355 47.2267 39.355H44.7672C44.0466 39.355 43.5872 39.6655 43.5872 40.1499V43.8144H43.587ZM58.8417 45.74H59.0778V44.8454H59.4007V44.6589H58.5187V44.8454H58.8417V45.74ZM60.6553 45.74H60.8663V44.6589H60.5433L60.258 45.4045L59.9726 44.6589H59.6371V45.74H59.8607V44.92L60.1711 45.74H60.3326L60.643 44.92H60.6556V45.74H60.6553Z" fill="white"/><path fill-rule="evenodd" clip-rule="evenodd" d="M13.0155 35.6899L12.1084 31.4912H12.5681L13.0898 34.2488C13.1519 34.5345 13.2017 34.8201 13.239 35.1058L13.4005 34.3232L14.059 31.4909H14.593L15.09 33.6152C15.2141 34.1369 15.301 34.6336 15.3631 35.1058C15.4004 34.8327 15.4625 34.522 15.5371 34.1867L16.0711 31.4912H16.5433L15.5869 35.6899H15.152L14.4193 32.4973L14.3073 32.0004C14.2825 32.1866 14.2452 32.3484 14.2079 32.4973L13.4749 35.6899H13.0155ZM16.8292 33.6528C16.8292 32.9322 16.9907 32.3857 17.3011 32.0004C17.6118 31.6153 18.0091 31.4291 18.4813 31.4291C18.7792 31.4291 19.0652 31.5037 19.3135 31.6774C19.5619 31.8512 19.7607 32.0998 19.9099 32.4227C20.0466 32.7579 20.1212 33.143 20.1212 33.6026C20.1212 34.2238 19.9845 34.7207 19.6986 35.118C19.3881 35.5529 18.9783 35.7639 18.4813 35.7639C17.9718 35.7639 17.562 35.5404 17.2516 35.1055C16.9656 34.6962 16.8292 34.2118 16.8292 33.6528ZM17.3011 33.6528C17.3011 34.1745 17.4128 34.5721 17.6366 34.8577C17.8727 35.1434 18.1459 35.2926 18.4688 35.2926C18.8043 35.2926 19.09 35.1434 19.3135 34.8577C19.5371 34.5721 19.649 34.1497 19.649 33.5907C19.649 33.2182 19.5995 32.9074 19.475 32.6221C19.3881 32.3985 19.2514 32.2245 19.0774 32.1003C18.9058 31.9705 18.6963 31.9007 18.4811 31.9015C18.133 31.9015 17.8474 32.038 17.6363 32.3239C17.4128 32.6093 17.3011 33.0564 17.3011 33.6528ZM20.6922 35.6899V31.4912H22.2202C22.5306 31.4912 22.7667 31.5285 22.916 31.6153C23.0774 31.69 23.2016 31.8141 23.2885 32.0004C23.3879 32.1866 23.4377 32.398 23.4377 32.6338C23.4377 32.957 23.3631 33.2053 23.1894 33.4041C23.0276 33.6029 22.7918 33.7271 22.4688 33.7892C22.6055 33.8638 22.6924 33.9384 22.767 34.0127C22.9037 34.1742 23.0156 34.3482 23.1273 34.5467L23.7234 35.6896H23.152L22.6924 34.8199C22.5061 34.4844 22.382 34.2486 22.2826 34.1366C22.1957 34.0125 22.1085 33.9253 22.0217 33.888C21.9348 33.8507 21.8229 33.8259 21.6739 33.8259H21.1522V35.6893H20.6922V35.6899ZM21.1519 33.342H22.1208C22.3318 33.342 22.4933 33.3173 22.6052 33.2674C22.7169 33.2179 22.8038 33.1307 22.8784 33.0313C22.9405 32.9194 22.9652 32.7827 22.9652 32.6338C22.9652 32.4227 22.9031 32.2613 22.779 32.1371C22.6548 32.0129 22.4808 31.9508 22.2324 31.9508H21.1516V33.342H21.1519ZM24.1457 35.6899V31.4912H24.6054V33.5781L26.3073 31.4912H26.9282L25.4749 33.1931L26.9903 35.6899H26.3817L25.1644 33.5781L24.6054 34.2366V35.6899H24.1457ZM27.2016 34.336L27.6365 34.2987C27.6613 34.5222 27.7111 34.7085 27.798 34.8327C27.8726 34.9694 27.9968 35.0688 28.1457 35.1431C28.295 35.23 28.4687 35.2673 28.6552 35.2673C28.9283 35.2673 29.1271 35.1926 29.2764 35.0688C29.4253 34.9321 29.4999 34.758 29.4999 34.547C29.4999 34.4228 29.4752 34.3234 29.4253 34.2241C29.3758 34.1372 29.2886 34.0626 29.1767 34.0005C29.065 33.9384 28.829 33.8515 28.4687 33.7521C28.1457 33.6528 27.9096 33.5534 27.7729 33.454C27.6346 33.3654 27.523 33.2408 27.45 33.0937C27.3753 32.9445 27.338 32.7707 27.338 32.5845C27.338 32.2365 27.45 31.9633 27.661 31.752C27.8846 31.5285 28.1827 31.4291 28.5553 31.4291C28.8036 31.4291 29.0272 31.4786 29.226 31.578C29.4122 31.6774 29.5615 31.8264 29.6731 32.0129C29.7817 32.2196 29.8372 32.4501 29.8346 32.6836L29.3997 32.7209C29.3872 32.4478 29.3003 32.249 29.1636 32.1123C29.0144 31.9756 28.8281 31.9135 28.5675 31.9135C28.3064 31.9135 28.1079 31.9756 27.9834 32.0875C27.916 32.1406 27.8619 32.2086 27.8252 32.2862C27.7886 32.3638 27.7705 32.4489 27.7724 32.5346C27.7724 32.7087 27.8222 32.8328 27.9216 32.9322C28.0207 33.0191 28.2446 33.1185 28.5923 33.2179C28.94 33.3047 29.1761 33.3919 29.3128 33.454C29.5242 33.5656 29.6854 33.7023 29.7848 33.8763C29.8967 34.0503 29.9462 34.2614 29.9462 34.4975C29.9477 34.7284 29.8877 34.9556 29.7722 35.1556C29.6603 35.3544 29.5114 35.5036 29.3126 35.6027C29.1263 35.7144 28.8902 35.7642 28.6168 35.7642C28.1944 35.7642 27.8467 35.6401 27.5984 35.3792C27.35 35.1183 27.2139 34.7706 27.2016 34.336ZM32.6424 35.6899L31.7356 31.4912H32.1953L32.717 34.2488C32.7791 34.5345 32.8287 34.8201 32.8663 35.1058L33.0277 34.3232L33.6859 31.4909H34.2202L34.7169 33.6152C34.8336 34.107 34.9249 34.6045 34.9903 35.1058C35.0276 34.8327 35.0897 34.522 35.1518 34.1867L35.6983 31.4912H36.1702L35.2139 35.6899H34.779L34.0459 32.4973L33.9343 32.0004C33.9095 32.1866 33.8722 32.3484 33.8349 32.4973L33.1021 35.6899H32.6424ZM36.6672 35.6899V31.4912H37.1269V35.6899H36.6672ZM38.8038 35.6899V31.9881H37.6734V31.4912H40.3938V31.9881H39.2515V35.6899H38.8038ZM40.8415 35.6899V31.4912H41.3009V33.2179H43.0894V31.4912H43.5494V35.6899H43.0894V33.7148H41.3009V35.6899H40.8415Z" fill="white"/></g><defs><linearGradient id="paint0_linear" x1="-5.29027" y1="-2.35123" x2="73.476" y2="73.476" gradientUnits="userSpaceOnUse"><stop stop-color="#3CD89D"/><stop offset="1" stop-color="#82C444"/></linearGradient><clipPath id="clip0"><rect width="73.476" height="73.476" fill="white"/></clipPath></defs></svg>