<svg xmlns="http://www.w3.org/2000/svg" width="74" height="74" viewBox="0 0 74 74" fill="none"><g clip-path="url(#clip0)"><path d="M58.476 0.523987H15C6.71573 0.523987 0 7.23972 0 15.524V59C0 67.2843 6.71573 74 15 74H58.476C66.7603 74 73.476 67.2843 73.476 59V15.524C73.476 7.23972 66.7603 0.523987 58.476 0.523987Z" fill="url(#paint0_linear)"/><g clip-path="url(#clip1)"><path d="M16.0604 42.3791L16.0604 42.3791C16.2186 42.3131 16.3897 42.2756 16.566 42.2791M16.0604 42.3791L15.4478 43.1374C15.3895 43.2877 15.3587 43.4448 15.3587 43.6019L15.2587 43.5998C15.2587 43.6002 15.2587 43.6005 15.2587 43.6009C15.2551 43.7754 15.2887 43.946 15.3556 44.1052C15.422 44.2635 15.518 44.4072 15.64 44.529C15.7591 44.6549 15.9033 44.7545 16.0632 44.8214C16.2233 44.8884 16.3956 44.9213 16.5692 44.9179M16.0604 42.3791L16.0586 42.3798C15.9002 42.4496 15.7557 42.549 15.6366 42.6748L16.0604 42.3791ZM16.566 42.2791C16.7396 42.2793 16.9107 42.3125 17.0714 42.3833C17.2293 42.4528 17.3734 42.5518 17.4924 42.6772C17.619 42.7966 17.7148 42.9409 17.7842 43.1011L17.7847 43.1021C17.8517 43.2616 17.885 43.4319 17.885 43.6054C17.885 43.7788 17.8517 43.9491 17.7847 44.1086C17.7183 44.2666 17.6221 44.4112 17.4952 44.5306C17.375 44.6538 17.2311 44.7516 17.0722 44.8181C16.9129 44.8847 16.7418 44.9187 16.5692 44.9179M16.566 42.2791C16.5664 42.2792 16.5667 42.2792 16.5671 42.2792L16.565 42.3791V42.2791C16.5653 42.2791 16.5657 42.2791 16.566 42.2791ZM16.5692 44.9179C16.5687 44.9179 16.5683 44.9179 16.5679 44.9179L16.5684 44.8179L16.5704 44.9179C16.57 44.9179 16.5696 44.9179 16.5692 44.9179ZM22.9365 33.3257V44.6062V44.7062H22.8365H21.0133H20.9133V44.6062V29V28.9H21.0133H23.3848H23.4396L23.469 28.9461L31.2827 41.1708C31.2827 41.1708 31.2827 41.1708 31.2827 41.1708C31.4696 41.463 31.6202 41.7038 31.7332 41.8923C31.6734 41.2543 31.6496 40.6127 31.6639 39.9734V29V28.9H31.7639H33.5871H33.6871V29V44.6062V44.7062H33.5871H31.3424H31.2879L31.2583 44.6603L23.2323 32.2138L22.9365 33.3257ZM22.9365 33.3257C22.953 32.7509 22.9364 32.1763 22.8902 31.6019C22.9908 31.813 23.1054 32.0175 23.2322 32.2137L22.9365 33.3257ZM46.0484 42.8921L46.049 42.7915H45.9484H39.6056V37.5845H45.1431H45.2431V37.4845V35.8382V35.7382H45.1431H39.6056V30.7532H45.5543H45.6543V30.6532V29V28.9H45.5543H37.6379H37.5379V29V44.6062V44.7062H37.6379H45.9381H46.0375L46.0381 44.6068L46.0484 42.8921ZM47.3432 28.9H47.2432V29V30.6532V30.7532H47.3432H51.7327V44.6062V44.7062H51.8327H53.6558H53.7558V44.6062V30.7532H58.1967H58.2967V30.6532V29V28.9H58.1967H47.3432Z" fill="white" stroke="white" stroke-width="0.2"/></g></g><defs><linearGradient id="paint0_linear" x1="-5.29027" y1="-1.82724" x2="73.476" y2="74" gradientUnits="userSpaceOnUse"><stop stop-color="#3CD89D"/><stop offset="1" stop-color="#82C444"/></linearGradient><clipPath id="clip0"><rect width="73.476" height="73.476" fill="white" transform="translate(0 0.523987)"/></clipPath><clipPath id="clip1"><rect width="43" height="27" fill="white" transform="translate(15.2378 28)"/></clipPath></defs></svg>