<svg xmlns="http://www.w3.org/2000/svg" width="74" height="74" viewBox="0 0 74 74" fill="none"><path d="M58.8451 0H15.3691C7.08487 0 0.369141 6.71573 0.369141 15V58.476C0.369141 66.7603 7.08487 73.476 15.3691 73.476H58.8451C67.1294 73.476 73.8451 66.7603 73.8451 58.476V15C73.8451 6.71573 67.1294 0 58.8451 0Z" fill="url(#paint0_linear)"/><path d="M53.96 27.8385L44.6 18.1126L44.6 18.1126C44.4386 17.9448 44.2159 17.85 43.9829 17.85H30.0324C28.3884 17.85 27.0511 19.1868 27.0511 20.8303V30.5677H21.5474C20.2967 30.5677 19.2792 31.5848 19.2792 32.8355V43.4373C19.2792 44.6879 20.2967 45.705 21.5474 45.705H27.0511V51.9147C27.0511 53.5557 28.3886 54.89 30.0324 54.89H51.2182C52.8619 54.89 54.1996 53.5565 54.1996 51.9163V28.4325C54.1996 28.211 54.1138 27.9982 53.9601 27.8385C53.9601 27.8385 53.9601 27.8385 53.96 27.8385ZM44.308 20.2796L51.4892 27.7415H44.308V20.2796ZM21.5474 43.9919C21.2414 43.9919 20.9923 43.7429 20.9923 43.4373V32.8355C20.9923 32.5299 21.2414 32.2808 21.5474 32.2808H40.6265C40.9328 32.2808 41.1818 32.5299 41.1818 32.8355V43.4373C41.1818 43.7429 40.9327 43.9919 40.6265 43.9919H21.5474ZM52.4864 51.9163C52.4864 52.6105 51.9182 53.1769 51.2182 53.1769H30.0324C29.3326 53.1769 28.7642 52.61 28.7642 51.9148V45.705H40.6265C41.8775 45.705 42.895 44.6879 42.895 43.4373V32.8355C42.895 31.5848 41.8775 30.5677 40.6265 30.5677H28.7641V20.8303C28.7641 20.1317 29.333 19.5631 30.0324 19.5631H42.5949V28.5981C42.5949 29.0711 42.9784 29.4546 43.4514 29.4546H52.4864V51.9163Z" fill="white" stroke="white" stroke-width="0.3"/><path d="M27.1693 35.9318C26.9347 35.6268 26.6436 35.4288 26.2959 35.3376C26.0696 35.2768 25.5839 35.2467 24.8386 35.2467H22.8721V41.3157H24.0976V39.0263H24.8964C25.4513 39.0263 25.8748 38.9973 26.1673 38.9394C26.3827 38.8924 26.5944 38.7965 26.8029 38.6517C27.0113 38.5068 27.183 38.3074 27.3183 38.0534C27.4536 37.7996 27.5211 37.4863 27.5211 37.1137C27.5211 36.6308 27.4038 36.2367 27.1693 35.9318ZM26.1199 37.6023C26.0273 37.7374 25.8998 37.8369 25.7369 37.9003C25.5741 37.9637 25.2512 37.9955 24.7683 37.9955H24.0976V36.2733H24.6895C25.1311 36.2733 25.425 36.287 25.5712 36.3146C25.7699 36.3506 25.9342 36.4402 26.0639 36.5838C26.1937 36.7272 26.2585 36.9095 26.2585 37.1303C26.2585 37.3097 26.2123 37.467 26.1199 37.6023Z" fill="white"/><path d="M32.1577 35.2467V37.6354H29.7567V35.2467H28.5312V41.3157H29.7567V38.6622H32.1577V41.3157H33.3832V35.2467H32.1577Z" fill="white"/><path d="M38.9471 35.9318C38.7125 35.6268 38.4213 35.4288 38.0736 35.3376C37.8471 35.2768 37.3614 35.2467 36.6164 35.2467H34.6499V41.3157H35.8752V39.0263H36.6743C37.2289 39.0263 37.6527 38.9973 37.9451 38.9394C38.1604 38.8924 38.3723 38.7965 38.5806 38.6517C38.7889 38.5068 38.9608 38.3074 39.0961 38.0534C39.2312 37.7996 39.2989 37.4863 39.2989 37.1137C39.2989 36.6308 39.1817 36.2367 38.9471 35.9318ZM37.8978 37.6023C37.8052 37.7374 37.6777 37.8369 37.5148 37.9003C37.3519 37.9637 37.0291 37.9955 36.546 37.9955H35.8752V36.2733H36.4673C36.9089 36.2733 37.2028 36.287 37.3491 36.3146C37.5478 36.3506 37.7121 36.4402 37.8417 36.5838C37.9715 36.7272 38.0364 36.9095 38.0364 37.1303C38.0364 37.3096 37.9902 37.467 37.8978 37.6023Z" fill="white"/><defs><linearGradient id="paint0_linear" x1="-4.92113" y1="-2.35123" x2="73.8451" y2="73.476" gradientUnits="userSpaceOnUse"><stop stop-color="#3CD89D"/><stop offset="1" stop-color="#82C444"/></linearGradient></defs></svg>