<svg xmlns="http://www.w3.org/2000/svg" width="74" height="74" viewBox="0 0 74 74" fill="none"><g clip-path="url(#clip0)"><path d="M58.476 0H15C6.71573 0 0 6.71573 0 15V58.476C0 66.7603 6.71573 73.476 15 73.476H58.476C66.7603 73.476 73.476 66.7603 73.476 58.476V15C73.476 6.71573 66.7603 0 58.476 0Z" fill="url(#paint0_linear)"/><g clip-path="url(#clip1)"><path d="M36.37 18C26.2435 18 18 26.2374 18 36.37C18 46.4965 26.2435 54.74 36.37 54.74C46.4965 54.74 54.74 46.4965 54.74 36.37C54.74 26.2359 46.4965 18 36.37 18ZM19.8523 36.3685C19.8523 33.9758 20.3621 31.7025 21.2821 29.6496L29.1628 51.2344C23.6503 48.5539 19.8523 42.9036 19.8523 36.3685ZM36.37 52.8877C34.7473 52.8877 33.1843 52.6504 31.704 52.2126L36.6593 37.8136L41.734 51.7243C41.7708 51.8069 41.8091 51.8789 41.8519 51.9539C40.1404 52.554 38.2958 52.8877 36.37 52.8877ZM38.6433 28.6316V28.6301C39.6353 28.5781 40.5308 28.4755 40.5308 28.4755C41.4202 28.3714 41.3161 27.061 40.4267 27.1115C40.4267 27.1115 37.7523 27.3182 36.0271 27.3182C34.4044 27.3182 31.678 27.1115 31.678 27.1115C30.7901 27.0595 30.6875 28.4234 31.5754 28.4755C31.5754 28.4755 32.4189 28.5796 33.3083 28.6301L35.8786 35.6811L32.2643 46.5179L26.2512 28.6301C27.2447 28.5781 28.1402 28.4755 28.1402 28.4755C29.0297 28.3714 28.9256 27.061 28.0361 27.1115C28.0361 27.1115 25.3618 27.3182 23.6365 27.3182C23.3258 27.3182 22.9614 27.3105 22.5695 27.2968C25.5256 22.8145 30.5988 19.8523 36.37 19.8523C40.667 19.8523 44.5845 21.498 47.5252 24.1846C47.4502 24.1769 47.3843 24.1708 47.3109 24.1708C45.6882 24.1708 44.5401 25.5853 44.5401 27.1039C44.5401 28.4663 45.3254 29.6144 46.1627 30.9784C46.7919 32.0745 47.5267 33.489 47.5267 35.5342C47.5267 36.9487 46.9863 38.5851 46.2668 40.8752L44.6212 46.3786L38.6433 28.6316ZM50.867 28.4449C52.156 30.8008 52.8892 33.4966 52.8892 36.3715C52.8892 42.4673 49.5857 47.7854 44.6748 50.645L44.6732 50.6435L49.7173 36.0577C50.6573 33.7018 50.9772 31.8219 50.9772 30.1395C50.9772 29.5333 50.9405 28.97 50.867 28.4449Z" fill="white"/></g></g><defs><linearGradient id="paint0_linear" x1="-5.29027" y1="-2.35123" x2="73.476" y2="73.476" gradientUnits="userSpaceOnUse"><stop stop-color="#3CD89D"/><stop offset="1" stop-color="#82C444"/></linearGradient><clipPath id="clip0"><rect width="73.476" height="73.476" fill="white"/></clipPath><clipPath id="clip1"><rect width="36.74" height="36.74" fill="white" transform="translate(18 18)"/></clipPath></defs></svg>